SplineFontDB: 3.2
FontName: ZameroSans-Regular
FullName: Zamero Sans Regular
FamilyName: Zamero Sans
Weight: Regular
Copyright: Copyright (c) 2024, Zamero Type Foundry
UComments: "2024-1-17: Created with FontForge (http://fontforge.org)+AAoACgAK-Instead of Charlie and the Alphabet and Charlie and the Numbers, how about Charlie and the Fonts? :)"
Version: 001.000
ItalicAngle: 0
UnderlinePosition: -100
UnderlineWidth: 50
Ascent: 800
Descent: 200
InvalidEm: 0
LayerCount: 2
Layer: 0 0 "Back" 1
Layer: 1 0 "Fore" 0
XUID: [1021 474 1118879153 20760]
StyleMap: 0x0040
FSType: 0
OS2Version: 0
OS2_WeightWidthSlopeOnly: 0
OS2_UseTypoMetrics: 1
CreationTime: 1705525712
ModificationTime: 1727630776
PfmFamily: 33
TTFWeight: 400
TTFWidth: 5
LineGap: 90
VLineGap: 90
OS2TypoAscent: 0
OS2TypoAOffset: 1
OS2TypoDescent: 0
OS2TypoDOffset: 1
OS2TypoLinegap: 90
OS2WinAscent: 0
OS2WinAOffset: 1
OS2WinDescent: 0
OS2WinDOffset: 1
HheadAscent: 0
HheadAOffset: 1
HheadDescent: 0
HheadDOffset: 1
OS2Vendor: 'ZAM '
Lookup: 1 0 0 "'ss15' Style Set 15 lookup 20" { "'ss15' Style Set 15 lookup 20-1" ("ss15") } ['ss15' ('DFLT' <'dflt' > 'grek' <'dflt' > 'latn' <'dflt' > ) ]
Lookup: 1 0 0 "'ss14' Style Set 14 lookup 19" { "'ss14' Style Set 14 lookup 19-1" ("ss14") } ['ss14' ('DFLT' <'dflt' > 'grek' <'dflt' > 'latn' <'dflt' > ) ]
Lookup: 1 0 0 "'onum' Oldstyle Figures lookup 18" { "'onum' Oldstyle Figures lookup 18-1" ("osf") } ['onum' ('DFLT' <'dflt' > 'grek' <'dflt' > 'latn' <'dflt' > ) ]
Lookup: 1 0 0 "'tnum' Tabular Numbers lookup 17" { "'tnum' Tabular Numbers lookup 17-1" ("tf") } ['tnum' ('DFLT' <'dflt' > 'grek' <'dflt' > 'latn' <'dflt' > ) ]
Lookup: 1 0 0 "'dnom' Denominators lookup 0" { "'dnom' Denominators lookup 0 subtable" ("dnom") } ['dnom' ('DFLT' <'dflt' > 'latn' <'dflt' > ) ]
Lookup: 1 0 0 "'numr' Numerators lookup 0" { "'numr' Numerators lookup 0 subtable" ("numr") } ['numr' ('DFLT' <'dflt' > 'latn' <'dflt' > ) ]

StartChar: I
Encoding: 73 73 0
Width: 434
Flags: W
HStem: 0 110<40 152.5 281.5 394> 30 80<152.5 281.5> 620 111<40 152.5 281.5 394> 620 81<152.5 281.5>
VStem: 152.5 129<30 701>
AnchorPoint: "Anchor-3" 271 0 basechar 0
AnchorPoint: "Anchor-2" 218 0 basechar 0
AnchorPoint: "Anchor-0" 216 731 basechar 0
LayerCount: 2
Fore
SplineSet
394 0 m 5x88
 40 0 l 1
 40 110 l 1
 394 110 l 5
 394 0 l 5x88
394 620 m 5x28
 40 620 l 1
 40 731 l 1
 394 731 l 5
 394 620 l 5x28
152.5 30 m 1x58
 152.5 701 l 1
 281.5 701 l 1
 281.5 30 l 1
 152.5 30 l 1x58
EndSplineSet
Validated: 5
EndChar

StartChar: O
Encoding: 79 79 1
Width: 797
Flags: W
HStem: -9.99805 117.462<292.874 504.904> 621.659 117.462<292.874 504.904>
VStem: 45 129.849<236.696 492.427> 622.929 129.849<236.696 492.427>
AnchorPoint: "Anchor-3" 471 20 basechar 0
AnchorPoint: "Anchor-2" 398 0 basechar 0
AnchorPoint: "Anchor-0" 399 731 basechar 0
LayerCount: 2
Back
SplineSet
104.848632812 364.561523438 m 0
 104.848632812 169.015917071 203.263968617 38.4638671875 398.888671875 38.4638671875 c 4
 594.513375133 38.4638671875 692.928710938 169.015917071 692.928710938 364.561523438 c 0
 692.928710938 560.107129798 594.513375133 690.659179688 398.888671875 690.659179688 c 0
 203.263968617 690.659179688 104.848632812 560.107129798 104.848632812 364.561523438 c 0
55 364.561523438 m 0
 55 591.206054688 185.120861123 739.12109375 398.888671875 739.12109375 c 0
 612.656482627 739.12109375 742.77734375 591.206054688 742.77734375 364.561523438 c 0
 742.77734375 137.916992188 612.656482627 -9.998046875 398.888671875 -9.998046875 c 0
 185.120861123 -9.998046875 55 137.916992188 55 364.561523438 c 0
EndSplineSet
Fore
SplineSet
174.848632812 364.561523438 m 4
 174.848632812 210.392009726 241.94731479 107.463867188 398.888671875 107.463867188 c 4
 555.83002896 107.463867188 622.928710938 210.392009726 622.928710938 364.561523438 c 4
 622.928710938 518.731037146 555.83002896 621.659179688 398.888671875 621.659179688 c 4
 241.94731479 621.659179688 174.848632812 518.731037146 174.848632812 364.561523438 c 4
45 364.561523438 m 4
 45 591.206054688 178.904668842 739.12109375 398.888671875 739.12109375 c 4
 618.872674908 739.12109375 752.77734375 591.206054688 752.77734375 364.561523438 c 4
 752.77734375 137.916992188 618.872674908 -9.998046875 398.888671875 -9.998046875 c 4
 178.904668842 -9.998046875 45 137.916992188 45 364.561523438 c 4
EndSplineSet
Validated: 1
EndChar

StartChar: H
Encoding: 72 72 2
Width: 719
Flags: W
HStem: 0 21G<65 194 525 654> 305 106<130 574> 711.008 20G<65 194 525 654>
VStem: 65 129<0 305 411 731.008> 130 64<305 411> 525 129<0 305 411 731.008> 525 49<305 411>
AnchorPoint: "Anchor-2" 357 0 basechar 0
AnchorPoint: "Anchor-0" 357 731 basechar 0
LayerCount: 2
Fore
SplineSet
574 305 m 5xea
 130 305 l 1
 130 411 l 1
 574 411 l 5
 574 305 l 5xea
525 0 m 5xe4
 525 731.0078125 l 5
 654 731.0078125 l 5
 654 0 l 5
 525 0 l 5xe4
65 0 m 1xf0
 65 731.0078125 l 1
 194 731.0078125 l 1
 194 0 l 1
 65 0 l 1xf0
EndSplineSet
Validated: 5
EndChar

StartChar: V
Encoding: 86 86 4
Width: 699
Flags: W
HStem: 0 21G<267.887 440.84> 711.008 20G<15 155.817 543.457 684>
AnchorPoint: "Anchor-2" 354 0.0117188 basechar 0
AnchorPoint: "Anchor-0" 353 731 basechar 0
LayerCount: 2
Fore
SplineSet
275 0 m 1
 15 731.0078125 l 1
 149 731.0078125 l 1
 353.606445312 130.694335938 l 1
 550 731.0078125 l 1
 684 731.0078125 l 1
 434 0 l 5
 275 0 l 1
EndSplineSet
Validated: 1
EndChar

StartChar: D
Encoding: 68 68 5
Width: 727
Flags: W
HStem: 0 115.352<194 424.579> 615.649 115.358<194 425.024>
VStem: 65 129<115.352 615.649> 552.929 129.849<240.57 488.722>
AnchorPoint: "Anchor-2" 356 0 basechar 0
AnchorPoint: "Anchor-0" 350 731 basechar 0
LayerCount: 2
Fore
SplineSet
65 0 m 1
 65 731.0078125 l 1
 308.888671875 731.0078125 l 6
 505.609624971 731.0078125 682.77734375 631.206054688 682.77734375 364.561523438 c 4
 682.77734375 97.9169921873 504.458235806 -2.39530617563e-14 308.888671875 0 c 6
 65 0 l 1
194 615.649414062 m 1
 194 115.3515625 l 1
 283.888671875 115.461914062 l 6
 437.913921689 115.649205148 552.928710938 160.253441083 552.928710938 364.561523438 c 4
 552.928710938 568.619101273 437.913926254 615.370424864 283.888671875 615.545898438 c 6
 194 615.649414062 l 1
EndSplineSet
Validated: 1
EndChar

StartChar: U
Encoding: 85 85 6
Width: 719
Flags: W
HStem: -9.99805 117.462<257.414 458.363> 711.008 20G<65 194 521.777 650.777>
VStem: 65 129<177.48 731.008> 521.777 129<177.48 731.008>
AnchorPoint: "Anchor-3" 451 18 basechar 0
AnchorPoint: "Anchor-2" 358 0.0117188 basechar 0
AnchorPoint: "Anchor-0" 362 731 basechar 0
LayerCount: 2
Fore
SplineSet
357.888671875 -9.998046875 m 0
 139.156573468 -9.998046875 65 102.375640235 65 274.561523438 c 2
 65 731.0078125 l 1
 194 731.0078125 l 1
 194 304.561523438 l 2
 194 186.37122073 216.59622445 107.463867188 357.888671875 107.463867188 c 0
 499.1811193 107.463867188 521.77734375 186.37122073 521.77734375 304.561523438 c 6
 521.77734375 731.0078125 l 5
 650.77734375 731.0078125 l 5
 650.77734375 274.561523438 l 6
 650.77734375 102.375640235 576.620770282 -9.998046875 357.888671875 -9.998046875 c 0
EndSplineSet
Validated: 1
EndChar

StartChar: L
Encoding: 76 76 7
Width: 568
Flags: W
HStem: 0 111<194 544> 711.008 20G<65 194>
VStem: 65 129<111 731.008>
AnchorPoint: "Anchor-2" 308 0 basechar 0
AnchorPoint: "Anchor-0" 139 731 basechar 0
LayerCount: 2
Fore
SplineSet
194 111 m 5
 544 111 l 1
 544 0 l 1
 65 0 l 5
 65 731.0078125 l 5
 194 731.0078125 l 5
 194 111 l 5
EndSplineSet
Validated: 1
EndChar

StartChar: F
Encoding: 70 70 8
Width: 574
Flags: W
HStem: 0 21G<65 194> 281 115<130 474> 620.008 111<194 534>
VStem: 65 129<0 281 396 620.008> 130 64<281 396>
AnchorPoint: "Anchor-2" 297 0 basechar 0
AnchorPoint: "Anchor-0" 306 731 basechar 0
LayerCount: 2
Fore
SplineSet
474 281 m 5xe8
 130 281 l 1
 130 396 l 1
 474 396 l 5
 474 281 l 5xe8
194 620.0078125 m 1xf0
 194 0 l 1
 65 0 l 1
 65 731.0078125 l 1
 534 731.0078125 l 5
 534 620.0078125 l 5
 194 620.0078125 l 1xf0
EndSplineSet
Validated: 5
EndChar

StartChar: C
Encoding: 67 67 9
Width: 667
Flags: W
HStem: -9.99805 117.462<306.081 554.389> 621.659 117.462<306.081 532.979>
VStem: 45 136.849<234.374 490.105>
AnchorPoint: "Anchor-0" 406 731 basechar 0
AnchorPoint: "Anchor-2" 406 0 basechar 0
LayerCount: 2
Fore
SplineSet
45 360.561523438 m 0
 45 589.626439045 175.715107859 739.12109375 405.888671875 739.12109375 c 0
 571.571008915 739.12109375 639.681640625 672.891601562 639.681640625 672.891601562 c 5
 593.35546875 564.138671875 l 5
 593.35546875 564.138671875 536.059790478 621.659179688 419.888671875 621.659179688 c 0
 253.140232946 621.659179688 181.848632812 517.129651213 181.848632812 360.561523438 c 0
 181.848632812 208.790623793 253.140232946 107.463867188 419.888671875 107.463867188 c 0
 541.570779615 107.463867188 606.018554688 153.595703125 606.018554688 153.595703125 c 5
 642.827148438 44.595703125 l 5
 642.827148438 44.595703125 570.452460076 -9.998046875 405.888671875 -9.998046875 c 0
 175.715107859 -9.998046875 45 136.337376545 45 360.561523438 c 0
EndSplineSet
Validated: 1
Substitution2: "'ss12' Style Set 12 lookup 13-1" C.ss12
EndChar

StartChar: E
Encoding: 69 69 10
Width: 579
Flags: W
HStem: 0 111<194 539> 307 116<130 479> 620.008 111<194 539>
VStem: 130 64<307 423>
AnchorPoint: "Anchor-3" 471 0 basechar 0
AnchorPoint: "Anchor-2" 306 0 basechar 0
AnchorPoint: "Anchor-0" 306 731 basechar 0
LayerCount: 2
Fore
SplineSet
479 307 m 5
 130 307 l 1
 130 423 l 1
 479 423 l 5
 479 307 l 5
194 620.0078125 m 1
 194 111 l 1
 539 111 l 5
 539 0 l 5
 65 0 l 1
 65 731.0078125 l 1
 539 731.0078125 l 5
 539 620.0078125 l 5
 194 620.0078125 l 1
EndSplineSet
Validated: 5
EndChar

StartChar: N
Encoding: 78 78 11
Width: 719
Flags: W
HStem: 0 21G<65 192 508.223 654> 711.008 20G<65 211.097 527 654>
VStem: 65 127<0 515.005> 527 127<228.6 731.008>
AnchorPoint: "Anchor-2" 365 0 basechar 0
AnchorPoint: "Anchor-0" 363 731 basechar 0
LayerCount: 2
Fore
SplineSet
65 0 m 1
 65 731.0078125 l 1
 198 731.0078125 l 1
 527 228.599609375 l 5
 527 731.0078125 l 5
 654 731.0078125 l 5
 654 0 l 5
 521 0 l 5
 192 515.004882812 l 1
 192 0 l 1
 65 0 l 1
EndSplineSet
Validated: 1
EndChar

StartChar: M
Encoding: 77 77 12
Width: 830
Flags: W
HStem: 0 21G<65 194 636 765> 711.008 20G<65 224.244 605.756 765>
VStem: 65 129<0 515.005> 636 129<0 515.005>
AnchorPoint: "Anchor-2" 411 0 basechar 0
AnchorPoint: "Anchor-0" 412 731 basechar 0
LayerCount: 2
Fore
SplineSet
65 0 m 1
 65 731.0078125 l 1
 214 731.0078125 l 1
 415 338.599609375 l 1
 616 731.0078125 l 5
 765 731.0078125 l 5
 765 0 l 5
 636 0 l 5
 636 515.004882812 l 5
 465 180 l 1
 365 180 l 1
 194 515.004882812 l 1
 194 0 l 1
 65 0 l 1
EndSplineSet
Validated: 1
EndChar

StartChar: G
Encoding: 71 71 13
Width: 789
Flags: W
HStem: -9.99805 117.462<299.032 509.174> 301 108<406 556.019 677.827 754> 301 23.5957<556.019 677.827> 621.659 117.462<307.096 537.611>
VStem: 45 136.849<233.976 492.427> 570.481 123.001<162.804 299.62>
AnchorPoint: "Anchor-2" 401 0 basechar 0
AnchorPoint: "Anchor-0" 408 731 basechar 0
LayerCount: 2
Fore
SplineSet
754 301 m 5xdc
 406 301 l 5
 406 409 l 5
 754 409 l 5
 754 301 l 5xdc
45 364.561523438 m 4
 45 591.206054688 182.688476562 739.12109375 408.888671875 739.12109375 c 4
 583.075062974 739.12109375 654.681640625 663.891601562 654.681640625 663.891601562 c 5
 603.35546875 561.138671875 l 5
 603.35546875 561.138671875 541.435623142 621.659179688 415.888671875 621.659179688 c 4
 251.94225633 621.659179688 181.848632812 518.731037146 181.848632812 364.561523438 c 4
 181.848632812 210.392009726 242.154542588 107.463867188 406.888671875 107.463867188 c 4
 523.72379795 107.463867188 570.481445312 159.25907447 570.481445312 237 c 4
 570.481445312 298.264697581 556.018554688 324.595703125 556.018554688 324.595703125 c 5
 677.827148438 324.595703125 l 5xbc
 677.827148438 324.595703125 693.482421875 300.565222287 693.482421875 222 c 4
 693.482421875 93.0859042083 598.993626692 -9.998046875 399.888671875 -9.998046875 c 4
 173.842161076 -9.998046875 45 137.916992188 45 364.561523438 c 4
EndSplineSet
Validated: 5
Substitution2: "'ss12' Style Set 12 lookup 13-1" G.ss12
Substitution2: "'ss08' Style Set 8 lookup 9-1" G.ss08
EndChar

StartChar: A
Encoding: 65 65 14
Width: 719
Flags: W
HStem: 0 21G<15 155.993 562.729 704> 155 111<162 556> 711.008 20G<277.613 431.661>
AnchorPoint: "Anchor-3" 601 0 basechar 0
AnchorPoint: "Anchor-2" 362 0 basechar 0
AnchorPoint: "Anchor-0" 352 731 basechar 0
LayerCount: 2
Fore
SplineSet
556 155 m 1
 162 155 l 1
 162 266 l 1
 556 266 l 1
 556 155 l 1
424 731.0078125 m 1
 704 0 l 1
 570 0 l 1
 355.393554688 590.313476562 l 1
 149 0 l 1
 15 0 l 1
 285 731.0078125 l 1
 424 731.0078125 l 1
EndSplineSet
EndChar

StartChar: P
Encoding: 80 80 15
Width: 665
Flags: W
HStem: 0 21G<65 194> 224 107.352<154 432.278> 619.649 111.358<194 428.001>
VStem: 65 129<0 224 331.352 619.649> 154 40<224 331.352> 495.929 129.849<389.746 560.53>
AnchorPoint: "Anchor-2" 342 0 basechar 0
AnchorPoint: "Anchor-0" 339 731 basechar 0
LayerCount: 2
Fore
SplineSet
154 224 m 1xec
 154 331.3515625 l 1xec
 316.888671875 331.461914062 l 6
 419.388909006 331.619600489 495.928710938 357.193186929 495.928710938 474.561523438 c 4
 495.928710938 592.438026253 419.388920353 619.3979044 316.888671875 619.545898438 c 6
 194 619.649414062 l 1
 194 0 l 1
 65 0 l 1
 65 731.0078125 l 1xf4
 338.888671875 731.0078125 l 6
 489.834707979 731.0078125 625.77734375 661.164588003 625.77734375 474.561523438 c 4
 625.77734375 291.297915868 488.951235081 224 338.888671875 224 c 6
 154 224 l 1xec
EndSplineSet
Validated: 5
EndChar

StartChar: R
Encoding: 82 82 16
Width: 660
Flags: W
HStem: 0 21G<65 194 511.545 650> 272 111.352<154 424.743> 618.649 112.358<194 429.527>
VStem: 65 129<0 272 383.352 618.649> 154 40<272 383.352> 480.929 129.849<428.455 573.48>
AnchorPoint: "Anchor-2" 342 0.0117188 basechar 0
AnchorPoint: "Anchor-0" 325 731 basechar 0
LayerCount: 2
Back
SplineSet
124 383.3515625 m 1xec
 300.888671875 383.461914062 l 2
 383.403259307 383.509014034 462.928710938 404.697396723 462.928710938 501.561523438 c 0
 462.928710938 596.672668425 383.403268044 618.487535435 300.888671875 618.545898438 c 2
 184 618.649414062 l 1
 184 0 l 1
 55 0 l 1
 55 731.0078125 l 1xf4
 308.888671875 731.0078125 l 2
 457.204101562 731.0078125 590.77734375 670.696715458 590.77734375 509.561523438 c 4
 590.77734375 364.195131811 466.688476562 330.276367188 466.688476562 330.276367188 c 1
 466.688476562 330.276367188 540.174524344 311.767586577 573.702148438 195.399414062 c 2
 630 0 l 1
 492 0 l 1
 447 165 l 2
 420.732434887 256.417062766 391.813913829 266 270 266 c 2
 124 266 l 1
 124 383.3515625 l 1xec
EndSplineSet
Fore
SplineSet
154 383.3515625 m 1xec
 322.888671875 383.461914062 l 6
 413.366351314 383.528973249 480.928710938 404.337776861 480.928710938 499.561523438 c 4
 480.928710938 596.298717118 413.366351375 618.459885326 322.888671875 618.545898438 c 6
 194 618.649414062 l 1
 194 0 l 1
 65 0 l 1
 65 731.0078125 l 1xf4
 338.888671875 731.0078125 l 6
 481.942612028 731.0078125 610.77734375 669.334960938 610.77734375 504.561523438 c 4
 610.77734375 368.825734628 490.688476562 331.276367188 490.688476562 331.276367188 c 5
 490.688476562 331.276367188 559.797805486 313.073859736 587.608398438 216.548828125 c 6
 650 0 l 5
 517 0 l 5
 472 165 l 6
 446.458755773 258.651228832 418.06105702 272 299 272 c 6
 154 272 l 1
 154 383.3515625 l 1xec
EndSplineSet
Validated: 5
Substitution2: "'ss01' Style Set 1 lookup 2-1" R.ss01
EndChar

StartChar: T
Encoding: 84 84 17
Width: 614
Flags: W
HStem: 0 21G<242.5 371.5> 620 111<40 242.5 371.5 574> 620 81<242.5 371.5>
VStem: 242.5 129<0 701>
AnchorPoint: "Anchor-2" 311 0.0117188 basechar 0
AnchorPoint: "Anchor-0" 310 731 basechar 0
LayerCount: 2
Fore
SplineSet
574 620 m 5xd0
 40 620 l 1
 40 731 l 1
 574 731 l 5
 574 620 l 5xd0
242.5 0 m 1
 242.5 701 l 1
 371.5 701 l 1xb0
 371.5 0 l 1
 242.5 0 l 1
EndSplineSet
Validated: 5
EndChar

StartChar: Q
Encoding: 81 81 18
Width: 866
Flags: W
HStem: -9.99805 117.462<295.69 508.608> 621.659 117.462<296.905 511.171>
VStem: 45 129.849<236.696 492.427> 632.929 131.849<248.031 488.609>
AnchorPoint: "Anchor-2" 518 0 basechar 0
AnchorPoint: "Anchor-0" 404 731 basechar 0
LayerCount: 2
Fore
SplineSet
45 364.561523438 m 0
 45 591.206054687 180.796572702 739.12109375 403.888671875 739.12109375 c 0
 628.224009504 739.12109375 764.77734375 589.104132899 764.77734375 384.561523438 c 4
 764.77734375 192.628540684 657.938476562 111.598632812 657.938476562 111.598632812 c 1
 728.772464386 112.78125078 816.888671875 126.001953125 816.888671875 126.001953125 c 5
 831.888671875 19.001953125 l 5
 831.888671875 19.001953125 723.517533927 -9.998046875 444 -9.998046875 c 0
 167.770365664 -9.998046875 45 137.916992188 45 364.561523438 c 0
174.848632812 364.561523438 m 0
 174.848632812 210.392009726 247.934885448 107.463867188 403.888671875 107.463867188 c 0
 559.842458302 107.463867188 632.928710938 210.392009726 632.928710938 364.561523438 c 4
 632.928710938 518.731037146 559.842458302 621.659179688 403.888671875 621.659179688 c 0
 247.934885448 621.659179688 174.848632812 518.731037146 174.848632812 364.561523438 c 0
EndSplineSet
Validated: 1
Substitution2: "'ss10' Style Set 10 lookup 11-1" Q.ss10
Substitution2: "'ss09' Style Set 9 lookup 10-1" Q.ss09
EndChar

StartChar: B
Encoding: 66 66 19
Width: 640
Flags: W
HStem: 0 111.46<189 435.892> 314.656 101.695<154 408.117> 619.649 111.358<189 408.096>
VStem: 154 35<314.656 416.352> 451.929 124.849<455.534 578.151> 474.929 124.849<146.936 273.508>
AnchorPoint: "Anchor-2" 343 0 basechar 0
AnchorPoint: "Anchor-0" 320 731 basechar 0
LayerCount: 2
Fore
SplineSet
486.662109375 376.4375 m 5xf8
 486.662109375 376.4375 599.77734375 342.813198592 599.77734375 206.446289062 c 4xf4
 599.77734375 56.2257093532 475.197709119 -1.54459778301e-14 335.888671875 0 c 6
 65 0 l 1
 65 731.0078125 l 1
 314.888671875 731.0078125 l 6
 452.6809962 731.0078125 576.77734375 674.782103147 576.77734375 524.561523438 c 4
 576.77734375 408.693422378 486.662109375 376.4375 486.662109375 376.4375 c 5xf8
189 111.459960938 m 1
 332.888671875 111.461914062 l 6
 414.118789234 111.462996584 474.928710938 129.7821497 474.928710938 209.446289062 c 4xf4
 474.928710938 295.64754687 405.656295913 314.413192936 312.888671875 314.545898438 c 6
 154 314.65625 l 1
 154 416.3515625 l 1
 290.888671875 416.461914062 l 6
 383.083571042 416.642217406 451.928710938 434.461197038 451.928710938 516.561523438 c 4xf8
 451.928710938 600.290807847 383.083974644 619.472986131 290.888671875 619.545898438 c 6
 189 619.649414062 l 1
 189 111.459960938 l 1
EndSplineSet
Validated: 5
EndChar

StartChar: J
Encoding: 74 74 20
Width: 432
Flags: W
HStem: -10 109<21.657 198.858> 620.008 111<50 228>
VStem: 228 129<129.455 620.008>
AnchorPoint: "Anchor-2" 175 0 basechar 0
AnchorPoint: "Anchor-0" 209 731 basechar 0
LayerCount: 2
Fore
SplineSet
128 99 m 0
 198.405273438 99 228 132.779543958 228 212 c 2
 228 620.0078125 l 1
 50 620.0078125 l 5
 50 731.0078125 l 5
 357 731.0078125 l 1
 357 201 l 2
 357 74.4647758463 297.5 -10 154 -10 c 0
 68.8764291159 -10 10 10 10 10 c 1
 24 114 l 1
 24 114 67.3388671875 99 128 99 c 0
EndSplineSet
Validated: 1
EndChar

StartChar: K
Encoding: 75 75 21
Width: 669
Flags: W
HStem: 0 21G<65 194 458.514 649> 711.008 20G<65 194 456.819 639>
VStem: 65 129<0 311 401 731.008> 175 19<311 401>
AnchorPoint: "Anchor-2" 335 0 basechar 0
AnchorPoint: "Anchor-0" 329 731 basechar 0
LayerCount: 2
Fore
SplineSet
478 0 m 1xd0
 175 311 l 5
 175 401 l 5
 475 731.0078125 l 1
 639 731.0078125 l 1
 295 372 l 5
 649 0 l 1
 478 0 l 1xd0
65 0 m 5xe0
 65 731.0078125 l 5
 194 731.0078125 l 5
 194 0 l 5
 65 0 l 5xe0
EndSplineSet
Validated: 5
EndChar

StartChar: S
Encoding: 83 83 22
Width: 591
Flags: W
HStem: -10 112.462<141.583 378.994> 625.659 113.462<229.098 446.595>
VStem: 59.627 129.312<475.497 588.588> 423.338 123.182<140.32 257.325>
AnchorPoint: "Anchor-2" 292 0.0117188 basechar 0
AnchorPoint: "Anchor-0" 303 731 basechar 0
LayerCount: 2
Fore
SplineSet
283.3828125 308.140625 m 4
 111.996724619 353.44886757 59.626953125 417.983837751 59.626953125 523 c 4
 59.626953125 654.465462115 157.857040301 739.12109375 319.233398438 739.12109375 c 4
 460.193031718 739.12109375 528.745117188 688.891601562 528.745117188 688.891601562 c 5
 486.37109375 583.138671875 l 5
 486.37109375 583.138671875 427.970329923 625.659179688 336.36328125 625.659179688 c 4
 234.669452999 625.659179688 188.938476562 593.573583222 188.938476562 533 c 4
 188.938476562 480.562886091 216.560313417 452.221514784 321.997070312 424.081054688 c 4
 486.396226073 380.203871638 546.51953125 314.125262591 546.51953125 204 c 4
 546.51953125 72.114856067 455.05382403 -10 283.8046875 -10 c 4
 136.308930081 -10 42.81640625 42.2294921875 42.81640625 42.2294921875 c 5
 79.97265625 150.982421875 l 5
 79.97265625 150.982421875 161.76232545 102.461914062 266.696289062 102.461914062 c 4
 372.815846464 102.461914062 423.337890625 134.961343803 423.337890625 198 c 4
 423.337890625 253.859035265 400.1559938 277.270046825 283.3828125 308.140625 c 4
EndSplineSet
Validated: 1
EndChar

StartChar: W
Encoding: 87 87 23
Width: 949
Flags: W
HStem: 0 21G<189.103 342.532 600.468 754.062> 711.008 20G<15 145.615 793.673 934>
AnchorPoint: "Anchor-2" 475 0 basechar 0
AnchorPoint: "Anchor-0" 474 731 basechar 0
LayerCount: 2
Fore
SplineSet
194 0 m 1
 15 731.0078125 l 1
 141 731.0078125 l 1
 272.606445312 160.694335938 l 1
 402 671.0078125 l 1
 541 671.0078125 l 1
 674.606445312 160.694335938 l 1
 798 731.0078125 l 1
 934 731.0078125 l 1
 749 0 l 5
 606 0 l 1
 471.5 486.271484375 l 1
 337 0 l 1
 194 0 l 1
EndSplineSet
Validated: 1
EndChar

StartChar: X
Encoding: 88 88 24
Width: 689
Flags: W
HStem: 0 21G<20 189.09 499.91 669> 711.008 20G<30 191.212 497.788 659>
VStem: 324 41<311 401>
AnchorPoint: "Anchor-2" 352 0 basechar 0
AnchorPoint: "Anchor-0" 344 731 basechar 0
LayerCount: 2
Fore
SplineSet
177 0 m 1
 20 0 l 1
 256 372 l 1
 30 731.0078125 l 1
 180 731.0078125 l 1
 365 401 l 1
 365 311 l 1
 177 0 l 1
512 0 m 5
 324 311 l 1
 324 401 l 1
 509 731.0078125 l 5
 659 731.0078125 l 5
 433 372 l 1
 669 0 l 5
 512 0 l 5
EndSplineSet
Validated: 5
EndChar

StartChar: Y
Encoding: 89 89 25
Width: 689
Flags: W
HStem: 0 21G<280 409> 282 59<286 403> 711.008 20G<30 179.764 509.236 659>
VStem: 280 129<0 341>
AnchorPoint: "Anchor-2" 345 0 basechar 0
AnchorPoint: "Anchor-0" 346 731 basechar 0
LayerCount: 2
Fore
SplineSet
286 282 m 1
 30 731.0078125 l 1
 169 731.0078125 l 1
 344.5 404.916015625 l 5
 520 731.0078125 l 1
 659 731.0078125 l 1
 403 282 l 1
 286 282 l 1
280 0 m 1
 280 341 l 1
 409 341 l 1
 409 0 l 1
 280 0 l 1
EndSplineSet
Validated: 5
EndChar

StartChar: Z
Encoding: 90 90 26
Width: 594
Flags: W
HStem: 0 111<200 554> 620 111<50 394>
AnchorPoint: "Anchor-2" 306 0 basechar 0
AnchorPoint: "Anchor-0" 294 731 basechar 0
LayerCount: 2
Fore
SplineSet
554 0 m 5
 40 0 l 1
 40 96 l 1
 394 620 l 5
 50 620 l 1
 50 731 l 1
 544 731 l 5
 544 625 l 5
 200 111 l 1
 554 111 l 5
 554 0 l 5
EndSplineSet
Validated: 1
EndChar

StartChar: ampersand
Encoding: 38 38 27
Width: 754
Flags: W
HStem: -10 109.093<208.605 374.589 548.487 732.956> 636.762 102.23<333.528 488.688>
VStem: 45 120.837<139.177 266.108> 171.551 123.376<436.938 599.818>
LayerCount: 2
Fore
SplineSet
281.267578125 438.821289062 m 1
 311.341796875 360.713867188 l 0
 311.341796875 360.713867188 165.836914062 302.410939632 165.836914062 204 c 0
 165.836914062 137.022498524 212.43354499 99.0927734375 286.900390625 99.0927734375 c 0
 380.332929566 99.0927734375 505.761612021 182.849539389 567.25 451.205078125 c 1
 681.538085938 419.8046875 l 1
 590.225459685 106.417214756 437.350323735 -10 265.928710938 -10 c 0
 126.071042874 -10 45 70.9521484375 45 188.185546875 c 0
 45 371.679192816 281.267578125 438.821289062 281.267578125 438.821289062 c 1
742.451171875 4.5546875 m 1
 742.451171875 4.5546875 713.626708479 -10 636 -10 c 0
 495.277714882 -10 399.391656847 65.1757475783 325 156 c 0
 224.065066849 279.230752415 171.55078125 415.604893974 171.55078125 522 c 0
 171.55078125 663.905888236 256.366089762 738.9921875 397.022460938 738.9921875 c 0
 479.819632214 738.9921875 530.400390625 703.649414062 530.400390625 703.649414062 c 1
 502.5703125 607.848632812 l 1
 502.5703125 607.848632812 457.712192611 636.76171875 404 636.76171875 c 0
 332.190356482 636.76171875 294.926757812 596.655499124 294.926757812 521 c 0
 294.926757812 442.626292686 335.323962987 337.095828041 406.9375 248 c 0
 465.106731262 175.630500573 533.916949703 98.3046875 641.51171875 98.3046875 c 0
 698.829655749 98.3046875 731.62890625 107.5546875 731.62890625 107.5546875 c 1
 742.451171875 4.5546875 l 1
EndSplineSet
Validated: 5
EndChar

StartChar: i
Encoding: 105 105 28
Width: 269
Flags: W
HStem: 0 21G<75 194> 481.011 20G<75 194> 583.551 146.449<80.5263 188.473>
VStem: 61.8867 145.227<602.347 711.203> 75 119<0 501.011>
AnchorPoint: "Anchor-3" 141 0 basechar 0
AnchorPoint: "Anchor-2" 137 0 basechar 0
LayerCount: 2
Fore
SplineSet
75 0 m 1xe8
 75 501.010742188 l 1
 194 501.010742188 l 1
 194 0 l 1
 75 0 l 1xe8
61.88671875 656.775390625 m 0xf0
 61.88671875 701.136042875 90.5086376795 730 134.499023438 730 c 0
 178.490423077 730 207.11328125 701.136042875 207.11328125 656.775390625 c 0
 207.11328125 612.413936932 178.490423077 583.55078125 134.499023438 583.55078125 c 4
 90.5086376795 583.55078125 61.88671875 612.413936932 61.88671875 656.775390625 c 0xf0
EndSplineSet
Validated: 1
EndChar

StartChar: o
Encoding: 111 111 29
Width: 589
Flags: W
HStem: -9.99805 102.462<217.605 371.055> 408.284 102.649<217.628 374.193>
VStem: 45 114.849<155.631 348.391> 429.929 114.849<155.631 348.391>
AnchorPoint: "Anchor-3" 357 28 basechar 0
AnchorPoint: "Anchor-2" 294 0 basechar 0
AnchorPoint: "Anchor-0" 294 501.011 basechar 0
LayerCount: 2
Fore
SplineSet
159.848632812 253.561523438 m 0
 159.848632812 156.958747332 199.992840924 92.4638671875 293.888671875 92.4638671875 c 0
 389.185514518 92.4638671875 429.928710938 156.958747332 429.928710938 253.561523438 c 4
 429.928710938 346.341508373 389.218856641 408.284179688 294 408.284179688 c 0
 200.026183047 408.284179688 159.848632812 346.341508373 159.848632812 253.561523438 c 0
45 253.561523438 m 0
 45 409.296356709 139.174687789 510.93359375 293.888671875 510.93359375 c 0
 449.845894417 510.93359375 544.77734375 409.296356709 544.77734375 253.561523438 c 4
 544.77734375 94.0826581124 449.845894417 -9.998046875 293.888671875 -9.998046875 c 0
 139.174687789 -9.998046875 45 94.0826581124 45 253.561523438 c 0
EndSplineSet
Validated: 1
EndChar

StartChar: n
Encoding: 110 110 30
Width: 595
Flags: W
HStem: 0 21G<65 184 411.777 530.777> 415.284 95.6494<235.653 370.867> 481.011 20G<65 184>
VStem: 65 119<0 501.011> 411.777 119<0 375.362>
AnchorPoint: "Anchor-2" 305 0 basechar 0
AnchorPoint: "Anchor-0" 295 501.011 basechar 0
LayerCount: 2
Fore
SplineSet
184 284 m 13xd8
 129 293.561523438 l 21
 151.951564896 444 206.374743155 510.93359375 342 510.93359375 c 0
 466.666135504 510.93359375 530.77734375 444.084682028 530.77734375 304.561523438 c 2
 530.77734375 0 l 1
 411.77734375 0 l 1
 411.77734375 287.561523438 l 2
 411.77734375 368.469579575 378.154937571 415.284179688 299 415.284179688 c 0
 218.441827718 415.284179688 184 362.725020039 184 284 c 13xd8
65 0 m 1
 65 501.010742188 l 1
 184 501.010742188 l 1xb8
 184 0 l 1
 65 0 l 1
EndSplineSet
EndChar

StartChar: m
Encoding: 109 109 31
Width: 882
Flags: W
HStem: 0 21G<65 184 381.777 500.777 698.555 817.555> 415.284 95.6494<223.735 349.168 540.512 665.946> 481.011 20G<65 184>
VStem: 65 119<0 501.011> 381.777 119<0 372.135> 698.555 119<0 381.983>
CounterMasks: 1 1c
AnchorPoint: "Anchor-2" 445 0 basechar 0
AnchorPoint: "Anchor-0" 454 501.011 basechar 0
LayerCount: 2
Fore
SplineSet
500.77734375 284 m 13xdc
 425.77734375 293.561523438 l 21
 449.267677775 444 504.96839543 510.93359375 643.77734375 510.93359375 c 0
 758.537671728 510.93359375 817.5546875 447.323924219 817.5546875 314.561523438 c 2
 817.5546875 0 l 1
 698.5546875 0 l 1
 698.5546875 297.561523438 l 2
 698.5546875 372.134912061 670.894898468 415.284179688 605.77734375 415.284179688 c 0
 532.224229927 415.284179688 500.77734375 362.725020037 500.77734375 284 c 13xdc
184 284 m 13
 109 293.561523438 l 21
 132.490334025 444 188.19105168 510.93359375 327 510.93359375 c 0
 441.760327978 510.93359375 500.77734375 447.323924219 500.77734375 314.561523438 c 2
 500.77734375 0 l 1
 381.77734375 0 l 1
 381.77734375 297.561523438 l 2
 381.77734375 372.134912061 354.117554718 415.284179688 289 415.284179688 c 0
 215.446886177 415.284179688 184 362.725020039 184 284 c 13
65 0 m 1
 65 501.010742188 l 1
 184 501.010742188 l 1xbc
 184 0 l 1
 65 0 l 1
EndSplineSet
EndChar

StartChar: p
Encoding: 112 112 32
Width: 602
Flags: W
HStem: -9.99805 101.462<237.161 390.314> 410.284 100.649<242.339 391.548> 481.011 20G<65 184>
VStem: 65 119<-180 501.011> 116.151 67.8486<66.4394 183.562> 141.151 42.8486<283.562 425.747> 444.08 114.849<150.71 353.498>
AnchorPoint: "Anchor-2" 136 -179.988 basechar 0
AnchorPoint: "Anchor-0" 294 501.011 basechar 0
LayerCount: 2
Fore
SplineSet
65 -180 m 1xb2
 65 501.010742188 l 1
 184 501.010742188 l 1
 184 -180 l 1
 65 -180 l 1xb2
184 213.561523438 m 1
 184 154.076265388 224.144208111 91.4638671875 318.040039062 91.4638671875 c 0
 406.331823246 91.4638671875 444.080078125 156.359093815 444.080078125 253.561523438 c 4
 444.080078125 347.540815406 406.365165369 410.284179688 318.151367188 410.284179688 c 0
 224.177550234 410.284179688 184 359.551209904 184 283.561523438 c 1xd2
 141.151367188 283.561523438 l 1xc6
 141.151367188 425.746590474 217.465663421 510.93359375 335 510.93359375 c 0
 477.240588621 510.93359375 558.928710938 409.296356709 558.928710938 253.561523438 c 4
 558.928710938 94.0826581124 473.456780901 -9.998046875 333.040039062 -9.998046875 c 0
 198.217870276 -9.998046875 116.151367188 66.4393843716 116.151367188 183.561523438 c 1xca
 184 213.561523438 l 1
EndSplineSet
Validated: 5
EndChar

StartChar: j
Encoding: 106 106 33
Width: 269
Flags: W
HStem: -190 100<-71.4641 55.2538> 481.011 20G<75 194> 583.551 146.449<80.5263 188.473>
VStem: 61.8867 145.227<602.347 711.203> 75 119<-70.5267 501.011>
AnchorPoint: "Anchor-2" 17 -179.988 basechar 0
LayerCount: 2
Fore
SplineSet
75 -6 m 6xe8
 75 501.010742188 l 5
 194 501.010742188 l 5
 194 -9 l 6
 194 -117.943127962 145.051724138 -190 27 -190 c 4
 -38.0249499809 -190 -83 -172 -83 -172 c 5
 -69 -78 l 5
 -69 -78 -42.7466477614 -90 -6 -90 c 4
 51.0282714843 -90 75 -64.6987951807 75 -6 c 6xe8
61.88671875 656.775390625 m 0xf0
 61.88671875 701.136042875 90.5086376795 730 134.499023438 730 c 0
 178.490423077 730 207.11328125 701.136042875 207.11328125 656.775390625 c 0
 207.11328125 612.413936932 178.490423077 583.55078125 134.499023438 583.55078125 c 0
 90.5086376795 583.55078125 61.88671875 612.413936932 61.88671875 656.775390625 c 0xf0
EndSplineSet
Validated: 1
EndChar

StartChar: k
Encoding: 107 107 34
Width: 555
Flags: W
HStem: 0 21G<65 184 365.09 535> 481.011 20G<361.334 525> 731.002 20G<65 184>
VStem: 65 119<0 221 291 751.002> 165 19<221 291>
AnchorPoint: "Anchor-2" 275 0 basechar 0
AnchorPoint: "Anchor-0" 134 749.002 basechar 0
LayerCount: 2
Fore
SplineSet
385 0 m 5xe8
 165 221 l 1
 165 291 l 1
 382 501.010742188 l 5
 525 501.010742188 l 5
 285 265 l 1
 535 0 l 5
 385 0 l 5xe8
65 0 m 1xf0
 65 751.001953125 l 1
 184 751.001953125 l 1
 184 0 l 1
 65 0 l 1xf0
EndSplineSet
Validated: 5
EndChar

StartChar: l
Encoding: 108 108 35
Width: 371
Flags: W
HStem: -10.0088 104<213.085 323.088> 731.002 20G<75 194>
VStem: 75 119<115.425 751.002>
AnchorPoint: "Anchor-2" 240 0 basechar 0
AnchorPoint: "Anchor-0" 134 749.002 basechar 0
LayerCount: 2
Fore
SplineSet
194 191.991210938 m 2
 194 123.509283226 216.491992187 93.9912109375 270 93.9912109375 c 0
 299.747286284 93.9912109375 321 104.991210938 321 104.991210938 c 5
 335 5.9912109375 l 5
 335 5.9912109375 295.749047257 -10.0087890625 239 -10.0087890625 c 0
 123.068965517 -10.0087890625 75 58.0670403212 75 160.991210938 c 2
 75 751.001953125 l 1
 194 751.001953125 l 1
 194 191.991210938 l 2
EndSplineSet
Validated: 1
EndChar

StartChar: h
Encoding: 104 104 36
Width: 595
Flags: W
HStem: 0 21G<65 184 411.777 530.777> 415.284 95.6494<235.653 370.867> 731.002 20G<65 184>
VStem: 65 119<0 751.002> 411.777 119<0 375.362>
AnchorPoint: "Anchor-2" 299 0 basechar 0
AnchorPoint: "Anchor-0" 134 751.004 basechar 0
LayerCount: 2
Fore
SplineSet
65 0 m 1
 65 751.001953125 l 1
 184 751.001953125 l 1
 184 0 l 1
 65 0 l 1
184 284 m 13
 129 293.561523438 l 21
 151.951564896 444 206.374743155 510.93359375 342 510.93359375 c 0
 466.666135504 510.93359375 530.77734375 444.084682028 530.77734375 304.561523438 c 2
 530.77734375 0 l 1
 411.77734375 0 l 1
 411.77734375 287.561523438 l 2
 411.77734375 368.469579575 378.154937571 415.284179688 299 415.284179688 c 0
 218.441827718 415.284179688 184 362.725020039 184 284 c 13
EndSplineSet
EndChar

StartChar: q
Encoding: 113 113 37
Width: 602
Flags: W
HStem: -9.99805 101.462<221.701 375.468> 410.284 100.649<220.478 374.175> 481.011 20G<423 542>
VStem: 48.0713 114.849<155.321 349.01> 423 119<-180 501.011> 423 67.8486<66.4394 183.562 283.562 425.747>
AnchorPoint: "Anchor-2" 477 -179.988 basechar 0
AnchorPoint: "Anchor-0" 308 501.011 basechar 0
LayerCount: 2
Fore
SplineSet
542 -180 m 5xb8
 423 -180 l 5
 423 501.010742188 l 5
 542 501.010742188 l 5
 542 -180 l 5xb8
423 205.561523438 m 5
 490.848632812 183.561523438 l 5xd4
 490.848632812 66.4393843714 408.782129725 -9.998046875 273.959960938 -9.998046875 c 0
 133.543219097 -9.998046875 48.0712890625 94.0826581122 48.0712890625 253.561523438 c 0
 48.0712890625 409.296356709 129.759411379 510.93359375 272 510.93359375 c 0
 401.660740039 510.93359375 485.848632812 425.746590474 485.848632812 283.561523438 c 5
 423 275.561523438 l 5
 423 356.348438038 385.817391307 410.284179688 298.848632812 410.284179688 c 0xd8
 203.629776172 410.284179688 162.919921875 347.540815405 162.919921875 253.561523438 c 0
 162.919921875 156.359093815 203.663118294 91.4638671875 298.959960938 91.4638671875 c 0
 385.850733429 91.4638671875 423 149.973818209 423 205.561523438 c 5
EndSplineSet
Validated: 5
EndChar

StartChar: g
Encoding: 103 103 38
Width: 602
Flags: W
HStem: -190 99<153.518 372.674> 20.002 96.4619<218.824 373.618> 415.284 95.6494<216.811 373.553> 481.011 20G<423 542>
VStem: 48.0713 114.849<173.167 358.118> 423 119<-44.1238 39 223.562 501.011> 423 67.8486<100.388 223.562 293.562 429.493>
AnchorPoint: "Anchor-2" 295 -179.988 basechar 0
AnchorPoint: "Anchor-0" 308 501.011 basechar 0
LayerCount: 2
Fore
SplineSet
423 39 m 2xdc
 423 501.010742188 l 1
 542 501.010742188 l 1
 542 31 l 2
 542 -102.018957346 469.603448277 -190 295 -190 c 0
 166.723507765 -190 78 -146 78 -146 c 5
 102 -47 l 5
 102 -47 174.092538687 -91 275 -91 c 0
 379.199804687 -91 423 -51.8433734941 423 39 c 2xdc
423 235.561523438 m 1
 490.848632812 223.561523438 l 1xea
 490.848632812 100.388423477 417.168811118 20.001953125 273.959960938 20.001953125 c 0
 123.080017397 20.001953125 48.0712890625 115.39477208 48.0712890625 261.561523438 c 0
 48.0712890625 412.455587994 119.291965941 510.93359375 272 510.93359375 c 0
 410.053188097 510.93359375 485.848632812 429.493180948 485.848632812 293.561523438 c 1
 423 285.561523438 l 1
 423 363.350170455 382.008113986 415.284179688 294.848632812 415.284179688 c 0xec
 202.431799555 415.284179688 162.919921875 354.942894305 162.919921875 264.561523438 c 0
 162.919921875 175.754243048 203.663118294 116.463867188 298.959960938 116.463867188 c 0
 385.85073343 116.463867188 423 177.537847696 423 235.561523438 c 1
EndSplineSet
Validated: 5
Substitution2: "'ss14' Style Set 14 lookup 19-1" g.ss14
EndChar

StartChar: f
Encoding: 102 102 39
Width: 398
Flags: W
HStem: 0 21G<115 234> 408 93.0107<24 372> 666.011 95<262.345 390.465>
VStem: 115 119<0 638.384>
AnchorPoint: "Anchor-2" 173 0 basechar 0
AnchorPoint: "Anchor-0" 296 752.002 basechar 0
LayerCount: 2
Fore
SplineSet
24 501.010742188 m 1
 372 501.010742188 l 5
 372 408 l 5
 24 408 l 1
 24 501.010742188 l 1
234 557.010742188 m 2
 234 0 l 1
 115 0 l 1
 115 570.010742188 l 2
 115 684.97265625 166.879159066 761.010742188 292 761.010742188 c 0
 357.024939904 761.010742188 402 745.010742188 402 745.010742188 c 1
 388 655.010742188 l 1
 388 655.010742188 362.996582031 666.010742188 328 666.010742188 c 0
 261.819415118 666.010742188 234 633.178924979 234 557.010742188 c 2
EndSplineSet
Validated: 5
EndChar

StartChar: c
Encoding: 99 99 40
Width: 492
Flags: W
HStem: -9.99805 97.4619<234.565 423.469> 411.284 99.6494<224.524 405.09>
VStem: 45 118.849<157.301 347.808>
AnchorPoint: "Anchor-0" 291 501.011 basechar 0
AnchorPoint: "Anchor-2" 297 0 basechar 0
LayerCount: 2
Fore
SplineSet
45 253.561523438 m 4
 45 409.296356709 131.709999821 510.93359375 294.888671875 510.93359375 c 4
 418.759409801 510.93359375 469.681640625 454.704101562 469.681640625 454.704101562 c 5
 434.35546875 370.951171875 l 5
 434.35546875 370.951171875 393.611445237 411.284179688 311 411.284179688 c 4
 207.919607049 411.284179688 163.848632812 348.140468922 163.848632812 253.561523438 c 4
 163.848632812 153.960479747 211.480194775 87.4638671875 322.888671875 87.4638671875 c 4
 394.885903395 87.4638671875 433.018554688 114.595703125 433.018554688 114.595703125 c 5
 465.827148438 28.595703125 l 5
 465.827148438 28.595703125 405.930581031 -9.998046875 301.888671875 -9.998046875 c 4
 134.354470621 -9.998046875 45 94.0826581129 45 253.561523438 c 4
EndSplineSet
Validated: 1
Substitution2: "'ss12' Style Set 12 lookup 13-1" c.ss12
EndChar

StartChar: t
Encoding: 116 116 41
Width: 412
Flags: W
HStem: -10 98<255.166 367.082> 409 92.0107<24 372>
VStem: 115 119<109.473 651.011>
AnchorPoint: "Anchor-2" 208 0.0117188 basechar 0
AnchorPoint: "Anchor-0" 173 660 basechar 0
LayerCount: 2
Fore
SplineSet
24 501.010742188 m 1
 372 501.010742188 l 1
 372 409 l 1
 24 409 l 1
 24 501.010742188 l 1
234 186 m 2
 234 117.518514554 255.900390625 88 308 88 c 0
 341.246752929 88 365 99 365 99 c 5
 377 6 l 5
 377 6 338.157902644 -10 282 -10 c 0
 146.087170563 -10 115 62.0570343178 115 171 c 2
 115 651.010742188 l 1
 234 671.010742188 l 1
 234 186 l 2
EndSplineSet
Validated: 5
Substitution2: "'ss11' Style Set 11 lookup 12-1" t.ss11
EndChar

StartChar: r
Encoding: 114 114 42
Width: 420
Flags: W
HStem: 0 21G<65 184> 411.284 99.6494<225.727 384.765> 481.011 20G<65 184>
VStem: 65 119<0 501.011>
AnchorPoint: "Anchor-2" 172 0.0117188 basechar 0
AnchorPoint: "Anchor-0" 235 501.011 basechar 0
LayerCount: 2
Fore
SplineSet
65 0 m 1xb0
 65 501.010742188 l 1
 184 501.010742188 l 1
 184 0 l 1
 65 0 l 1xb0
312 510.93359375 m 0xd0
 384.384528775 510.93359375 405 484.93359375 405 484.93359375 c 5
 379 389.93359375 l 5
 379 389.93359375 346.942900509 411.284179688 298 411.284179688 c 0
 226.36508893 411.284179688 184 368.196533826 184 284 c 1
 129 293.561523438 l 1
 148.622288602 444 195.151024888 510.93359375 312 510.93359375 c 0xd0
EndSplineSet
Validated: 5
EndChar

StartChar: e
Encoding: 101 101 43
Width: 551
Flags: W
HStem: -9.99805 95.4619<230.953 453.887> 205 86<134 401> 413.284 97.6494<213.906 355.839>
VStem: 134 28.8486<205 291>
AnchorPoint: "Anchor-3" 409 14 basechar 0
AnchorPoint: "Anchor-2" 302 0 basechar 0
AnchorPoint: "Anchor-0" 289 501.011 basechar 0
LayerCount: 2
Fore
SplineSet
45 253.561523438 m 4
 45 409.296356709 136.904403159 510.93359375 287.888671875 510.93359375 c 4
 461.918020077 510.93359375 516.465820312 373.273945545 516.465820312 274.7109375 c 4
 516.465820312 231.674278598 512 205 512 205 c 5
 134 205 l 5
 134 291 l 5
 401 291 l 5
 401 291 400.636216703 297.44294541 399 309 c 4
 391.356334232 362.98934163 364.127840024 413.284179688 282 413.284179688 c 4
 198.533770736 413.284179688 162.848632812 348.539082989 162.848632812 251.561523438 c 4
 162.848632812 143.02347329 210.252938538 85.4638671875 331 85.4638671875 c 4
 418.280830889 85.4638671875 468.018554688 113.595703125 468.018554688 113.595703125 c 5
 486.827148438 18.595703125 l 5
 486.827148438 18.595703125 427.295941065 -9.998046875 323.888671875 -9.998046875 c 4
 131.218419161 -9.998046875 45 94.0826581129 45 253.561523438 c 4
EndSplineSet
Validated: 5
Substitution2: "'ss03' Style Set 3 lookup 4-1" e.ss03
EndChar

StartChar: d
Encoding: 100 100 44
Width: 602
Flags: W
HStem: -9.99805 100.649<218.426 358.919> 0 21G<423 542> 409.472 101.462<219.617 363.901> 731.002 20G<423 542>
VStem: 48.0713 114.849<147.438 350.225> 423 119<217.374 751.002> 423 42.8486<75.1885 217.374 317.374 434.496>
AnchorPoint: "Anchor-2" 316 0 basechar 0
AnchorPoint: "Anchor-0" 473 750.002 basechar 0
LayerCount: 2
Fore
SplineSet
542 0 m 1x7c
 423 0 l 1x7a
 423 751.001953125 l 1
 542 751.001953125 l 1
 542 0 l 1x7c
423 295.374023438 m 5xbc
 423 350.962047701 384.353783331 409.471679688 293.959960938 409.471679688 c 4
 202.166163165 409.471679688 162.919921875 344.576819365 162.919921875 247.374023438 c 4
 162.919921875 153.394999207 202.131785908 90.6513671875 293.848632812 90.6513671875 c 4
 384.319292119 90.6513671875 423 144.587397121 423 225.374023438 c 5xbc
 465.848632812 217.374023438 l 5xba
 465.848632812 75.1884765623 385.597373325 -9.998046875 262 -9.998046875 c 4
 126.111797653 -9.998046875 48.0712890625 91.6396484371 48.0712890625 247.374023438 c 4
 48.0712890625 406.852539062 129.759172114 510.93359375 263.959960938 510.93359375 c 4
 386.349609375 510.93359375 460.848632812 434.49609375 460.848632812 317.374023438 c 5
 423 295.374023438 l 5xbc
EndSplineSet
Validated: 5
Substitution2: "'ss05' Style Set 5 lookup 6-1" d.ss05
EndChar

StartChar: b
Encoding: 98 98 45
Width: 602
Flags: W
HStem: -9.99805 100.649<238.159 388.574> 0 21G<65 184> 409.472 101.462<242.797 387.383> 731.002 20G<65 184>
VStem: 65 119<197.374 751.002> 141.151 42.8486<55.1885 197.374 297.374 424.496> 444.08 114.849<147.438 350.225>
AnchorPoint: "Anchor-2" 296 0 basechar 0
AnchorPoint: "Anchor-0" 134 749.002 basechar 0
LayerCount: 2
Fore
SplineSet
65 0 m 1x7a
 65 751.001953125 l 1
 184 751.001953125 l 1x7a
 184 0 l 1x76
 65 0 l 1x7a
184 295.374023438 m 1
 136.151367188 297.374023438 l 1
 136.151367188 424.49609375 214.434205241 510.93359375 343.040039062 510.93359375 c 0
 477.240827886 510.93359375 558.928710938 406.852539062 558.928710938 247.374023438 c 4
 558.928710938 91.6396484371 480.888202347 -9.998046875 345 -9.998046875 c 0
 221.402626675 -9.998046875 141.151367188 55.1884765623 141.151367188 197.374023438 c 1xb6
 184 225.374023438 l 1
 184 144.587397121 222.680707881 90.6513671875 313.151367188 90.6513671875 c 0xba
 404.868214092 90.6513671875 444.080078125 153.394999207 444.080078125 247.374023438 c 4
 444.080078125 344.576819365 404.833836835 409.471679688 313.040039062 409.471679688 c 0
 222.646216669 409.471679688 184 350.962047701 184 295.374023438 c 1
EndSplineSet
Validated: 5
EndChar

StartChar: a
Encoding: 97 97 46
Width: 566
Flags: W
HStem: -9.99805 95.4619<172.212 313.324 428.992 538.418> 226.284 83.6494<195.348 367.777> 414.011 97<139.201 313.609>
VStem: 35 121.849<100.398 195.319> 351.929 115<93.9731 226.284 289.011 376.752> 351.929 44.8486<57.3566 160.562> 351.929 15.8486<226.284 309.934>
AnchorPoint: "Anchor-3" 458 0 basechar 0
AnchorPoint: "Anchor-2" 284 0 basechar 0
AnchorPoint: "Anchor-0" 274 501.011 basechar 0
LayerCount: 2
Back
SplineSet
357.928710938 177.561523438 m 5x7c
 407.77734375 180.561523438 l 5x7a
 407.77734375 65.2546726394 343.443566636 -9.998046875 207.888671875 -9.998046875 c 4
 103.525845263 -9.998046875 40 50 40 141 c 4
 40 286.71747631 179.159368499 309.798279039 373.928710938 309.93359375 c 5
 373.77734375 224.284179688 l 5x79
 214.9215174 224.170106541 164.848632812 210.544945242 164.848632812 148.561523438 c 4
 164.848632812 111.324445486 189.419144912 86.4638671875 246.888671875 86.4638671875 c 4
 313.711369303 86.4638671875 357.928710938 123.027306191 357.928710938 177.561523438 c 5x7c
357.928710938 299.010742188 m 6xbc
 357.928710938 377.97408765 325.670027448 412.010742188 248.928710938 412.010742188 c 4
 170.769677734 412.010742188 114.928710938 368.010742188 114.928710938 368.010742188 c 5
 79.9287109375 467.010742188 l 5
 79.9287109375 467.010742188 159.657226562 511.010742188 274.928710938 511.010742188 c 4
 417.721987032 511.010742188 476.928710938 427.01055301 476.928710938 300.010742188 c 6
 476.928710938 118 l 6
 476.928710938 93.251950046 485.36431245 84 507.928710938 84 c 4
 525.694039812 84 536.928710938 91 536.928710938 91 c 5
 545.928710938 13 l 5
 545.928710938 13 520.8653569 -9.998046875 467.928710938 -9.998046875 c 4
 394.082557091 -9.998046875 357.928710938 33 357.928710938 125 c 6
 357.928710938 299.010742188 l 6xbc
EndSplineSet
Fore
SplineSet
351.928710938 177.561523438 m 1xf8
 396.77734375 160.561523438 l 1xf4
 396.77734375 57.3565944282 339.20237546 -9.998046875 217.888671875 -9.998046875 c 0
 104.201556842 -9.998046875 35 50 35 141 c 0
 35 286.71747631 184.181604308 309.798279039 367.928710938 309.93359375 c 1
 367.77734375 226.284179688 l 1xf2
 229.319762459 226.168600081 156.848632812 212.363503714 156.848632812 149.561523438 c 0
 156.848632812 111.125138453 179.921674141 85.4638671875 233.888671875 85.4638671875 c 0
 304.923893776 85.4638671875 351.928710938 122.428671501 351.928710938 177.561523438 c 1xf8
351.928710938 289.010742188 m 2xf8
 351.928710938 376.359575663 318.190271326 414.010742188 237.928710938 414.010742188 c 0
 160.936230468 414.010742188 105.928710938 375.010742188 105.928710938 375.010742188 c 1
 74.9287109375 467.010742188 l 1
 74.9287109375 467.010742188 150.977448918 511.010742188 260.928710938 511.010742188 c 0
 406.549576657 511.010742188 466.928710938 427.01055301 466.928710938 300.010742188 c 2
 466.928710938 126 l 6
 466.928710938 93.9731118242 475.908544805 82 499.928710938 82 c 4
 522.594820191 82 536.928710938 92 536.928710938 92 c 5
 545.928710938 12 l 1
 545.928710938 12 520.8653569 -9.998046875 467.928710938 -9.998046875 c 0
 390.054585063 -9.998046875 351.928710938 33 351.928710938 125 c 2
 351.928710938 289.010742188 l 2xf8
EndSplineSet
Substitution2: "'ss15' Style Set 15 lookup 20-1" a.ss15
Substitution2: "'ss02' Style Set 2 lookup 3-1" a.ss02
EndChar

StartChar: plus
Encoding: 43 43 47
Width: 450
Flags: W
HStem: 310 96<30 420>
VStem: 177 96<163 553>
LayerCount: 2
Fore
SplineSet
273 553 m 5
 273 163 l 5
 177 163 l 1
 177 553 l 1
 273 553 l 5
420 310 m 1
 30 310 l 1
 30 406 l 1
 420 406 l 1
 420 310 l 1
EndSplineSet
Validated: 5
EndChar

StartChar: s
Encoding: 115 115 48
Width: 476
Flags: W
HStem: -9.99805 92.9795<99.025 302.239> 415.904 95.0293<182.808 378.685>
VStem: 49.2041 116.058<322.093 398.115> 317.521 114.169<100.74 177.76>
AnchorPoint: "Anchor-2" 235 0.0117188 basechar 0
AnchorPoint: "Anchor-0" 257 501.011 basechar 0
LayerCount: 2
Fore
SplineSet
211.846679688 206.568359375 m 0
 83.9763484771 234.426456031 49.2041015625 281.158272312 49.2041015625 355 c 0
 49.2041015625 452.135972615 127.458532382 510.93359375 256.017578125 510.93359375 c 0
 365.224503667 510.93359375 418.334960938 473.225585938 418.334960938 473.225585938 c 1
 393.294921875 387.444335938 l 1
 393.294921875 387.444335938 342.545832388 415.904296875 267.743164062 415.904296875 c 0
 197.05281141 415.904296875 165.26171875 393.939332365 165.26171875 358.518554688 c 0
 165.26171875 329.911376365 186.324745371 312.619023356 257.037109375 296.086914062 c 4
 382.893972632 266.662365074 431.689453125 221.143308275 431.689453125 143.40234375 c 0
 431.689453125 48.8634365132 360.723215441 -9.998046875 227.856445312 -9.998046875 c 0
 114.104164206 -9.998046875 42 26.5625 42 26.5625 c 1
 65.314453125 118.861328125 l 1
 65.314453125 118.861328125 132.554998645 82.9814453125 214.993164062 82.9814453125 c 0
 284.451937239 82.9814453125 317.520507812 101.811891307 317.520507812 138.336914062 c 0
 317.520507812 169.612044724 300.093029163 187.342825899 211.846679688 206.568359375 c 0
EndSplineSet
Validated: 1
EndChar

StartChar: y
Encoding: 121 121 49
Width: 539
Flags: W
HStem: 481.011 20G<15 147.197 392.536 524>
AnchorPoint: "Anchor-2" 192 -179.994 basechar 0
AnchorPoint: "Anchor-0" 277 501.011 basechar 0
LayerCount: 2
Fore
SplineSet
211 36 m 5
 15 501.010742188 l 5
 139 501.010742188 l 5
 275.606445312 167.694335938 l 5
 400 501.010742188 l 5
 524 501.010742188 l 5
 256 -179.994140625 l 5
 126 -179.994140625 l 5
 211 36 l 5
EndSplineSet
Validated: 1
Substitution2: "'ss04' Style Set 4 lookup 5-1" y.ss04
EndChar

StartChar: u
Encoding: 117 117 50
Width: 595
Flags: W
HStem: -9.92285 95.6494<224.91 360.124> 0 21G<411.777 530.777> 481.011 20G<65 184 411.777 530.777>
VStem: 65 119<125.649 501.011> 411.777 119<207.449 501.011>
AnchorPoint: "Anchor-3" 464 0 basechar 0
AnchorPoint: "Anchor-2" 312 0.0117188 basechar 0
AnchorPoint: "Anchor-0" 302 501.011 basechar 0
LayerCount: 2
Fore
SplineSet
411.77734375 217.010742188 m 13xb8
 466.77734375 207.44921875 l 21
 443.825778854 57.0107421877 389.402600595 -9.9228515625 253.77734375 -9.9228515625 c 4
 129.111208246 -9.9228515625 65 56.9260601597 65 196.44921875 c 6
 65 501.010742188 l 5
 184 501.010742188 l 5
 184 213.44921875 l 6
 184 132.541162612 217.622406179 85.7265625 296.77734375 85.7265625 c 4
 377.335516032 85.7265625 411.77734375 138.285722149 411.77734375 217.010742188 c 13xb8
530.77734375 501.010742188 m 1
 530.77734375 0 l 1
 411.77734375 0 l 1x78
 411.77734375 501.010742188 l 1
 530.77734375 501.010742188 l 1
EndSplineSet
Substitution2: "'ss05' Style Set 5 lookup 6-1" u.ss05
EndChar

StartChar: backslash
Encoding: 92 92 51
Width: 434
Flags: W
LayerCount: 2
Fore
SplineSet
300 -171.469726562 m 5
 25 761.403320312 l 5
 134 761.403320312 l 1
 409 -171.469726562 l 1
 300 -171.469726562 l 5
EndSplineSet
Validated: 1
EndChar

StartChar: equal
Encoding: 61 61 52
Width: 450
Flags: W
HStem: 230 86<30 420> 400 86<30 420>
LayerCount: 2
Back
SplineSet
420 285 m 5xea
 30 285 l 5
 30 431 l 5
 420 431 l 5
 420 285 l 5xea
EndSplineSet
Fore
SplineSet
420 230 m 1
 30 230 l 1
 30 316 l 1
 420 316 l 1
 420 230 l 1
420 400 m 1
 30 400 l 1
 30 486 l 5
 420 486 l 5
 420 400 l 1
EndSplineSet
Validated: 1
EndChar

StartChar: v
Encoding: 118 118 53
Width: 539
Flags: W
HStem: 0 21G<197.415 351.185> 481.011 20G<15 146.079 393.353 524>
AnchorPoint: "Anchor-2" 273 0.0117188 basechar 0
AnchorPoint: "Anchor-0" 272 501.011 basechar 0
LayerCount: 2
Fore
SplineSet
205 0 m 1
 15 501.010742188 l 1
 139 501.010742188 l 1
 273.606445312 120.694335938 l 5
 400 501.010742188 l 1
 524 501.010742188 l 1
 344 0 l 1
 205 0 l 1
EndSplineSet
Validated: 1
EndChar

StartChar: w
Encoding: 119 119 54
Width: 735
Flags: W
HStem: 0 21G<142.691 283.527 450.534 591.349> 481.011 20G<15 134.703 600.297 720>
AnchorPoint: "Anchor-2" 370 0 basechar 0
AnchorPoint: "Anchor-0" 368 501.011 basechar 0
LayerCount: 2
Fore
SplineSet
148 0 m 1
 15 501.010742188 l 1
 130 501.010742188 l 1
 216.606445312 132.694335938 l 5
 299 451.010742188 l 1
 436 451.010742188 l 1
 518.393554688 132.694335938 l 5
 605 501.010742188 l 1
 720 501.010742188 l 1
 586 0 l 1
 456 0 l 1
 367.5 323.841796875 l 1
 278 0 l 1
 148 0 l 1
EndSplineSet
Validated: 1
EndChar

StartChar: x
Encoding: 120 120 55
Width: 528
Flags: W
HStem: 0 21G<15 166.333 361.667 513> 481.011 20G<25 168.476 359.524 503>
VStem: 241 46<201 291>
AnchorPoint: "Anchor-2" 267 0 basechar 0
AnchorPoint: "Anchor-0" 266 501.011 basechar 0
LayerCount: 2
Fore
SplineSet
153 0 m 1
 15 0 l 1
 195 252 l 1
 25 501.010742188 l 1
 156 501.010742188 l 1
 287 291 l 1
 287 201 l 1
 153 0 l 1
375 0 m 5
 241 201 l 1
 241 291 l 1
 372 501.010742188 l 5
 503 501.010742188 l 5
 333 252 l 1
 513 0 l 5
 375 0 l 5
EndSplineSet
Validated: 5
EndChar

StartChar: z
Encoding: 122 122 56
Width: 478
Flags: W
HStem: 0 100<178 438> 401.011 100<50 290>
AnchorPoint: "Anchor-2" 246 0 basechar 0
AnchorPoint: "Anchor-0" 240 501.011 basechar 0
LayerCount: 2
Fore
SplineSet
438 0 m 5
 40 0 l 1
 40 96 l 1
 290 401.010742188 l 5
 50 401.010742188 l 1
 50 501.010742188 l 1
 428 501.010742188 l 5
 428 405.010742188 l 5
 178 100 l 1
 438 100 l 5
 438 0 l 5
EndSplineSet
Validated: 1
EndChar

StartChar: period
Encoding: 46 46 57
Width: 245
Flags: W
HStem: -10 146.449<68.6397 176.586>
VStem: 50 145.227<8.79685 117.652>
LayerCount: 2
Fore
SplineSet
50 63.224609375 m 0
 50 107.584937143 78.6222720917 136.44921875 122.612304688 136.44921875 c 0
 166.603358478 136.44921875 195.2265625 107.584937143 195.2265625 63.224609375 c 0
 195.2265625 18.8635145521 166.603358478 -10 122.612304688 -10 c 0
 78.6222720919 -10 50 18.8635145521 50 63.224609375 c 0
EndSplineSet
Validated: 1
EndChar

StartChar: two
Encoding: 50 50 58
Width: 608
Flags: W
HStem: 0 109<184.813 568.549> 625.599 113.394<174.141 384.309>
VStem: 434.676 126.086<455.415 582.656>
LayerCount: 2
Fore
SplineSet
434.67578125 516 m 0
 434.67578125 579.752695284 396.203075488 625.598632812 283.328125 625.598632812 c 0
 184.387616859 625.598632812 113.538085938 571.754882812 113.538085938 571.754882812 c 5
 70.322265625 675.796875 l 5
 70.322265625 675.796875 158.440494087 738.9921875 286.69140625 738.9921875 c 0
 457.592134589 738.9921875 560.76171875 662.295898438 560.76171875 510.93359375 c 0
 560.76171875 383.273310346 468.049989147 327.470381619 349.374023438 263.0234375 c 0
 197.623937935 180.615603513 186.942875691 138 184.813476562 109 c 1
 568.548828125 109 l 1
 568.548828125 0 l 1
 48 0 l 1
 48 54 l 2
 48 205.194255849 144.282480206 290.844271256 314.821289062 377.876953125 c 0
 386.757653341 414.588917686 434.67578125 459.247773998 434.67578125 516 c 0
EndSplineSet
Validated: 1
Substitution2: "'onum' Oldstyle Figures lookup 18-1" two.osf
Substitution2: "'tnum' Tabular Numbers lookup 17-1" two.tf
Substitution2: "'numr' Numerators lookup 0 subtable" two.numr
Substitution2: "'dnom' Denominators lookup 0 subtable" two.dnom
Substitution2: "'sups' Superscript lookup 0 subtable" two.superior
Substitution2: "'sinf' Scientific Inferiors lookup 0 subtable" two.inferior
Substitution2: "'sups' Superscript lookup 0 subtable" two.superior
EndChar

StartChar: three
Encoding: 51 51 59
Width: 579
Flags: W
HStem: -9.99805 107.938<114.775 352.123> 321 103.481<164.139 359.298> 626.599 112.394<122.124 347.06>
VStem: 392.984 126.086<456.678 587.038> 403.827 131.084<144.282 277.848>
LayerCount: 2
Fore
SplineSet
265.138671875 424.481445312 m 2xe8
 361.558664586 424.481445312 392.984375 457.789628973 392.984375 524.05859375 c 0
 392.984375 582.34838985 358.078828097 626.598632812 244.63671875 626.598632812 c 0
 135.36117913 626.598632812 68.8466796875 578.754882812 68.8466796875 578.754882812 c 5
 34.630859375 684.796875 l 1
 34.630859375 684.796875 114.153906693 738.9921875 252 738.9921875 c 0
 417.350759986 738.9921875 519.0703125 667.857421875 519.0703125 532.868164062 c 0xf0
 519.0703125 412 410.163085938 375.697265625 410.163085938 375.697265625 c 1
 410.163085938 375.697265625 534.911132812 341 534.911132812 205.670898438 c 0
 534.911132812 51.6816406249 421.016355364 -9.998046875 250 -9.998046875 c 0
 102.934570312 -9.998046875 15.451171875 40.9091796875 15.451171875 40.9091796875 c 1
 48.7744140625 150.262695312 l 1
 48.7744140625 150.262695312 123.222647806 97.939453125 240 97.939453125 c 0
 353.329053626 97.939453125 403.827148438 137.562467751 403.827148438 209 c 0
 403.827148438 284.155574022 356.139008179 320.483366945 265.138671875 320.737304688 c 2
 164 321 l 1
 164.138671875 424.481445312 l 1
 265.138671875 424.481445312 l 2xe8
EndSplineSet
Validated: 1
Substitution2: "'onum' Oldstyle Figures lookup 18-1" three.osf
Substitution2: "'tnum' Tabular Numbers lookup 17-1" three.tf
Substitution2: "'numr' Numerators lookup 0 subtable" three.numr
Substitution2: "'dnom' Denominators lookup 0 subtable" three.dnom
Substitution2: "'sups' Superscript lookup 0 subtable" three.superior
Substitution2: "'sinf' Scientific Inferiors lookup 0 subtable" three.inferior
Substitution2: "'sups' Superscript lookup 0 subtable" three.superior
EndChar

StartChar: comma
Encoding: 44 44 61
Width: 252
Flags: W
HStem: -116 252.449
VStem: 50 152.227<12.1123 114.015>
LayerCount: 2
Fore
SplineSet
50 63.224609375 m 0
 50 107.584937143 78.6222720917 136.44921875 122.612304688 136.44921875 c 0
 170.844087308 136.44921875 202.2265625 105.68351681 202.2265625 50 c 0
 202.2265625 -42.9591542887 108 -116 108 -116 c 5
 62 -73 l 5
 62 -73 102.741529914 -41.2623627301 120.948242188 -9.44921875 c 1
 77.608037584 -5.70562162147 50 22.0841971272 50 63.224609375 c 0
EndSplineSet
Validated: 1
EndChar

StartChar: zero
Encoding: 48 48 63
Width: 683
Flags: W
HStem: -9.99805 109.462<262.296 421.482> 629.659 109.462<262.296 421.482>
VStem: 45 122.849<217.594 511.529> 515.929 122.849<217.594 511.529>
LayerCount: 2
Fore
SplineSet
167.848632812 364.561523438 m 0
 167.848632812 205.594781591 219.972607087 99.4638671875 341.888671875 99.4638671875 c 0
 463.804736663 99.4638671875 515.928710938 205.594781591 515.928710938 364.561523438 c 4
 515.928710938 523.52826528 463.804736663 629.659179688 341.888671875 629.659179688 c 0
 219.972607087 629.659179688 167.848632812 523.52826528 167.848632812 364.561523438 c 0
45 364.561523438 m 0
 45 591.206054688 147.662815906 739.12109375 341.888671875 739.12109375 c 0
 536.114527844 739.12109375 638.77734375 591.206054688 638.77734375 364.561523438 c 4
 638.77734375 137.916992188 536.114527844 -9.998046875 341.888671875 -9.998046875 c 0
 147.662815906 -9.998046875 45 137.916992188 45 364.561523438 c 0
EndSplineSet
Validated: 1
Substitution2: "'onum' Oldstyle Figures lookup 18-1" zero.osf
Substitution2: "'tnum' Tabular Numbers lookup 17-1" zero.tf
Substitution2: "'numr' Numerators lookup 0 subtable" zero.numr
Substitution2: "'dnom' Denominators lookup 0 subtable" zero.dnom
Substitution2: "'sups' Superscript lookup 0 subtable" zero.superior
Substitution2: "'sinf' Scientific Inferiors lookup 0 subtable" zero.inferior
Substitution2: "'sups' Superscript lookup 0 subtable" zero.superior
EndChar

StartChar: one
Encoding: 49 49 64
Width: 415
Flags: W
HStem: 0 21G<221 350> 711 20G<202.553 350>
VStem: 221 129<0 598>
LayerCount: 2
Fore
SplineSet
350 731 m 1
 350 0 l 1
 221 0 l 1
 221 598 l 1
 68 513 l 5
 20 608 l 5
 238 731 l 1
 350 731 l 1
EndSplineSet
Validated: 1
Substitution2: "'onum' Oldstyle Figures lookup 18-1" one.osf
Substitution2: "'tnum' Tabular Numbers lookup 17-1" one.tf
Substitution2: "'numr' Numerators lookup 0 subtable" one.numr
Substitution2: "'dnom' Denominators lookup 0 subtable" one.dnom
Substitution2: "'sups' Superscript lookup 0 subtable" one.superior
Substitution2: "'sinf' Scientific Inferiors lookup 0 subtable" one.inferior
Substitution2: "'sups' Superscript lookup 0 subtable" one.superior
EndChar

StartChar: four
Encoding: 52 52 65
Width: 660
Flags: W
HStem: 0 21G<395 518> 177 106<185 620> 711 20G<381.508 518>
VStem: 395 123<0 551>
LayerCount: 2
Fore
SplineSet
518 731 m 1
 518 0 l 1
 395 0 l 1
 395 551 l 1
 185 283 l 1
 620 283 l 1
 620 177 l 1
 66 177 l 5
 43 274 l 1
 397 731 l 1
 518 731 l 1
EndSplineSet
Substitution2: "'onum' Oldstyle Figures lookup 18-1" four.osf
Substitution2: "'tnum' Tabular Numbers lookup 17-1" four.tf
Substitution2: "'numr' Numerators lookup 0 subtable" four.numr
Substitution2: "'dnom' Denominators lookup 0 subtable" four.dnom
Substitution2: "'sups' Superscript lookup 0 subtable" four.superior
Substitution2: "'sinf' Scientific Inferiors lookup 0 subtable" four.inferior
Substitution2: "'sups' Superscript lookup 0 subtable" four.superior
EndChar

StartChar: exclam
Encoding: 33 33 66
Width: 274
Flags: W
HStem: -10 146.449<83.0264 190.973> 711.008 20G<77 201>
VStem: 64.3867 145.227<8.79685 117.652> 77 124<503.067 731.008> 93 92<210 437.941>
LayerCount: 2
Fore
SplineSet
93 210 m 5xc8
 77 731.0078125 l 1
 201 731.0078125 l 1xd0
 185 210 l 5
 93 210 l 5xc8
64.38671875 63.224609375 m 0xe0
 64.38671875 107.584937143 93.0089908417 136.44921875 136.999023438 136.44921875 c 0
 180.990077228 136.44921875 209.61328125 107.584937143 209.61328125 63.224609375 c 0
 209.61328125 18.8635145521 180.990077228 -10 136.999023438 -10 c 0
 93.0089908419 -10 64.38671875 18.8635145521 64.38671875 63.224609375 c 0xe0
EndSplineSet
Validated: 1
EndChar

StartChar: five
Encoding: 53 53 67
Width: 594
Flags: W
HStem: -9.99805 113.893<124.056 357.905> 375.936 105.435<207.424 374.397> 620.841 110.167<197.805 504.672>
VStem: 422.845 126.982<163.365 325.546>
LayerCount: 2
Fore
SplineSet
267 -9.998046875 m 0
 115.545471394 -9.998046875 25.451171875 40.9091796875 25.451171875 40.9091796875 c 1
 57.7744140625 154.262695312 l 1
 57.7744140625 154.262695312 142.770332227 103.89453125 252 103.89453125 c 0
 375.415218994 103.89453125 422.844726562 157.99677167 422.844726562 245.576171875 c 0
 422.844726562 327.221982622 379.149412484 375.935546875 291 375.935546875 c 0
 197.279983466 375.935546875 165 312 165 312 c 1
 61.947265625 341.728515625 l 1
 98 731.0078125 l 1
 504.671875 731.0078125 l 5
 504.671875 620.840820312 l 5
 197.8046875 620.840820312 l 1
 180.470703125 446.322265625 l 1
 180.470703125 446.322265625 212.300625177 481.370117188 314.815429688 481.370117188 c 0
 466.779306221 481.370117188 549.827148438 393.709340257 549.827148438 247.497070312 c 0
 549.827148438 87.8982609935 454.568720588 -9.998046875 267 -9.998046875 c 0
EndSplineSet
Validated: 1
Substitution2: "'onum' Oldstyle Figures lookup 18-1" five.osf
Substitution2: "'tnum' Tabular Numbers lookup 17-1" five.tf
Substitution2: "'numr' Numerators lookup 0 subtable" five.numr
Substitution2: "'dnom' Denominators lookup 0 subtable" five.dnom
Substitution2: "'sups' Superscript lookup 0 subtable" five.superior
Substitution2: "'sinf' Scientific Inferiors lookup 0 subtable" five.inferior
Substitution2: "'sups' Superscript lookup 0 subtable" five.superior
EndChar

StartChar: six
Encoding: 54 54 68
Width: 640
Flags: W
HStem: -9.99805 107.889<243.158 418.386> 375.891 100.709<241.314 419.309> 628.52 110.473<266.9 485.472>
VStem: 45 138.398<186.726 445.19> 478.398 116.767<155.757 318.917>
LayerCount: 2
Back
SplineSet
188.3984375 236.890625 m 4
 188.3984375 160.019065367 229.88147703 103.890625 330.3984375 103.890625 c 4
 431.623435844 103.890625 473.3984375 160.019065367 473.3984375 236.890625 c 4
 473.3984375 314.340166284 431.623435844 370.890625 330.3984375 370.890625 c 4
 229.88147703 370.890625 188.3984375 314.340166284 188.3984375 236.890625 c 4
173.303710938 405.747070312 m 5
 173.303710938 405.747070312 214.094697864 475.599609375 341.263671875 475.599609375 c 4
 515.711185917 475.599609375 595.165039062 379.238029036 595.165039062 239 c 4
 595.165039062 79.095703125 494.937095781 -9.998046875 331.297851562 -9.998046875 c 4
 151.540405276 -9.998046875 45 99.6728515624 45 365.331054688 c 4
 45 605.528320312 159.046377502 738.9921875 364.297851562 738.9921875 c 4
 505.428880973 738.9921875 576.923828125 678.860351562 576.923828125 678.860351562 c 5
 532.619140625 573.388671875 l 5
 532.619140625 573.388671875 473.487673927 622.51953125 364.778320312 622.51953125 c 4
 242.266224145 622.51953125 180.301516454 546.295339891 173.303710938 405.747070312 c 5
EndSplineSet
Fore
SplineSet
183.3984375 236.890625 m 4
 183.3984375 156.551175459 226.342147436 97.890625 330.3984375 97.890625 c 4
 435.162771451 97.890625 478.3984375 156.551175459 478.3984375 236.890625 c 4
 478.3984375 317.230074541 435.162771451 375.890625 330.3984375 375.890625 c 4
 226.342147436 375.890625 183.3984375 317.230074541 183.3984375 236.890625 c 4
163.303710938 409.747070312 m 5
 163.303710938 409.747070312 207.251895729 476.599609375 344.263671875 476.599609375 c 4
 497.848926581 476.599609375 595.165039062 379.830752031 595.165039062 239 c 4
 595.165039062 79.095703125 494.937095781 -9.998046875 331.297851562 -9.998046875 c 4
 151.540405275 -9.998046875 45 99.6728515624 45 365.331054688 c 4
 45 605.528320312 155.474590941 738.9921875 354.297851562 738.9921875 c 4
 502.06640625 738.9921875 576.923828125 678.860351562 576.923828125 678.860351562 c 5
 539.619140625 579.388671875 l 5
 539.619140625 579.388671875 477.669219318 628.51953125 363.778320312 628.51953125 c 4
 235.50771199 628.51953125 170.630438652 551.592075362 163.303710938 409.747070312 c 5
EndSplineSet
Validated: 1
Substitution2: "'onum' Oldstyle Figures lookup 18-1" six.osf
Substitution2: "'tnum' Tabular Numbers lookup 17-1" six.tf
Substitution2: "'numr' Numerators lookup 0 subtable" six.numr
Substitution2: "'dnom' Denominators lookup 0 subtable" six.dnom
Substitution2: "'ss07' Style Set 7 lookup 8-1" six.ss07
Substitution2: "'sups' Superscript lookup 0 subtable" six.superior
Substitution2: "'sinf' Scientific Inferiors lookup 0 subtable" six.inferior
Substitution2: "'sups' Superscript lookup 0 subtable" six.superior
EndChar

StartChar: parenright
Encoding: 41 41 69
Width: 402
Flags: W
HStem: -171.47 102.525<40 130.189> 656.944 102.525<40 130.189>
VStem: 245.448 116.679<86.504 501.496>
LayerCount: 2
Fore
SplineSet
40 -68.9443359375 m 5
 177.689325197 -68.9443359375 245.448242188 31.613895057 245.448242188 294 c 0
 245.448242188 556.386104942 177.689325197 656.944335938 40 656.944335938 c 5
 40 759.469726562 l 5
 249.469252186 759.469726562 362.126953125 611.823242188 362.126953125 294 c 0
 362.126953125 -23.8232421878 249.469252186 -171.469726562 40 -171.469726562 c 5
 40 -68.9443359375 l 5
EndSplineSet
Validated: 1
EndChar

StartChar: seven
Encoding: 55 55 70
Width: 604
Flags: W
HStem: 0 21G<179 310.745> 621 110<50 418>
VStem: 179 130<0 154.813>
LayerCount: 2
Fore
SplineSet
309 0 m 1
 179 0 l 1
 191.159712969 341.815384615 418 621 418 621 c 5
 50 621 l 1
 50 731 l 1
 554 731 l 5
 554 625 l 5
 554 625 312.489878033 356 309 0 c 1
EndSplineSet
Validated: 1
Substitution2: "'onum' Oldstyle Figures lookup 18-1" seven.osf
Substitution2: "'tnum' Tabular Numbers lookup 17-1" seven.tf
Substitution2: "'numr' Numerators lookup 0 subtable" seven.numr
Substitution2: "'dnom' Denominators lookup 0 subtable" seven.dnom
Substitution2: "'sups' Superscript lookup 0 subtable" seven.superior
Substitution2: "'sinf' Scientific Inferiors lookup 0 subtable" seven.inferior
Substitution2: "'sups' Superscript lookup 0 subtable" seven.superior
EndChar

StartChar: eight
Encoding: 56 56 71
Width: 647
Flags: W
HStem: -9.99805 102.764<222.542 424.458> 332.397 96.6641<245.419 404.666> 359.573 48.2568<165.194 485.06> 634.998 103.887<238.807 410.736>
VStem: 45 121.768<144.127 280.18> 80.2598 116.688<469.191 593.494> 455.052 116.688<471.398 593.494> 480.232 121.768<144.127 280.18>
LayerCount: 2
Fore
SplineSet
323.5 429.061523438 m 0xd6
 404.66590006 429.061523438 455.051757812 468.784993511 455.051757812 531.869140625 c 4
 455.051757812 596.710988601 406.638120107 634.998046875 323.5 634.998046875 c 0
 243.522115289 634.998046875 196.948242188 596.710988601 196.948242188 531.869140625 c 0
 196.948242188 468.784993511 245.419066863 429.061523438 323.5 429.061523438 c 0xd6
323.5 738.884765625 m 0
 478.227676339 738.884765625 571.740234375 665.090820312 571.740234375 543.655273438 c 4
 571.740234375 424.0703125 485.059951021 359.573242188 323.5 359.573242188 c 0xb6
 165.193966766 359.573242188 80.259765625 424.0703125 80.259765625 543.655273438 c 0
 80.259765625 665.090820312 171.888550849 738.884765625 323.5 738.884765625 c 0
323.5 92.765625 m 0
 424.77570984 92.765625 480.232421875 135.963186853 480.232421875 214.020507812 c 4
 480.232421875 286.418324646 424.797449045 332.397460938 323.5 332.397460938 c 0
 222.202550955 332.397460938 166.767578125 286.418324646 166.767578125 214.020507812 c 0xd9
 166.767578125 135.963186853 222.22429016 92.765625 323.5 92.765625 c 0
323.5 407.830078125 m 0xb9
 503.156704176 407.830078125 602 336.828456774 602 208.381835938 c 4
 602 76.1718749996 492.440888855 -9.998046875 323.5 -9.998046875 c 0
 154.559111145 -9.998046875 45 76.1718749998 45 208.381835938 c 0
 45 336.828456774 143.843295824 407.830078125 323.5 407.830078125 c 0xb9
EndSplineSet
Validated: 5
Substitution2: "'onum' Oldstyle Figures lookup 18-1" eight.osf
Substitution2: "'tnum' Tabular Numbers lookup 17-1" eight.tf
Substitution2: "'numr' Numerators lookup 0 subtable" eight.numr
Substitution2: "'dnom' Denominators lookup 0 subtable" eight.dnom
Substitution2: "'sups' Superscript lookup 0 subtable" eight.superior
Substitution2: "'sinf' Scientific Inferiors lookup 0 subtable" eight.inferior
Substitution2: "'sups' Superscript lookup 0 subtable" eight.superior
EndChar

StartChar: nine
Encoding: 57 57 72
Width: 640
Flags: W
HStem: -9.99805 110.473<154.693 373.265> 252.395 100.709<221.856 401.783> 631.104 107.889<222.779 401.578>
VStem: 45 118.767<410.078 573.237> 458.767 136.398<283.804 542.268>
LayerCount: 2
Fore
SplineSet
458.766601562 492.103515625 m 4
 458.766601562 572.442965166 415.822891627 631.103515625 311.766601562 631.103515625 c 0
 207.002267612 631.103515625 163.766601562 572.442965166 163.766601562 492.103515625 c 0
 163.766601562 411.764066084 207.002267612 353.103515625 311.766601562 353.103515625 c 0
 415.822891627 353.103515625 458.766601562 411.764066084 458.766601562 492.103515625 c 4
476.861328125 319.247070312 m 5
 476.861328125 319.247070312 432.913143332 252.39453125 295.901367188 252.39453125 c 0
 142.316112482 252.39453125 45 349.164169963 45 489.994140625 c 0
 45 649.8984375 145.227943283 738.9921875 308.8671875 738.9921875 c 0
 488.624633787 738.9921875 595.165039062 629.321289062 595.165039062 363.663085938 c 4
 595.165039062 123.465820312 484.690448121 -9.998046875 285.8671875 -9.998046875 c 0
 138.098632812 -9.998046875 63.2412109375 50.1337890625 63.2412109375 50.1337890625 c 1
 100.545898438 149.60546875 l 1
 100.545898438 149.60546875 162.495819745 100.474609375 276.38671875 100.474609375 c 0
 404.657327073 100.474609375 469.534600408 177.402065264 476.861328125 319.247070312 c 5
EndSplineSet
Validated: 1
Substitution2: "'onum' Oldstyle Figures lookup 18-1" nine.osf
Substitution2: "'tnum' Tabular Numbers lookup 17-1" nine.tf
Substitution2: "'numr' Numerators lookup 0 subtable" nine.numr
Substitution2: "'dnom' Denominators lookup 0 subtable" nine.dnom
Substitution2: "'ss07' Style Set 7 lookup 8-1" nine.ss07
Substitution2: "'sups' Superscript lookup 0 subtable" nine.superior
Substitution2: "'sinf' Scientific Inferiors lookup 0 subtable" nine.inferior
Substitution2: "'sups' Superscript lookup 0 subtable" nine.superior
EndChar

StartChar: question
Encoding: 63 63 73
Width: 562
Flags: W
HStem: -10 146.449<171.026 278.973> 299.594 92.4551<212.79 351.042> 628.229 110.764<124.224 339.986>
VStem: 152.387 145.227<8.79685 117.652> 172.423 106.956<210 300.653> 398.096 123.774<434.307 574.19>
LayerCount: 2
Back
SplineSet
152.38671875 63.224609375 m 0xf4
 152.38671875 107.584937143 181.008990842 136.44921875 224.999023438 136.44921875 c 0
 268.990077228 136.44921875 297.61328125 107.584937143 297.61328125 63.224609375 c 0
 297.61328125 18.8635145521 268.990077228 -10 224.999023438 -10 c 0
 181.008990842 -10 152.38671875 18.8635145521 152.38671875 63.224609375 c 0xf4
280.88671875 300.653320312 m 1
 282.37890625 210 l 1
 169.422851562 210 l 1xec
 171.15625 399.46875 l 1
 171.15625 399.46875 208.949224154 395.048828125 256.3984375 395.048828125 c 0
 348.180522211 395.048828125 392.095703125 431.389934102 392.095703125 499.145507812 c 0
 392.095703125 585.201602829 327.571533338 623.228515625 232.89453125 623.228515625 c 0
 138.66274719 623.228515625 76.923828125 573.958007812 76.923828125 573.958007812 c 1
 30.2412109375 685.311523438 l 1
 30.2412109375 685.311523438 107.390463661 738.9921875 239.89453125 738.9921875 c 0
 405.150107971 738.9921875 521.870117188 670 521.870117188 501.010742188 c 0
 521.870117188 365.685958308 421.37343496 300.59375 309 300.59375 c 0
 290.63582236 300.59375 280.88671875 300.653320312 280.88671875 300.653320312 c 1
EndSplineSet
Fore
SplineSet
152.38671875 63.224609375 m 0xf4
 152.38671875 107.584937143 181.008990842 136.44921875 224.999023438 136.44921875 c 0
 268.990077228 136.44921875 297.61328125 107.584937143 297.61328125 63.224609375 c 0
 297.61328125 18.8635145521 268.990077228 -10 224.999023438 -10 c 0
 181.008990842 -10 152.38671875 18.8635145521 152.38671875 63.224609375 c 0xf4
277.88671875 300.653320312 m 1
 279.37890625 210 l 1
 172.422851562 210 l 1xec
 174.15625 396.46875 l 1
 174.15625 396.46875 208.40234435 392.048828125 251.3984375 392.048828125 c 0
 350.620634782 392.048828125 398.095703125 430.833698328 398.095703125 503.145507812 c 0
 398.095703125 589.895139329 332.760934156 628.228515625 236.89453125 628.228515625 c 0
 131.78780671 628.228515625 62.923828125 573.958007812 62.923828125 573.958007812 c 5
 20.2412109375 685.311523438 l 1
 20.2412109375 685.311523438 101.0703125 738.9921875 239.89453125 738.9921875 c 0
 405.150107971 738.9921875 521.870117188 661.327703299 521.870117188 505.010742188 c 0
 521.870117188 366.309877707 412.289419906 299.59375 312 299.59375 c 0
 289.716498079 299.59375 277.88671875 300.653320312 277.88671875 300.653320312 c 1
EndSplineSet
Validated: 1
EndChar

StartChar: hyphen
Encoding: 45 45 74
Width: 354
Flags: W
HStem: 228 103<40 314>
VStem: 40 274<228 331>
LayerCount: 2
Fore
SplineSet
314 228 m 5
 40 228 l 1
 40 331 l 1
 314 331 l 5
 314 228 l 5
EndSplineSet
Validated: 1
EndChar

StartChar: quotesingle
Encoding: 39 39 75
Width: 266
Flags: W
HStem: 456 275.008<96 174>
VStem: 96 78<456 576.316>
LayerCount: 2
Fore
SplineSet
96 456 m 1
 80 731.0078125 l 1
 190 731.0078125 l 1
 174 456 l 1
 96 456 l 1
EndSplineSet
Validated: 1
EndChar

StartChar: parenleft
Encoding: 40 40 77
Width: 402
Flags: W
HStem: -171.47 102.525<271.938 362.127> 656.944 102.525<271.938 362.127>
VStem: 40 116.679<86.504 501.496>
LayerCount: 2
Fore
SplineSet
362.126953125 -68.9443359375 m 5
 362.126953125 -171.469726562 l 5
 152.657700939 -171.469726562 40 -23.8232421878 40 294 c 0
 40 611.823242188 152.657700939 759.469726562 362.126953125 759.469726562 c 5
 362.126953125 656.944335938 l 5
 224.437627928 656.944335938 156.678710938 556.386104942 156.678710938 294 c 0
 156.678710938 31.613895057 224.437627928 -68.9443359375 362.126953125 -68.9443359375 c 5
EndSplineSet
Validated: 1
EndChar

StartChar: asterisk
Encoding: 42 42 78
Width: 400
Flags: W
HStem: 718.992 20G<147.534 252.905>
LayerCount: 2
Fore
SplineSet
252.905273438 738.9921875 m 1
 241.896484375 599.151367188 l 1
 358.440429688 656.549804688 l 1
 395.440429688 564.369140625 l 1
 262.896484375 527.767578125 l 1
 351.905273438 435.006835938 l 1
 267.75390625 366.916992188 l 1
 200.219726562 477.075195312 l 5
 132.685546875 366.916992188 l 1
 48.5341796875 435.006835938 l 1
 137.54296875 527.767578125 l 1
 5 564.369140625 l 1
 42 656.549804688 l 1
 158.54296875 599.151367188 l 1
 147.534179688 738.9921875 l 1
 252.905273438 738.9921875 l 1
EndSplineSet
Validated: 1
Substitution2: "'ss13' Style Set 13 lookup 14-1" asterisk.ss13
EndChar

StartChar: less
Encoding: 60 60 79
Width: 450
Flags: W
LayerCount: 2
Fore
SplineSet
420 155 m 1
 30 305 l 5
 30 411 l 1
 420 561 l 1
 420 460 l 1
 152.454101562 358 l 1
 420 256 l 1
 420 155 l 1
EndSplineSet
Validated: 1
EndChar

StartChar: greater
Encoding: 62 62 80
Width: 450
Flags: W
LayerCount: 2
Fore
SplineSet
30 561 m 1
 420 411 l 1
 420 305 l 5
 30 155 l 1
 30 256 l 1
 287.545898438 358 l 1
 30 460 l 1
 30 561 l 1
EndSplineSet
Validated: 1
EndChar

StartChar: slash
Encoding: 47 47 81
Width: 434
Flags: W
LayerCount: 2
Fore
SplineSet
25 -171.469726562 m 1
 300 761.403320312 l 1
 409 761.403320312 l 5
 134 -171.469726562 l 5
 25 -171.469726562 l 1
EndSplineSet
Validated: 1
EndChar

StartChar: bar
Encoding: 124 124 82
Width: 249
Flags: W
VStem: 70 109<-171.47 759.47>
LayerCount: 2
Fore
SplineSet
70 -171.469726562 m 1
 70 759.469726562 l 1
 179 759.469726562 l 5
 179 -171.469726562 l 5
 70 -171.469726562 l 1
EndSplineSet
Validated: 1
EndChar

StartChar: bracketleft
Encoding: 91 91 83
Width: 375
Flags: W
HStem: -171.47 90<184 325> 670.47 89<184 325>
VStem: 75 250<-171.47 -81.4697 670.47 759.47> 75 109<-81.4697 670.47>
LayerCount: 2
Fore
SplineSet
75 759.469726562 m 1xe0
 325 759.469726562 l 1
 325 670.469726562 l 1xe0
 184 670.469726562 l 1
 184 -81.4697265625 l 5xd0
 325 -81.4697265625 l 5
 325 -171.469726562 l 1
 75 -171.469726562 l 1
 75 759.469726562 l 1xe0
EndSplineSet
Validated: 1
EndChar

StartChar: bracketright
Encoding: 93 93 84
Width: 375
Flags: W
HStem: -171.47 90<50 191> 669.47 90<50 191>
VStem: 50 250<-171.47 -81.4697 669.47 759.47> 191 109<-81.4697 669.47>
LayerCount: 2
Fore
SplineSet
300 -171.469726562 m 5xe0
 50 -171.469726562 l 1
 50 -81.4697265625 l 1xe0
 191 -81.4697265625 l 1
 191 669.469726562 l 1xd0
 50 669.469726562 l 1
 50 759.469726562 l 1
 300 759.469726562 l 5
 300 -171.469726562 l 5xe0
EndSplineSet
Validated: 1
EndChar

StartChar: asciicircum
Encoding: 94 94 85
Width: 449
Flags: W
HStem: 440 291.008
LayerCount: 2
Fore
SplineSet
284 731.0078125 m 1
 434 440 l 1
 327 440 l 1
 225.393554688 649.313476562 l 5
 123 440 l 1
 15 440 l 1
 165 731.0078125 l 1
 284 731.0078125 l 1
EndSplineSet
Validated: 1
EndChar

StartChar: braceleft
Encoding: 123 123 86
Width: 433
Flags: W
HStem: -171.47 87.9961<262.412 376.914> 261.532 106<50 132.222> 671.474 87.9961<262.319 377.004>
VStem: 140 109<-67.4345 254.394 376.566 655.434>
LayerCount: 2
Fore
SplineSet
188 314.532226562 m 1
 188 314.532226562 249 289.532226562 249 209.532226562 c 2
 249 -11.4736328125 l 2
 249 -66.755859375 275.6015625 -83.4736328125 323 -83.4736328125 c 0
 366.443359375 -83.4736328125 376 -78.4736328125 376 -78.4736328125 c 1
 383 -161.469726562 l 1
 383 -161.469726562 346 -171.469726562 286 -171.469726562 c 0
 178.511424731 -171.469726562 140 -121.782421875 140 -37.4697265625 c 2
 140 199.532226562 l 6
 140 246.860351562 121.501953125 261.532226562 85 261.532226562 c 6
 50 261.532226562 l 5
 50 367.532226562 l 1
 85 367.532226562 l 2
 121.501953125 367.532226562 140 382.205078125 140 429.532226562 c 2
 140 625.469726562 l 2
 140 709.780112592 178.511424731 759.469726562 286 759.469726562 c 0
 340.75 759.469726562 383 749.469726562 383 749.469726562 c 1
 376 666.473632812 l 1
 376 666.473632812 359.180664062 671.473632812 322 671.473632812 c 0
 275.2421875 671.473632812 249 654.754882812 249 599.473632812 c 2
 249 419.532226562 l 2
 249 337.53515625 188 314.532226562 188 314.532226562 c 1
EndSplineSet
Validated: 1
EndChar

StartChar: grave
Encoding: 96 96 87
Width: 242
Flags: W
HStem: 536 205.008
VStem: 11 220
LayerCount: 2
Fore
SplineSet
151 536 m 5
 11 711.0078125 l 1
 117 741.0078125 l 1
 231 556 l 5
 151 536 l 5
EndSplineSet
Validated: 1
EndChar

StartChar: underscore
Encoding: 95 95 88
Width: 564
Flags: W
HStem: -91 91<40 524>
LayerCount: 2
Fore
SplineSet
524 -91 m 5
 40 -91 l 5
 40 0 l 1
 524 0 l 1
 524 -91 l 5
EndSplineSet
Validated: 1
EndChar

StartChar: dollar
Encoding: 36 36 89
Width: 591
Flags: W
HStem: -105 174.47<245 344> -10 112.462<141.583 378.994> 625.659 113.462<229.098 446.595> 655 174.47<245 344>
VStem: 59.627 129.312<475.497 588.588> 245 99<-105 69.4697 655 829.47> 423.338 123.182<140.32 257.325>
LayerCount: 2
Fore
SplineSet
245 -105 m 1x8e
 245 69.4697265625 l 1
 344 69.4697265625 l 5
 344 -105 l 5
 245 -105 l 1x8e
245 655 m 1x1e
 245 829.469726562 l 1
 344 829.469726562 l 5
 344 655 l 5
 245 655 l 1x1e
EndSplineSet
Refer: 22 83 N 1 0 0 1 0 0 2
Validated: 5
EndChar

StartChar: percent
Encoding: 37 37 90
Width: 953
Flags: W
HStem: -9.99805 91.7803<663.918 781.216> 0 21G<201 322.175> 270.072 91.7793<661.58 783.554> 367.143 91.7793<173.271 290.216> 647.212 91.7803<173.271 292.554> 711.008 20G<633.825 755>
VStem: 45 101.66<485.46 621.627> 318.41 99.5498<485.46 621.627> 536 100.66<108.319 244.487> 809.41 99.5498<108.319 244.487>
LayerCount: 2
Fore
SplineSet
636.66015625 176.481445312 m 4xb3c0
 636.66015625 108.544480014 675.278809758 81.7822265625 722.48046875 81.7822265625 c 4
 769.125903792 81.7822265625 809.41015625 108.544480014 809.41015625 176.481445312 c 4
 809.41015625 245.115190869 769.125903792 270.072265625 722.48046875 270.072265625 c 4
 675.278809758 270.072265625 636.66015625 245.115190869 636.66015625 176.481445312 c 4xb3c0
536 176.481445312 m 4
 536 278.624023438 604.040039062 361.8515625 722.48046875 361.8515625 c 4
 840.919921875 361.8515625 908.959960938 278.624023438 908.959960938 176.481445312 c 4
 908.959960938 74.4218750003 840.919921875 -9.998046875 722.48046875 -9.998046875 c 4
 604.040039062 -9.998046875 536 74.4218750003 536 176.481445312 c 4
146.66015625 553.622070312 m 4
 146.66015625 485.685258294 184.828815434 458.921875 231.48046875 458.921875 c 4
 278.125903792 458.921875 318.41015625 485.685258294 318.41015625 553.622070312 c 4
 318.41015625 622.254781506 278.125903792 647.211914062 231.48046875 647.211914062 c 4x3bc0
 184.828815434 647.211914062 146.66015625 622.254781506 146.66015625 553.622070312 c 4
45 553.622070312 m 4
 45 655.764648438 113.040039062 738.9921875 231.48046875 738.9921875 c 4
 349.919921875 738.9921875 417.959960938 655.764648438 417.959960938 553.622070312 c 4
 417.959960938 451.5625 349.919921875 367.142578125 231.48046875 367.142578125 c 4
 113.040039062 367.142578125 45 451.5625 45 553.622070312 c 4
EndSplineSet
Refer: 138 8260 N 1 0 0 1 301 0 2
Validated: 1
EndChar

StartChar: at
Encoding: 64 64 91
Width: 924
Flags: W
HStem: -159.727 91.7578<344.24 647.363> 71.9697 88.7539<390.142 513.589 668.616 765.612> 392.303 86.7734<404.824 528.328> 617.738 89.9883<339.069 616.181>
VStem: 35 96.1748<134.707 404.312> 254.842 107.517<188.921 346.884> 555.183 105.902<210.393 331.945> 558.533 64.4717<151.764 350.156> 803.417 85.8701<206.125 445.543>
LayerCount: 2
Fore
SplineSet
362.358398438 261.0546875 m 0xfe80
 362.358398438 195.401811894 392.370113263 160.723632812 449.194335938 160.723632812 c 0
 516.129544315 160.723632812 555.182617188 210.393330308 555.182617188 295.529296875 c 0
 555.182617188 358.02860607 523.42272005 392.302734375 471.834960938 392.302734375 c 0
 402.622485588 392.302734375 362.358398438 344.031263895 362.358398438 261.0546875 c 0xfe80
423.392578125 71.9697265625 m 0
 322.488813305 71.9697265625 254.841796875 146.245237785 254.841796875 257.037109375 c 0
 254.841796875 388.627283766 337.195362182 479.076171875 451 479.076171875 c 0
 566.433420074 479.076171875 623.004882812 395.377772433 623.004882812 265.27734375 c 0xfd80
 623.004882812 151.763877587 540.609714401 71.9697265625 423.392578125 71.9697265625 c 0
487.713867188 -159.7265625 m 0
 207.397460938 -159.7265625 35 14.611328125 35 268.08984375 c 0
 35 524.041992188 215.831939191 707.7265625 476.420898438 707.7265625 c 0
 717.459670436 707.7265625 889.287109375 561.379882812 889.287109375 321.901367188 c 4
 889.287109375 171.18359375 819.111374469 72.708984375 696.626953125 72.708984375 c 0
 610.048810184 72.708984375 558.533203125 120.982421875 558.533203125 228.081054688 c 0xfd80
 558.533203125 350.15625 597.563476562 476.46484375 597.563476562 476.46484375 c 1
 702.37890625 476.46484375 l 1
 702.37890625 476.46484375 661.084960938 331.944544316 661.084960938 227.827148438 c 0xfe80
 661.084960938 180.408623675 674.894531249 155.384765625 708 155.384765625 c 0
 755.612712576 155.384765625 803.416992188 191.643892992 803.416992188 328.072265625 c 4
 803.416992188 513.200918458 677.617354252 617.73828125 472.984375 617.73828125 c 0
 263.753661331 617.73828125 131.174804688 482.765686665 131.174804688 267.489257812 c 0
 131.174804688 59.0401379147 254.854956902 -67.96875 497.6796875 -67.96875 c 0
 664.395791042 -67.96875 768.61328125 8.5576171875 768.61328125 8.5576171875 c 1
 805.250976562 -72.2255859375 l 1
 805.250976562 -72.2255859375 701.004882812 -159.7265625 487.713867188 -159.7265625 c 0
EndSplineSet
Validated: 5
EndChar

StartChar: numbersign
Encoding: 35 35 92
Width: 767
Flags: W
HStem: 0 21G<116.5 220.014 386.5 490.014> 184 91<55 677> 439 91<90 712> 711.008 20G<276.986 380.5 546.986 650.5>
LayerCount: 2
Fore
SplineSet
90 530 m 1
 712 530 l 5
 712 439 l 5
 90 439 l 1
 90 530 l 1
55 275 m 1
 677 275 l 5
 677 184 l 5
 55 184 l 1
 55 275 l 1
386.5 0 m 1
 551.5 731.0078125 l 1
 650.5 731.0078125 l 1
 485.5 0 l 1
 386.5 0 l 1
116.5 0 m 1
 281.5 731.0078125 l 1
 380.5 731.0078125 l 1
 215.5 0 l 1
 116.5 0 l 1
EndSplineSet
Validated: 5
EndChar

StartChar: braceright
Encoding: 125 125 93
Width: 433
Flags: W
HStem: -171.47 87.9961<36.086 156.141> 261.532 106<300.778 383> 671.474 87.9961<35.9963 156.279>
VStem: 184 109<-56.8779 254.394 376.566 644.877>
LayerCount: 2
Fore
SplineSet
245 314.532226562 m 1
 245 314.532226562 184 337.53515625 184 419.532226562 c 2
 184 563.473632812 l 2
 184 646.395507812 150.568172089 671.473632812 91 671.473632812 c 0
 53.8193359375 671.473632812 37 666.473632812 37 666.473632812 c 1
 30 749.469726562 l 1
 30 749.469726562 72.25 759.469726562 127 759.469726562 c 0
 249.213037634 759.469726562 293 696.430664062 293 589.469726562 c 2
 293 429.532226562 l 6
 293 382.205078125 311.498046875 367.532226562 348 367.532226562 c 6
 383 367.532226562 l 5
 383 261.532226562 l 5
 348 261.532226562 l 6
 311.498046875 261.532226562 293 246.860351562 293 199.532226562 c 6
 293 -1.4697265625 l 2
 293 -108.43359375 249.213037634 -171.469726562 127 -171.469726562 c 0
 67 -171.469726562 30 -161.469726562 30 -161.469726562 c 1
 37 -78.4736328125 l 1
 37 -78.4736328125 46.556640625 -83.4736328125 90 -83.4736328125 c 0
 150.208826014 -83.4736328125 184 -58.3969726562 184 24.5263671875 c 2
 184 209.532226562 l 2
 184 289.532226562 245 314.532226562 245 314.532226562 c 1
EndSplineSet
Validated: 1
EndChar

StartChar: asciitilde
Encoding: 126 126 94
Width: 436
VWidth: 999
Flags: W
HStem: 297 90<231.151 355.082> 346 89<83.9718 204.877>
LayerCount: 2
Fore
SplineSet
421 355 m 5x80
 421 355 373 297 299 297 c 0x80
 221.461538462 297 195.615384615 346 139 346 c 0
 95.4927536232 346 60 302 60 302 c 1
 15 385 l 1
 15 385 68 435 137 435 c 0x40
 213.307692308 435 245.307692308 387 297 387 c 0
 346.615384615 387 372 427 372 427 c 1
 421 355 l 5x80
EndSplineSet
Validated: 1
EndChar

StartChar: cent
Encoding: 162 162 95
Width: 492
Flags: W
HStem: 105.002 97.4619<234.565 423.469> 526.284 99.6494<224.524 405.09> 570 159.47<248 339>
VStem: 45 118.849<272.301 462.808> 248 91<-5 184.47 570 729.47>
LayerCount: 2
Fore
SplineSet
248 -5 m 1x98
 248 184.469726562 l 1
 339 184.469726562 l 5
 339 -5 l 5
 248 -5 l 1x98
248 570 m 1xb8
 248 729.469726562 l 1
 339 729.469726562 l 5
 339 570 l 5
 248 570 l 1xb8
EndSplineSet
Refer: 40 99 N 1 0 0 1 0 115 2
Validated: 5
EndChar

StartChar: sterling
Encoding: 163 163 96
Width: 553
Flags: W
HStem: 0 109<180.319 523> 293 102<50 434> 627.621 111.841<239.428 449.982>
VStem: 69.3516 133.979<442.347 592.296> 146.824 117.657<210.419 398.137>
LayerCount: 2
Fore
SplineSet
434 293 m 1xe0
 50 293 l 1
 50 395 l 1
 434 395 l 1
 434 293 l 1xe0
523 0 m 1
 30 0 l 1
 30 105 l 1
 30 105 146.82421875 180.513671875 146.82421875 289.379882812 c 0xe8
 146.82421875 391.588284089 69.3515625 418.167846584 69.3515625 547.185546875 c 0
 69.3515625 671.3984375 162.766560241 739.461914062 302.80859375 739.461914062 c 0
 439.082705905 739.461914062 499.95703125 703.405273438 499.95703125 703.405273438 c 1
 474.9375 596.024414062 l 1
 474.9375 596.024414062 409.877929688 627.62109375 337.80859375 627.62109375 c 0
 263.062892361 627.62109375 203.330078125 610.8340348 203.330078125 526.024414062 c 4xf0
 203.330078125 434.738865167 264.481445312 404.685032985 264.481445312 290.158203125 c 0xe8
 264.481445312 177.904192501 180.319335938 109 180.319335938 109 c 1
 523 109 l 1
 523 0 l 1
EndSplineSet
Validated: 5
EndChar

StartChar: yen
Encoding: 165 165 97
Width: 649
Flags: W
HStem: 0 21G<260 389> 175 86<99.5 549.5> 305 86<99.5 260 389 549.5> 322 69<266 383> 711.008 20G<30 176.599 472.401 619>
VStem: 260 129<0 391>
LayerCount: 2
Fore
SplineSet
266 322 m 1xdc
 30 731.0078125 l 1
 166 731.0078125 l 1
 324.5 431.916015625 l 1
 483 731.0078125 l 5
 619 731.0078125 l 5
 383 322 l 1
 266 322 l 1xdc
260 0 m 1
 260 391 l 1
 389 391 l 1xec
 389 0 l 1
 260 0 l 1
549.5 175 m 1
 99.5 175 l 1
 99.5 261 l 1
 549.5 261 l 1
 549.5 175 l 1
549.5 305 m 1
 99.5 305 l 1
 99.5 391 l 1
 549.5 391 l 1
 549.5 305 l 1
EndSplineSet
Validated: 5
EndChar

StartChar: currency
Encoding: 164 164 98
Width: 513
Flags: W
HStem: 156.724 102.462<199.072 312.825> 455.006 102.649<199.093 312.846>
VStem: 52.6113 110.849<288.451 427.815> 349.54 110.849<289.284 427.019>
LayerCount: 2
Fore
SplineSet
315.239257812 213.436523438 m 1
 403.889648438 246.325195312 l 1
 498.259765625 124.765625 l 1
 389.580078125 66.1455078125 l 5
 315.239257812 213.436523438 l 1
198.020507812 213.436523438 m 1
 123.6796875 66.1455078125 l 1
 15 124.765625 l 1
 109.370117188 246.325195312 l 1
 198.020507812 213.436523438 l 1
315.239257812 497.74609375 m 1
 389.580078125 645.036132812 l 5
 498.259765625 586.416015625 l 1
 403.889648438 464.856445312 l 1
 315.239257812 497.74609375 l 1
198.020507812 497.74609375 m 1
 109.370117188 464.856445312 l 1
 15 586.416015625 l 1
 123.6796875 645.036132812 l 1
 198.020507812 497.74609375 l 1
163.459960938 359.283203125 m 0
 163.459960938 299.260001134 191.02586875 259.185546875 255.5 259.185546875 c 0
 321.375623633 259.185546875 349.540039062 299.260001134 349.540039062 359.283203125 c 0
 349.540039062 416.683465541 321.408779064 455.005859375 255.611328125 455.005859375 c 0
 191.059022733 455.005859375 163.459960938 416.683465541 163.459960938 359.283203125 c 0
52.611328125 359.283203125 m 0
 52.611328125 479.317382812 129.379882812 557.655273438 255.5 557.655273438 c 0
 382.86328125 557.655273438 460.388671875 479.317382812 460.388671875 359.283203125 c 0
 460.388671875 236.715820312 382.86328125 156.723632812 255.5 156.723632812 c 0
 129.379882812 156.723632812 52.611328125 236.715820312 52.611328125 359.283203125 c 0
EndSplineSet
Validated: 5
EndChar

StartChar: brokenbar
Encoding: 166 166 99
Width: 249
Flags: W
VStem: 65 119<-171.47 239 339 759.47>
LayerCount: 2
Fore
SplineSet
65 -171.469726562 m 1
 65 239 l 1
 184 239 l 5
 184 -171.469726562 l 5
 65 -171.469726562 l 1
65 339 m 1
 65 759.469726562 l 1
 184 759.469726562 l 5
 184 339 l 5
 65 339 l 1
EndSplineSet
Validated: 1
EndChar

StartChar: section
Encoding: 167 167 100
Width: 593
Flags: W
HStem: -19.6709 94.3906<172.441 341.098> 660.212 94.3906<251.902 420.559>
VStem: 39.6328 113.859<343.136 428.274> 115.533 119.232<544.165 642.786> 358.234 119.232<92.1458 193.174> 439.508 113.859<305.43 386.968>
LayerCount: 2
Fore
SplineSet
179.71484375 515.153320312 m 1xe8
 244.5234375 459.951171875 l 1
 244.5234375 459.951171875 153.4921875 445.112304688 153.4921875 382.393554688 c 0
 153.4921875 349.290928743 185.252814682 319.696682001 292.860351562 310.17578125 c 0
 429.592450165 298.077997229 477.466796875 227.356998291 477.466796875 145.370117188 c 0
 477.466796875 42.560546875 406.646484375 -19.6708984375 290.30078125 -19.6708984375 c 0
 177.5859375 -19.6708984375 122.76953125 19.734375 122.76953125 19.734375 c 1
 150.896484375 107.825195312 l 1
 150.896484375 107.825195312 201.38671875 74.7197265625 275.8046875 74.7197265625 c 0
 332.6640625 74.7197265625 358.234375 101.408203125 358.234375 144.443359375 c 0
 358.234375 178.779928164 339.311970292 214.102710039 247.696289062 219.377929688 c 0
 83.7087413534 228.8203125 39.6328125 297.031926935 39.6328125 362.309570312 c 0
 39.6328125 480.456054688 179.71484375 515.153320312 179.71484375 515.153320312 c 1xe8
393.28515625 199.778320312 m 1
 348.4765625 274.98046875 l 1
 348.4765625 274.98046875 439.5078125 289.819335938 439.5078125 345 c 0
 439.5078125 385.289496288 405.278620428 410.407226562 292.208007812 424.451171875 c 0
 162.175250208 440.601901887 115.533203125 507.423067581 115.533203125 589.561523438 c 0
 115.533203125 692.37109375 186.353515625 754.602539062 302.69921875 754.602539062 c 0
 415.4140625 754.602539062 470.23046875 715.197265625 470.23046875 715.197265625 c 1
 442.103515625 627.106445312 l 1
 442.103515625 627.106445312 391.614257812 660.211914062 317.1953125 660.211914062 c 0
 260.3359375 660.211914062 234.765625 633.5234375 234.765625 590.48828125 c 0
 234.765625 554.995868728 252.864652877 525.491806736 352.260742188 513.03125 c 0
 505.71398632 493.793945312 553.3671875 431.858043788 553.3671875 363.622070312 c 0xd4
 553.3671875 238.5859375 393.28515625 199.778320312 393.28515625 199.778320312 c 1
EndSplineSet
Validated: 5
EndChar

StartChar: dieresis
Encoding: 168 168 101
Width: 459
Flags: W
HStem: 592.543 146.449<70.5263 178.473 280.526 388.473>
VStem: 51.8867 145.227<611.34 720.195> 261.887 145.227<611.34 720.195>
LayerCount: 2
Fore
SplineSet
261.88671875 665.767578125 m 0
 261.88671875 710.128230376 290.508637679 738.9921875 334.499023438 738.9921875 c 0
 378.490423077 738.9921875 407.11328125 710.128230376 407.11328125 665.767578125 c 0
 407.11328125 621.406124431 378.490423077 592.54296875 334.499023438 592.54296875 c 4
 290.508637679 592.54296875 261.88671875 621.406124431 261.88671875 665.767578125 c 0
51.88671875 665.767578125 m 0
 51.88671875 710.128230376 80.5086376795 738.9921875 124.499023438 738.9921875 c 0
 168.490423077 738.9921875 197.11328125 710.128230376 197.11328125 665.767578125 c 0
 197.11328125 621.406124431 168.490423077 592.54296875 124.499023438 592.54296875 c 4
 80.5086376793 592.54296875 51.88671875 621.406124431 51.88671875 665.767578125 c 0
EndSplineSet
Validated: 1
EndChar

StartChar: copyright
Encoding: 169 169 102
Width: 797
Flags: W
HStem: -9.99805 89.8574<278.886 518.892> 177.281 81.2314<364.11 524.844> 470.61 81.2314<364.11 505.675> 649.264 89.8574<278.886 518.892>
VStem: 35 92.8965<236.014 493.109> 231.957 99.4238<290.634 438.489> 669.881 92.8965<236.014 493.109>
LayerCount: 2
Fore
SplineSet
231.95703125 364.561523438 m 4
 231.95703125 477.88408452 295.722030204 551.841796875 418.401367188 551.841796875 c 0
 501.2421875 551.841796875 541.297851562 518.7265625 541.297851562 518.7265625 c 1
 510.634765625 444.849609375 l 1
 510.634765625 444.849609375 489.30859375 470.610351562 433.901367188 470.610351562 c 0
 359.279846122 470.610351562 331.380859375 428.154531103 331.380859375 364.561523438 c 4
 331.380859375 300.968515774 359.279846122 258.512695312 433.901367188 258.512695312 c 0
 493.76171875 258.512695312 519.465820312 281.578125 519.465820312 281.578125 c 1
 542.870117188 204.578125 l 1
 542.870117188 204.578125 500.682617188 177.28125 418.401367188 177.28125 c 0
 295.722030204 177.28125 231.95703125 251.238962356 231.95703125 364.561523438 c 4
127.896484375 364.561523438 m 0
 127.896484375 193.838967112 209.057282273 79.859375 398.888671875 79.859375 c 0
 588.720061477 79.859375 669.880859375 193.838967112 669.880859375 364.561523438 c 0
 669.880859375 535.284079763 588.720061477 649.263671875 398.888671875 649.263671875 c 0
 209.057282273 649.263671875 127.896484375 535.284079763 127.896484375 364.561523438 c 0
35 364.561523438 m 0
 35 591.206054688 172.688476562 739.12109375 398.888671875 739.12109375 c 0
 625.088867188 739.12109375 762.77734375 591.206054688 762.77734375 364.561523438 c 0
 762.77734375 137.916992188 625.088867188 -9.998046875 398.888671875 -9.998046875 c 0
 172.688476562 -9.998046875 35 137.916992188 35 364.561523438 c 0
EndSplineSet
Validated: 1
EndChar

StartChar: registered
Encoding: 174 174 103
Width: 797
Flags: W
HStem: -9.99805 89.8574<278.886 518.892> 310.752 65.1758<297 442.631> 480.076 68.1797<342 453.224> 649.264 89.8574<278.886 518.892>
VStem: 35 92.8965<236.014 493.109> 252.5 89.5<182.752 310.752 375.928 480.076> 297 45<310.752 375.928> 463.465 86.9238<386.172 468.824> 669.881 92.8965<236.014 493.109>
LayerCount: 2
Fore
SplineSet
297 375.927734375 m 5xfb80
 390.444335938 375.982421875 l 6
 432.248469969 376.004670007 463.46484375 385.251764315 463.46484375 427.533203125 c 4
 463.46484375 470.210629542 432.248463352 479.985835277 390.444335938 480.025390625 c 6
 342 480.076171875 l 5
 342 182.751953125 l 5
 252.5 182.751953125 l 5
 252.5 548.255859375 l 5xfd80
 409.444335938 548.255859375 l 6
 483.602050781 548.255859375 550.388671875 516.602513866 550.388671875 432.033203125 c 4
 550.388671875 362.464123744 490.34375 341.890625 490.34375 341.890625 c 5
 490.34375 341.890625 518.399719461 331.170780518 537.3515625 271.451171875 c 6
 565.5 182.751953125 l 5
 474.5 182.751953125 l 5
 452 265.251953125 l 6
 440.225495793 308.425135216 424 310.751953125 391 310.751953125 c 6
 297 310.751953125 l 5
 297 375.927734375 l 5xfb80
127.896484375 364.561523438 m 0
 127.896484375 193.838967112 209.057282273 79.859375 398.888671875 79.859375 c 0
 588.720061477 79.859375 669.880859375 193.838967112 669.880859375 364.561523438 c 0
 669.880859375 535.284079763 588.720061477 649.263671875 398.888671875 649.263671875 c 0
 209.057282273 649.263671875 127.896484375 535.284079763 127.896484375 364.561523438 c 0
35 364.561523438 m 0
 35 591.206054688 172.688476562 739.12109375 398.888671875 739.12109375 c 0
 625.088867188 739.12109375 762.77734375 591.206054688 762.77734375 364.561523438 c 0
 762.77734375 137.916992188 625.088867188 -9.998046875 398.888671875 -9.998046875 c 0
 172.688476562 -9.998046875 35 137.916992188 35 364.561523438 c 0
EndSplineSet
Validated: 5
EndChar

StartChar: uni2117
Encoding: 8471 8471 104
Width: 797
Flags: W
HStem: -9.99805 89.8574<278.886 518.892> 286.752 65.1758<317.694 464.106> 480.076 68.1797<351.694 463.578> 649.264 89.8574<278.886 518.892>
VStem: 35 92.8965<236.014 493.109> 262.194 89.5<182.752 286.752 351.928 480.076> 317.694 34<286.752 351.928> 479.659 84.9238<365.417 465.284> 669.881 92.8965<236.014 493.109>
LayerCount: 2
Fore
SplineSet
317.694335938 286.751953125 m 1xfb80
 317.694335938 351.927734375 l 1xfb80
 398.138671875 351.982421875 l 6
 444.809095937 352.019711868 479.659179688 363.499631019 479.659179688 416.033203125 c 4
 479.659179688 468.060707952 444.809078235 479.956584492 398.138671875 480.025390625 c 6
 351.694335938 480.076171875 l 1
 351.694335938 182.751953125 l 1
 262.194335938 182.751953125 l 1
 262.194335938 548.255859375 l 1xfd80
 402.138671875 548.255859375 l 6
 487.608510879 548.255859375 564.583007812 512.244978898 564.583007812 416.033203125 c 4
 564.583007812 321.475395761 492.831436295 286.751953125 414.138671875 286.751953125 c 6
 317.694335938 286.751953125 l 1xfb80
127.896484375 364.561523438 m 0
 127.896484375 193.838967112 209.057282273 79.859375 398.888671875 79.859375 c 0
 588.720061477 79.859375 669.880859375 193.838967112 669.880859375 364.561523438 c 0
 669.880859375 535.284079763 588.720061477 649.263671875 398.888671875 649.263671875 c 0
 209.057282273 649.263671875 127.896484375 535.284079763 127.896484375 364.561523438 c 0
35 364.561523438 m 0
 35 591.206054688 172.688476562 739.12109375 398.888671875 739.12109375 c 0
 625.088867188 739.12109375 762.77734375 591.206054688 762.77734375 364.561523438 c 0
 762.77734375 137.916992188 625.088867188 -9.998046875 398.888671875 -9.998046875 c 0
 172.688476562 -9.998046875 35 137.916992188 35 364.561523438 c 0
EndSplineSet
Validated: 5
EndChar

StartChar: guillemotleft
Encoding: 171 171 105
Width: 590
Flags: W
LayerCount: 2
Fore
SplineSet
45 281 m 1
 185 441 l 1
 305 441 l 5
 151.75 254 l 5
 305 67 l 5
 185 67 l 1
 45 227 l 1
 45 281 l 1
295 281 m 1
 435 441 l 1
 555 441 l 5
 401.75 254 l 5
 555 67 l 5
 435 67 l 1
 295 227 l 1
 295 281 l 1
EndSplineSet
Validated: 1
EndChar

StartChar: guillemotright
Encoding: 187 187 106
Width: 590
Flags: W
LayerCount: 2
Fore
SplineSet
545 227 m 1
 405 67 l 1
 285 67 l 5
 438.25 254 l 5
 285 441 l 5
 405 441 l 1
 545 281 l 1
 545 227 l 1
295 227 m 1
 155 67 l 1
 35 67 l 5
 188.25 254 l 5
 35 441 l 5
 155 441 l 1
 295 281 l 1
 295 227 l 1
EndSplineSet
Validated: 1
EndChar

StartChar: mu
Encoding: 181 181 107
Width: 595
Flags: W
HStem: -9.92285 95.6494<224.515 365.218> 0 21G<411.777 530.777> 481.011 20G<65 184 411.777 530.777>
VStem: 65 119<-180 501.011> 105 79<56.9261 321.011> 411.777 119<207.449 501.011>
LayerCount: 2
Fore
SplineSet
65 -180 m 1x34
 65 501.010742188 l 1
 184 501.010742188 l 1
 184 -180 l 1
 65 -180 l 1x34
411.77734375 217.010742188 m 13
 466.77734375 207.44921875 l 21
 445.98085537 57.0107421877 386.121386607 -9.9228515625 273.77734375 -9.9228515625 c 0
 172.948764393 -9.9228515625 105 56.9260601597 105 196.44921875 c 2
 105 321.010742188 l 1xac
 184 321.010742188 l 1
 184 213.44921875 l 2
 184 132.541162612 217.622406179 85.7265625 296.77734375 85.7265625 c 0xb4
 377.335516032 85.7265625 411.77734375 138.285722149 411.77734375 217.010742188 c 13
530.77734375 501.010742188 m 1
 530.77734375 0 l 1
 411.77734375 0 l 1x64
 411.77734375 501.010742188 l 1
 530.77734375 501.010742188 l 1
EndSplineSet
EndChar

StartChar: acute
Encoding: 180 180 108
Width: 242
Flags: W
HStem: 536 205.008
VStem: 11 220
LayerCount: 2
Fore
SplineSet
91 536 m 1
 11 556 l 1
 125 741.0078125 l 5
 231 711.0078125 l 5
 91 536 l 1
EndSplineSet
Validated: 1
EndChar

StartChar: macron
Encoding: 175 175 109
Width: 374
Flags: W
HStem: 630.008 101<50 324>
VStem: 50 274<630.008 731.008>
LayerCount: 2
Fore
SplineSet
324 630.0078125 m 5
 50 630.0078125 l 1
 50 731.0078125 l 1
 324 731.0078125 l 5
 324 630.0078125 l 5
EndSplineSet
Validated: 1
EndChar

StartChar: uni00AD
Encoding: 173 173 110
Width: 354
Flags: W
HStem: 228 103<50 304>
VStem: 50 254<228 331>
LayerCount: 2
Fore
SplineSet
304 228 m 5
 50 228 l 5
 50 331 l 1
 304 331 l 1
 304 228 l 5
EndSplineSet
Validated: 1
EndChar

StartChar: logicalnot
Encoding: 172 172 111
Width: 450
Flags: W
HStem: 310 96<30 305>
VStem: 305 100<165 310>
LayerCount: 2
Fore
SplineSet
405 165 m 5
 305 165 l 1
 305 310 l 1
 30 310 l 1
 30 406 l 1
 405 406 l 5
 405 165 l 5
EndSplineSet
Validated: 1
EndChar

StartChar: minus
Encoding: 8722 8722 112
Width: 450
Flags: W
HStem: 310 96<30 420>
LayerCount: 2
Fore
SplineSet
420 310 m 5
 30 310 l 5
 30 406 l 1
 420 406 l 1
 420 310 l 5
EndSplineSet
Validated: 1
EndChar

StartChar: notequal
Encoding: 8800 8800 113
Width: 450
Flags: W
HStem: 230 86<30 420> 400 86<30 420>
LayerCount: 2
Fore
SplineSet
70 108.530273438 m 1
 275 601.403320312 l 1
 374 601.403320312 l 5
 169 108.530273438 l 5
 70 108.530273438 l 1
EndSplineSet
Refer: 52 61 N 1 0 0 1 0 0 2
Validated: 5
EndChar

StartChar: partialdiff
Encoding: 8706 8706 114
Width: 620
Flags: W
HStem: -9.99805 106.889<214.106 374.347> 376.891 93.709<225.206 387.398> 629.52 109.473<195.41 369.896>
VStem: 45 120.767<144.624 315.692> 454.861 120.304<412.747 528.207>
LayerCount: 2
Fore
SplineSet
432.766601562 246.890625 m 4
 432.766601562 322.028239679 396.834109575 376.890625 309.766601562 376.890625 c 0
 207.833736097 376.890625 165.766601562 313.587872707 165.766601562 226.890625 c 0
 165.766601562 151.753010321 201.991078523 96.890625 289.766601562 96.890625 c 0
 390.991427951 96.890625 432.766601562 160.193377293 432.766601562 246.890625 c 4
454.861328125 412.747070312 m 1
 448.777195384 553.295339892 394.902947819 629.51953125 288.38671875 629.51953125 c 0
 206.880478438 629.51953125 162.545898438 587.388671875 162.545898438 587.388671875 c 1
 113.241210938 688.860351562 l 1
 113.241210938 688.860351562 174.648733922 738.9921875 295.8671875 738.9921875 c 0
 475.405807803 738.9921875 575.165039062 612.671898034 575.165039062 385.331054688 c 0
 575.165039062 105.516837439 468.624633787 -9.998046875 288.8671875 -9.998046875 c 0
 137.631095472 -9.998046875 45 75.5176128099 45 229 c 0
 45 372.20164401 140.764648438 470.599609375 291.901367188 470.599609375 c 0
 415.284648069 470.599609375 454.861328125 412.747070312 454.861328125 412.747070312 c 1
EndSplineSet
Validated: 1
EndChar

StartChar: emptyset
Encoding: 8709 8709 115
Width: 797
Flags: W
HStem: -9.99805 102.462<308.224 516.192> 636.659 102.462<281.586 492.878>
VStem: 35 104.849<235.894 493.229> 657.929 104.849<235.894 493.229>
LayerCount: 2
Fore
SplineSet
139.848632812 364.561523438 m 0
 139.848632812 201.397206975 217.429610183 92.4638671875 398.888671875 92.4638671875 c 0
 580.347733567 92.4638671875 657.928710938 201.397206975 657.928710938 364.561523438 c 4
 657.928710938 527.725839897 580.347733567 636.659179688 398.888671875 636.659179688 c 0
 217.429610183 636.659179688 139.848632812 527.725839897 139.848632812 364.561523438 c 0
35 364.561523438 m 0
 35 591.206054688 172.688476562 739.12109375 398.888671875 739.12109375 c 0
 625.088867188 739.12109375 762.77734375 591.206054688 762.77734375 364.561523438 c 4
 762.77734375 137.916992188 625.088867188 -9.998046875 398.888671875 -9.998046875 c 0
 172.688476562 -9.998046875 35 137.916992188 35 364.561523438 c 0
111.5 -90.873046875 m 1
 576.5 812 l 1
 685.5 812 l 1
 220.5 -90.873046875 l 1
 111.5 -90.873046875 l 1
EndSplineSet
Validated: 5
EndChar

StartChar: Delta
Encoding: 8710 8710 116
Width: 719
Flags: W
HStem: 0 120<189 530> 711.008 20G<277.271 432.051>
LayerCount: 2
Fore
SplineSet
674 0 m 5
 45 0 l 1
 45 110 l 1
 285 731.0078125 l 1
 424 731.0078125 l 1
 674 110 l 5
 674 0 l 5
530 120 m 5
 355.393554688 590.313476562 l 1
 189 120 l 1
 530 120 l 5
EndSplineSet
Validated: 1
EndChar

StartChar: plusminus
Encoding: 177 177 117
Width: 450
Flags: W
HStem: 163 86<30 420> 350 96<30 420>
VStem: 177 96<168 568>
LayerCount: 2
Fore
SplineSet
420 163 m 5
 30 163 l 5
 30 249 l 1
 420 249 l 1
 420 163 l 5
177 168 m 1
 177 568 l 1
 273 568 l 1
 273 168 l 1
 177 168 l 1
420 350 m 5
 30 350 l 5
 30 446 l 1
 420 446 l 1
 420 350 l 5
EndSplineSet
Validated: 5
EndChar

StartChar: degree
Encoding: 176 176 118
Width: 431
Flags: W
HStem: 400.07 86.5264<155.267 275.519> 674.288 86.7139<155.285 277.759>
VStem: 35 94.4121<512.866 648.279> 302.365 94.4121<513.629 647.523>
LayerCount: 2
Fore
SplineSet
129.412109375 580.854492188 m 0
 129.412109375 524.332868829 154.981645276 486.596679688 214.786132812 486.596679688 c 0
 276.135648114 486.596679688 302.365234375 524.332868829 302.365234375 580.854492188 c 4
 302.365234375 636.882270163 276.172860495 674.288085938 214.909179688 674.288085938 c 0
 155.018860776 674.288085938 129.412109375 636.882270163 129.412109375 580.854492188 c 0
35 580.629882812 m 0
 35 689.772696384 103.066035874 761.001953125 214.888671875 761.001953125 c 0
 327.954473215 761.001953125 396.77734375 689.772696384 396.77734375 580.629882812 c 4
 396.77734375 471.374251811 327.954473215 400.0703125 214.888671875 400.0703125 c 0
 103.066035874 400.0703125 35 471.374251811 35 580.629882812 c 0
EndSplineSet
Validated: 1
EndChar

StartChar: cedilla
Encoding: 184 184 120
Width: 317
VWidth: 999
Flags: W
HStem: -255 68<48.5066 189.298> -86 65<133.791 192.081>
VStem: 198 89<-176.008 -92.0335>
LayerCount: 2
Fore
SplineSet
287 -131 m 0
 287 -209.970703125 237.749023438 -255 146 -255 c 0
 88.0773841595 -255 36 -232 36 -232 c 5
 54 -166 l 5
 54 -166 83.103515625 -187 130 -187 c 0
 180.58219401 -187 198 -165.705711571 198 -134 c 0
 198 -100.558823529 180.093570108 -86 151 -86 c 0
 116.886328124 -86 105 -111 105 -111 c 5
 47 -92 l 5
 69 39 l 5
 146 39 l 5
 133.485351562 -33.603515625 l 5
 133.485351562 -33.603515625 147.297754294 -21 183 -21 c 0
 245.971998762 -21 287 -62.5234375 287 -131 c 0
EndSplineSet
Validated: 1
EndChar

StartChar: paragraph
Encoding: 182 182 121
Width: 682
Flags: W
HStem: 634.992 96<405.889 495.889>
VStem: 40 365.889<398.845 606.32> 293.889 112<-179.994 284.637> 495.889 112<-179.994 634.992>
LayerCount: 2
Fore
SplineSet
405.888671875 -179.994140625 m 1xb0
 293.888671875 -179.994140625 l 1
 293.888671875 282.9921875 l 1xb0
 152.121389579 292.9921875 40 337.833007812 40 499.432617188 c 0xd0
 40 667.032226562 152 730.9921875 293.888671875 730.9921875 c 2
 607.888671875 730.9921875 l 1
 607.888671875 -179.994140625 l 1
 495.888671875 -179.994140625 l 1
 495.888671875 634.9921875 l 1
 405.888671875 634.9921875 l 1
 405.888671875 -179.994140625 l 1xb0
EndSplineSet
Validated: 1
EndChar

StartChar: ordfeminine
Encoding: 170 170 122
Width: 402
Flags: W
HStem: 369.992 71<125.923 237.858 304.191 382.284> 538.992 58<134.253 263> 665.992 73<95.6918 235.265>
VStem: 30 90<447.664 523.303> 251 85<455.21 486.992 590.992 648.056> 251 37<413.992 479.992> 251 12<538.992 596.992>
LayerCount: 2
Fore
SplineSet
251 494.9921875 m 1xf2
 251 462.341024709 220.851851852 440.9921875 177 440.9921875 c 4
 136.682926829 440.9921875 120 457.63734879 120 483.9921875 c 4
 120 528.9921875 154.747663551 538.9921875 263 538.9921875 c 1
 263 596.9921875 l 1xf2
 127.170403587 596.9921875 30 580.585407839 30 475.9921875 c 0
 30 411.9921875 76 369.9921875 150 369.9921875 c 0
 243.796875 369.9921875 288 413.9921875 288 479.9921875 c 1xf4
 251 494.9921875 l 1xf2
251 590.9921875 m 2xf8
 251 459.9921875 l 2
 251 398.9921875 277.382978723 369.9921875 331 369.9921875 c 0
 368.85915493 369.9921875 387 386.9921875 387 386.9921875 c 1
 381 447.9921875 l 1
 381 447.9921875 372.157894737 443.9921875 357 443.9921875 c 0
 342 443.9921875 336 455.209578804 336 486.9921875 c 2
 336 595.9921875 l 2
 336 682.197861259 291.9375 738.9921875 186 738.9921875 c 0
 108.928571429 738.9921875 56 705.9921875 56 705.9921875 c 1
 84 636.9921875 l 1
 84 636.9921875 120 665.9921875 171 665.9921875 c 0
 226.483870967 665.9921875 251 643.008316532 251 590.9921875 c 2xf8
EndSplineSet
Validated: 5
EndChar

StartChar: ordmasculine
Encoding: 186 186 123
Width: 418
Flags: W
HStem: 367.992 80<151.44 266.995> 658.992 80<151.44 266.735>
VStem: 33 90<476.94 631.592> 295 90<476.94 631.592>
LayerCount: 2
Fore
SplineSet
123 554.9921875 m 0
 123 489.924619932 148.8 447.9921875 209 447.9921875 c 0
 270.428571429 447.9921875 295 489.924619932 295 554.9921875 c 4
 295 616.513314261 269.2 658.9921875 209 658.9921875 c 0
 148.8 658.9921875 123 616.513314261 123 554.9921875 c 0
33 555.9921875 m 0
 33 667.025895365 100.182795699 738.9921875 209 738.9921875 c 0
 318.76344086 738.9921875 385 667.025895365 385 555.9921875 c 0
 385 441.959400615 318.76344086 367.9921875 209 367.9921875 c 0
 100.182795699 367.9921875 33 441.959400615 33 555.9921875 c 0
EndSplineSet
Validated: 1
EndChar

StartChar: arrowleft
Encoding: 8592 8592 124
Width: 550
Flags: W
HStem: 299.64 118<252.149 537.749> 309.64 98<129.749 415.349>
LayerCount: 2
Fore
SplineSet
537.749023438 299.639648438 m 1x80
 129.749023438 309.639648438 l 1
 129.749023438 407.639648438 l 1x40
 537.749023438 417.639648438 l 1
 537.749023438 299.639648438 l 1x80
137.561523438 358.638671875 m 1
 307.848632812 207.1171875 l 1
 224.510742188 123.779296875 l 1
 12.2509765625 358.638671875 l 1
 224.510742188 593.5 l 1
 307.848632812 510.16015625 l 1
 137.561523438 358.638671875 l 1
EndSplineSet
Validated: 5
EndChar

StartChar: product
Encoding: 8719 8719 128
Width: 719
Flags: W
HStem: 620.008 111<194 525>
VStem: 65 129<-179.994 620.008> 525 129<-179.994 620.008>
LayerCount: 2
Fore
SplineSet
654 731.0078125 m 5
 654 -179.994140625 l 5
 525 -179.994140625 l 5
 525 620.0078125 l 5
 194 620.0078125 l 1
 194 -179.994140625 l 1
 65 -179.994140625 l 1
 65 731.0078125 l 1
 654 731.0078125 l 5
EndSplineSet
Validated: 1
EndChar

StartChar: summation
Encoding: 8721 8721 129
Width: 634
Flags: W
HStem: -179.994 110<203 594> 621.008 110<223 594>
LayerCount: 2
Back
SplineSet
264 585.0078125 m 5
 394 410 l 5
 394 319 l 5
 244 146 l 5
 544 146 l 5
 544 0 l 5
 55 0 l 5
 55 161 l 5
 235 358 l 5
 55 589 l 5
 55 731.0078125 l 5
 544 731.0078125 l 5
 544 585.0078125 l 5
 264 585.0078125 l 5
EndSplineSet
Fore
SplineSet
223 621.0078125 m 1
 433 330 l 1
 433 239 l 1
 203 -69.994140625 l 1
 594 -69.994140625 l 5
 594 -179.994140625 l 5
 65 -179.994140625 l 1
 65 -54.994140625 l 1
 315 278 l 1
 65 625 l 1
 65 731.0078125 l 1
 594 731.0078125 l 5
 594 621.0078125 l 5
 223 621.0078125 l 1
EndSplineSet
Validated: 1
EndChar

StartChar: approxequal
Encoding: 8776 8776 130
Width: 450
VWidth: 999
Flags: W
HStem: 197 90<240.234 372.228> 246 89<85.3077 212.515> 387 90<240.234 372.228> 436 89<85.3077 212.515>
LayerCount: 2
Fore
SplineSet
438 255 m 1x80
 438 255 386.065429688 197 306 197 c 0x80
 228.461914062 197 202.615234375 246 146 246 c 0
 100.289855072 246 63 207 63 207 c 1
 12 285 l 1
 12 285 69.3447265625 335 144 335 c 0x40
 221.73838501 335 254.33838501 287 307 287 c 0
 360.584615385 287 388 323 388 323 c 1
 438 255 l 1x80
438 445 m 1
 438 445 386.065429688 387 306 387 c 0x20
 228.461914062 387 202.615234375 436 146 436 c 0
 100.289855072 436 63 397 63 397 c 1
 12 475 l 1
 12 475 69.3447265625 525 144 525 c 4x10
 221.73838501 525 254.33838501 477 307 477 c 0x20
 360.584615385 477 388 513 388 513 c 1
 438 445 l 1
EndSplineSet
Validated: 1
EndChar

StartChar: perthousand
Encoding: 8240 8240 131
Width: 1263
Flags: W
HStem: -9.99805 91.7803<664.192 789.865 965.256 1090.93> 0 21G<201 322.175> 270.072 91.7793<664.192 792.085 963.037 1090.93> 367.143 91.7793<173.271 290.216> 647.212 91.7803<173.271 292.554> 711.008 20G<633.825 755>
VStem: 45 101.66<485.46 621.627> 318.41 99.5498<485.46 621.627> 536 100.66<109.119 243.703> 819.41 117.25<108.545 245.115> 851 52.96<74.4222 278.624> 1119.41 99.5498<111.243 241.587>
LayerCount: 2
Fore
SplineSet
936.66015625 176.481445312 m 4xb3d0
 936.66015625 108.54474655 977.529296875 81.7822265625 1027.48046875 81.7822265625 c 4
 1076.80892861 81.7822265625 1119.41015625 108.54474655 1119.41015625 176.481445312 c 4
 1119.41015625 245.115333782 1076.80892861 270.072265625 1027.48046875 270.072265625 c 4
 977.529296875 270.072265625 936.66015625 245.115333782 936.66015625 176.481445312 c 4xb3d0
851 176.481445312 m 4xb3b0
 851 278.623614564 919.039845377 361.8515625 1037.48046875 361.8515625 c 4
 1158.92551281 361.8515625 1218.95996094 278.623614564 1218.95996094 176.481445312 c 4
 1218.95996094 74.4221678792 1158.92551281 -9.998046875 1037.48046875 -9.998046875 c 4
 919.039845377 -9.998046875 851 74.4221678792 851 176.481445312 c 4xb3b0
636.66015625 176.481445312 m 4
 636.66015625 108.544480014 677.528781378 81.7822265625 727.48046875 81.7822265625 c 4
 776.808844245 81.7822265625 819.41015625 108.544480014 819.41015625 176.481445312 c 4xb3d0
 819.41015625 245.115190869 776.808844245 270.072265625 727.48046875 270.072265625 c 4
 677.528781378 270.072265625 636.66015625 245.115190869 636.66015625 176.481445312 c 4
536 176.481445312 m 4
 536 278.624023438 596.034456788 361.8515625 717.48046875 361.8515625 c 4
 835.920133695 361.8515625 903.959960938 278.623614564 903.959960938 176.481445312 c 4xb3b0
 903.959960938 74.4221678792 835.920133695 -9.998046875 717.48046875 -9.998046875 c 4
 596.034456788 -9.998046875 536 74.4218750003 536 176.481445312 c 4
146.66015625 553.622070312 m 4
 146.66015625 485.685258294 184.828815434 458.921875 231.48046875 458.921875 c 4
 278.125903792 458.921875 318.41015625 485.685258294 318.41015625 553.622070312 c 4
 318.41015625 622.254781506 278.125903792 647.211914062 231.48046875 647.211914062 c 4x3b90
 184.828815434 647.211914062 146.66015625 622.254781506 146.66015625 553.622070312 c 4
45 553.622070312 m 4
 45 655.764648438 113.040039062 738.9921875 231.48046875 738.9921875 c 4
 349.919921875 738.9921875 417.959960938 655.764648438 417.959960938 553.622070312 c 4
 417.959960938 451.5625 349.919921875 367.142578125 231.48046875 367.142578125 c 4
 113.040039062 367.142578125 45 451.5625 45 553.622070312 c 4
EndSplineSet
Refer: 138 8260 N 1 0 0 1 301 0 2
Validated: 5
EndChar

StartChar: uni2031
Encoding: 8241 8241 132
Width: 1573
Flags: W
HStem: -9.99805 91.7803<664.192 789.865 968.635 1096.49 1275.26 1400.93> 0 21G<201 322.175> 270.072 91.7793<664.192 792.085 968.635 1096.49 1273.04 1400.93> 367.143 91.7793<173.271 290.216> 647.212 91.7803<173.271 292.554> 711.008 20G<633.825 755>
VStem: 45 101.66<485.46 621.627> 318.41 99.5498<485.46 621.627> 536 100.66<109.119 243.703> 819.41 122.25<108.545 245.115> 846 57.96<74.4222 278.624> 1124.41 122.25<108.545 245.115> 1161 57.96<74.4222 278.624> 1429.41 99.5498<111.243 241.587>
LayerCount: 2
Fore
SplineSet
1246.66015625 176.481445312 m 0xb394
 1246.66015625 108.54474655 1287.52929688 81.7822265625 1337.48046875 81.7822265625 c 4
 1386.80892861 81.7822265625 1429.41015625 108.54474655 1429.41015625 176.481445312 c 0
 1429.41015625 245.115333782 1386.80892861 270.072265625 1337.48046875 270.072265625 c 0
 1287.52929688 270.072265625 1246.66015625 245.115333782 1246.66015625 176.481445312 c 0xb394
1161 176.481445312 m 0xb38c
 1161 278.623614564 1229.03984537 361.8515625 1347.48046875 361.8515625 c 0
 1468.92551281 361.8515625 1528.95996094 278.623614564 1528.95996094 176.481445312 c 0
 1528.95996094 74.4221678792 1468.92551281 -9.998046875 1347.48046875 -9.998046875 c 0
 1229.03984537 -9.998046875 1161 74.4221678792 1161 176.481445312 c 0xb38c
941.66015625 176.481445312 m 0xb3d4
 941.66015625 108.54474655 982.529296875 81.7822265625 1032.48046875 81.7822265625 c 0
 1081.80892861 81.7822265625 1124.41015625 108.54474655 1124.41015625 176.481445312 c 0
 1124.41015625 245.115333782 1081.80892861 270.072265625 1032.48046875 270.072265625 c 0
 982.529296875 270.072265625 941.66015625 245.115333782 941.66015625 176.481445312 c 0xb3d4
846 176.481445312 m 0xb3ac
 846 278.623614564 907.688476562 361.8515625 1032.48046875 361.8515625 c 0
 1157.27148438 361.8515625 1218.95996094 278.623614564 1218.95996094 176.481445312 c 0
 1218.95996094 74.4221678792 1157.27148438 -9.998046875 1032.48046875 -9.998046875 c 0
 907.688476562 -9.998046875 846 74.4221678792 846 176.481445312 c 0xb3ac
636.66015625 176.481445312 m 0
 636.66015625 108.544480014 677.528781378 81.7822265625 727.48046875 81.7822265625 c 0
 776.808844245 81.7822265625 819.41015625 108.544480014 819.41015625 176.481445312 c 0xb3c4
 819.41015625 245.115190869 776.808844245 270.072265625 727.48046875 270.072265625 c 0
 677.528781378 270.072265625 636.66015625 245.115190869 636.66015625 176.481445312 c 0
536 176.481445312 m 0
 536 278.624023438 596.034456788 361.8515625 717.48046875 361.8515625 c 0
 835.920133695 361.8515625 903.959960938 278.623614564 903.959960938 176.481445312 c 0xb3a4
 903.959960938 74.4221678792 835.920133695 -9.998046875 717.48046875 -9.998046875 c 0
 596.034456788 -9.998046875 536 74.4218750003 536 176.481445312 c 0
146.66015625 553.622070312 m 0
 146.66015625 485.685258294 184.828815434 458.921875 231.48046875 458.921875 c 0
 278.125903792 458.921875 318.41015625 485.685258294 318.41015625 553.622070312 c 0
 318.41015625 622.254781506 278.125903792 647.211914062 231.48046875 647.211914062 c 0x3b84
 184.828815434 647.211914062 146.66015625 622.254781506 146.66015625 553.622070312 c 0
45 553.622070312 m 0
 45 655.764648438 113.040039062 738.9921875 231.48046875 738.9921875 c 0
 349.919921875 738.9921875 417.959960938 655.764648438 417.959960938 553.622070312 c 0
 417.959960938 451.5625 349.919921875 367.142578125 231.48046875 367.142578125 c 0
 113.040039062 367.142578125 45 451.5625 45 553.622070312 c 0
EndSplineSet
Refer: 138 8260 N 1 0 0 1 301 0 2
Validated: 5
EndChar

StartChar: uni203D
Encoding: 8253 8253 133
Width: 566
Flags: W
HStem: -10 146.449<184.026 291.973> 292 100.049<229.613 350.107> 628.229 110.764<128.135 371.906>
VStem: 165.387 145.227<8.79685 117.652> 180 118<545.567 791.008> 196 86<230 475.441> 398.096 123.774<436.261 574.19>
LayerCount: 2
Fore
SplineSet
196 230 m 1xe6
 180 791.0078125 l 1
 298 791.0078125 l 1xea
 282 230 l 1
 196 230 l 1xe6
165.38671875 63.224609375 m 0xf2
 165.38671875 107.584937143 194.008990842 136.44921875 237.999023438 136.44921875 c 0
 281.990077228 136.44921875 310.61328125 107.584937143 310.61328125 63.224609375 c 0
 310.61328125 18.8635145521 281.990077228 -10 237.999023438 -10 c 0
 194.008990842 -10 165.38671875 18.8635145521 165.38671875 63.224609375 c 0xf2
212.422851562 305 m 1
 224.15625 396.46875 l 1
 224.15625 396.46875 235.790985605 392.048828125 250.3984375 392.048828125 c 0
 350.297008651 392.048828125 398.095703125 430.833698328 398.095703125 503.145507812 c 0
 398.095703125 589.895139329 334.751832796 628.228515625 229.89453125 628.228515625 c 0
 139.454530353 628.228515625 62.923828125 573.958007812 62.923828125 573.958007812 c 5
 20.2412109375 685.311523438 l 1
 20.2412109375 685.311523438 101.0703125 738.9921875 229.89453125 738.9921875 c 0
 405.013031797 738.9921875 521.870117188 661.327703299 521.870117188 505.010742188 c 0
 521.870117188 357.985517121 392.11075974 292 278 292 c 0
 235.061654569 292 212.422851562 305 212.422851562 305 c 1
EndSplineSet
Validated: 5
EndChar

StartChar: lira
Encoding: 8356 8356 134
Width: 553
Flags: W
HStem: 0 109<180.319 523> 215 86<60 424> 345 86<60 424> 627.621 111.841<240.649 449.717>
VStem: 69.3516 133.979<442.347 592.296> 146.824 117.657<210.419 343.129>
LayerCount: 2
Fore
SplineSet
523 0 m 5xf4
 30 0 l 5
 30 105 l 5
 30 105 146.82421875 180.513671875 146.82421875 289.379882812 c 4xf4
 146.82421875 391.588284089 69.3515625 418.16779209 69.3515625 547.185546875 c 4
 69.3515625 671.398535433 169.706890819 739.461914062 312.80859375 739.461914062 c 4
 442.1704466 739.461914062 499.95703125 703.405273438 499.95703125 703.405273438 c 5
 474.9375 596.024414062 l 5
 474.9375 596.024414062 409.569604874 627.62109375 337.80859375 627.62109375 c 4
 263.337584747 627.62109375 203.330078125 610.8340348 203.330078125 526.024414062 c 4xf8
 203.330078125 434.738865167 264.481445312 404.685032985 264.481445312 290.158203125 c 4
 264.481445312 177.904192501 180.319335938 109 180.319335938 109 c 5
 523 109 l 5
 523 0 l 5xf4
424 215 m 1
 60 215 l 1
 60 301 l 1
 424 301 l 1
 424 215 l 1
424 345 m 1
 60 345 l 1
 60 431 l 1
 424 431 l 1
 424 345 l 1
EndSplineSet
Validated: 5
EndChar

StartChar: uni20B5
Encoding: 8373 8373 135
Width: 623
Flags: W
HStem: -9.99805 79.4678<325 424> 655 84.1211<325 424>
VStem: 45 134.849<228.218 500.905> 325 99<-105 69.4697 655 829.47>
LayerCount: 2
Fore
SplineSet
45 364.561523438 m 0
 45 591.206054688 168.470830174 739.12109375 385.888671875 739.12109375 c 0
 537.397841668 739.12109375 599.681640625 672.891601562 599.681640625 672.891601562 c 5
 548.35546875 575.138671875 l 5
 548.35546875 575.138671875 497.005126518 626.659179688 392.888671875 626.659179688 c 0
 243.653320313 626.659179688 179.848632812 521.72930473 179.848632812 364.561523438 c 0
 179.848632812 207.393742143 243.653320313 102.463867188 392.888671875 102.463867188 c 0
 506.071899996 102.463867188 566.018554688 148.595703125 566.018554688 148.595703125 c 5
 602.827148438 44.595703125 l 5
 602.827148438 44.595703125 536.561329272 -9.998046875 385.888671875 -9.998046875 c 0
 168.470830174 -9.998046875 45 137.916992188 45 364.561523438 c 0
325 -105 m 1
 325 69.4697265625 l 1
 424 69.4697265625 l 1
 424 -105 l 1
 325 -105 l 1
325 655 m 1
 325 829.469726562 l 1
 424 829.469726562 l 1
 424 655 l 1
 325 655 l 1
EndSplineSet
Validated: 5
EndChar

StartChar: uni20B2
Encoding: 8370 8370 136
Width: 739
Flags: W
HStem: -9.99805 79.4678<325 424> 297 107<386 506.019 620.827 704> 297 27.5957<506.019 620.827> 655 84.1211<325 424>
VStem: 45 134.849<218.434 500.127> 325 99<-105 69.4697 655 829.47> 526.481 120.001<156.263 296.457>
LayerCount: 2
Fore
SplineSet
325 -105 m 1x9e
 325 69.4697265625 l 1
 424 69.4697265625 l 1
 424 -105 l 1
 325 -105 l 1x9e
325 655 m 1
 325 829.469726562 l 1
 424 829.469726562 l 1
 424 655 l 1
 325 655 l 1
704 297 m 5xde
 386 297 l 1
 386 404 l 1
 704 404 l 5
 704 297 l 5xde
45 364.561523438 m 0
 45 591.206054688 171.337053405 739.12109375 378.888671875 739.12109375 c 0
 528.271571972 739.12109375 589.681640625 672.891601562 589.681640625 672.891601562 c 1
 547.35546875 572.138671875 l 1
 547.35546875 572.138671875 495.01425548 623.659179688 388.888671875 623.659179688 c 0
 242.454902478 623.659179688 179.848632812 519.93034418 179.848632812 364.561523438 c 0
 179.848632812 207.393742143 230.775292341 102.463867188 369.888671875 102.463867188 c 0
 481.72451916 102.463867188 526.481445312 154.25907447 526.481445312 232 c 4
 526.481445312 296.761712583 506.018554688 324.595703125 506.018554688 324.595703125 c 5
 620.827148438 324.595703125 l 5xbe
 620.827148438 324.595703125 646.482421875 300.565222287 646.482421875 222 c 4
 646.482421875 93.0859042083 557.464824625 -9.998046875 369.888671875 -9.998046875 c 0
 162.950675551 -9.998046875 45 137.916992188 45 364.561523438 c 0
EndSplineSet
Validated: 5
EndChar

StartChar: uni20BA
Encoding: 8378 8378 137
Width: 648
Flags: W
HStem: 0 111<234 391.376> 711.008 20G<105 234>
VStem: 105 129<111 731.008>
LayerCount: 2
Fore
SplineSet
364 350 m 5
 40 250 l 1
 40 336 l 1
 364 436 l 5
 364 350 l 5
364 480 m 5
 40 380 l 1
 40 466 l 1
 364 566 l 5
 364 480 l 5
234 111 m 1
 300 111 l 2
 491.739130435 111 496 315 496 315 c 1
 619 298 l 1
 619 298 610.299167385 -3.76088049592e-14 300 0 c 2
 105 0 l 1
 105 731.0078125 l 1
 234 731.0078125 l 1
 234 111 l 1
EndSplineSet
Validated: 5
EndChar

StartChar: fraction
Encoding: 8260 8260 138
Width: 304
Flags: W
HStem: 0 21G<-100 21.175> 711.008 20G<332.825 454>
LayerCount: 2
Fore
SplineSet
-100 0 m 1
 345 731.0078125 l 1
 454 731.0078125 l 5
 9 0 l 5
 -100 0 l 1
EndSplineSet
Validated: 1
EndChar

StartChar: endash
Encoding: 8211 8211 139
Width: 570
Flags: W
HStem: 228 103<40 530>
LayerCount: 2
Fore
SplineSet
40 228 m 1
 40 331 l 1
 530 331 l 5
 530 228 l 5
 40 228 l 1
EndSplineSet
Validated: 1
EndChar

StartChar: emdash
Encoding: 8212 8212 140
Width: 820
Flags: W
HStem: 228 103<20 800>
LayerCount: 2
Fore
SplineSet
20 228 m 1
 20 331 l 1
 800 331 l 5
 800 228 l 5
 20 228 l 1
EndSplineSet
Validated: 1
EndChar

StartChar: Euro
Encoding: 8364 8364 141
Width: 683
Flags: W
HStem: -9.99805 112.462<358.357 581.288> 260 86<40 434.957> 390 86<40 457.879> 626.659 112.462<351.306 558.65>
VStem: 105 134.849<294.062 385.945>
LayerCount: 2
Fore
SplineSet
434.95703125 260 m 1
 40 260 l 1
 40 346 l 1
 450.12109375 346 l 1
 434.95703125 260 l 1
457.87890625 390 m 1
 40 390 l 1
 40 476 l 1
 473.04296875 476 l 1
 457.87890625 390 l 1
105 364.561523438 m 0
 105 591.206054688 228.470747889 739.12109375 445.888671875 739.12109375 c 0
 597.397460938 739.12109375 659.681640625 672.891601562 659.681640625 672.891601562 c 1
 608.35546875 575.138671875 l 5
 608.35546875 575.138671875 557.004605601 626.659179688 452.888671875 626.659179688 c 0
 303.652978336 626.659179688 239.848632812 521.72930473 239.848632812 364.561523438 c 0
 239.848632812 207.393742143 306.647924536 102.463867188 462.888671875 102.463867188 c 0
 569.534179688 102.463867188 626.018554688 148.595703125 626.018554688 148.595703125 c 1
 662.827148438 44.595703125 l 1
 662.827148438 44.595703125 596.561523438 -9.998046875 445.888671875 -9.998046875 c 0
 228.470747889 -9.998046875 105 137.916992188 105 364.561523438 c 0
EndSplineSet
Validated: 5
EndChar

StartChar: uni20AD
Encoding: 8365 8365 142
Width: 665
Flags: W
HStem: 0 21G<101 230 466.444 645> 305 101<20 604> 711.008 20G<101 230 464.637 635>
VStem: 101 129<0 311 401 731.008> 211 19<311 401>
LayerCount: 2
Fore
SplineSet
604 305 m 5xe0
 20 305 l 1
 20 406 l 1
 604 406 l 5
 604 305 l 5xe0
484 0 m 5
 211 311 l 1
 211 401 l 1xe8
 481 731.0078125 l 5
 635 731.0078125 l 5
 321 372 l 1
 645 0 l 5
 484 0 l 5
101 0 m 1xf0
 101 731.0078125 l 1
 230 731.0078125 l 1
 230 0 l 1
 101 0 l 1xf0
EndSplineSet
Validated: 5
EndChar

StartChar: uni20B9
Encoding: 8377 8377 143
Width: 574
Flags: W
HStem: 0 21G<356.545 495> 272 111.352<40 269.289> 450 86<40 534> 618.649 112.358<40 274.448>
VStem: 325.929 129.849<398.396 573.482>
LayerCount: 2
Fore
SplineSet
144 272 m 2
 40 272 l 5
 40 383.3515625 l 5
 166.888671875 383.461914062 l 2
 257.701511593 383.535986928 325.928710938 404.337776861 325.928710938 499.561523438 c 0
 325.928710938 596.298717118 257.596031576 618.477551065 167.888671875 618.545898438 c 2
 40 618.649414062 l 5
 40 731.0078125 l 5
 183.888671875 731.0078125 l 2
 326.745750968 731.0078125 455.77734375 669.334960938 455.77734375 504.561523438 c 0
 455.77734375 368.825734629 335.688476562 331.276367188 335.688476562 331.276367188 c 1
 335.688476562 331.276367188 404.260100763 314.949648535 432.786132812 215.938476562 c 2
 495 0 l 1
 362 0 l 1
 317 165 l 2
 290.703122382 261.421884601 262.176056339 272 144 272 c 2
534 450 m 1
 40 450 l 5
 40 536 l 5
 534 536 l 1
 534 450 l 1
EndSplineSet
EndChar

StartChar: uni20B4
Encoding: 8372 8372 144
Width: 677
Flags: W
HStem: -10 112.462<256.983 494.259> 255 86<40 637> 385 86<40 637> 625.659 113.462<192.69 407.694>
VStem: 90 123.182<140.791 253.813> 447.581 129.312<474.503 587.146>
LayerCount: 2
Fore
SplineSet
637 255 m 5
 40 255 l 1
 40 341 l 1
 637 341 l 5
 637 255 l 5
637 385 m 5
 40 385 l 1
 40 471 l 1
 637 471 l 5
 637 385 l 5
355.543945312 309.65625 m 0
 231.239827924 277.256703669 213.181640625 247.01228439 213.181640625 194 c 0
 213.181640625 133.600653795 265.638881195 102.461914062 375.823242188 102.461914062 c 0
 475.361437972 102.461914062 556.546875 151.982421875 556.546875 151.982421875 c 1
 593.703125 42.2294921875 l 1
 593.703125 42.2294921875 496.331054688 -10 342.71484375 -10 c 0
 177.984148816 -10 90 72.4985703477 90 205 c 0
 90 316.03827698 144 373 311.522460938 423.081054688 c 0
 417.929843571 454.891678284 447.581054688 474.634237992 447.581054688 533 c 0
 447.581054688 590.192378833 402.470475566 625.659179688 302.15625 625.659179688 c 0
 211.591837392 625.659179688 150.1484375 583.138671875 150.1484375 583.138671875 c 1
 107.774414062 688.891601562 l 1
 107.774414062 688.891601562 176.326633524 739.12109375 317.286132812 739.12109375 c 0
 478.662705697 739.12109375 576.892578125 653.682052869 576.892578125 521 c 0
 576.892578125 415.904575817 518 352 355.543945312 309.65625 c 0
EndSplineSet
EndChar

StartChar: colonmonetary
Encoding: 8353 8353 145
Width: 623
Flags: W
HStem: -9.99805 79.4678<173.378 262.378 323.378 412.378> 626.659 112.462<273.809 425.665> 655 84.1211<276.622 365.622 426.622 515.622>
VStem: 45 134.849<235.452 500.905>
LayerCount: 2
Fore
SplineSet
292.614257812 -105 m 1x90
 323.377929688 69.4697265625 l 1
 412.377929688 69.4697265625 l 1
 381.614257812 -105 l 1
 292.614257812 -105 l 1x90
426.622070312 655 m 1xb0
 457.385742188 829.469726562 l 1
 546.385742188 829.469726562 l 1
 515.622070312 655 l 1
 426.622070312 655 l 1xb0
45 364.561523438 m 0
 45 591.206054688 168.470830174 739.12109375 385.888671875 739.12109375 c 0
 537.397841668 739.12109375 599.681640625 672.891601562 599.681640625 672.891601562 c 5
 548.35546875 575.138671875 l 5
 548.35546875 575.138671875 497.005126518 626.659179688 392.888671875 626.659179688 c 0xd0
 243.653320313 626.659179688 179.848632812 521.72930473 179.848632812 364.561523438 c 0
 179.848632812 207.393742143 246.648282564 102.463867188 402.888671875 102.463867188 c 0
 509.534424993 102.463867188 566.018554688 148.595703125 566.018554688 148.595703125 c 5
 602.827148438 44.595703125 l 5
 602.827148438 44.595703125 536.561329272 -9.998046875 385.888671875 -9.998046875 c 0
 168.470830174 -9.998046875 45 137.916992188 45 364.561523438 c 0
142.614257812 -105 m 1
 173.377929688 69.4697265625 l 1
 262.377929688 69.4697265625 l 1
 231.614257812 -105 l 1
 142.614257812 -105 l 1
276.622070312 655 m 1xb0
 307.385742188 829.469726562 l 1
 396.385742188 829.469726562 l 1
 365.622070312 655 l 1
 276.622070312 655 l 1xb0
EndSplineSet
Validated: 5
EndChar

StartChar: zero.inferior
Encoding: 8320 8320 148
Width: 455
Flags: W
HStem: -358 87.5<169.904 286.096> 55.5 87.5<169.904 286.096>
VStem: 30 95.5<-218.704 3.01732> 330.5 95.5<-218.704 3.01732>
LayerCount: 2
Fore
SplineSet
125.5 -108 m 0
 125.5 -206 156 -270.5 228 -270.5 c 0
 300 -270.5 330.5 -206 330.5 -108 c 0
 330.5 -10 300 55.5 228 55.5 c 0
 156 55.5 125.5 -10 125.5 -108 c 0
30 -108 m 0
 30 44 98.5 143 228 143 c 0
 357.5 143 426 44 426 -108 c 0
 426 -260 357.5 -358 228 -358 c 0
 98.5 -358 30 -260 30 -108 c 0
EndSplineSet
Validated: 1
EndChar

StartChar: one.inferior
Encoding: 8321 8321 149
Width: 277
Flags: W
VStem: 134.5 99.5<-350 33>
LayerCount: 2
Fore
SplineSet
234 137 m 1
 234 -350 l 1
 134.5 -350 l 1
 134.5 33 l 1
 46 -15 l 1
 13.5 57 l 1
 145.5 137 l 1
 234 137 l 1
EndSplineSet
Validated: 1
EndChar

StartChar: two.inferior
Encoding: 8322 8322 150
Width: 404
Flags: W
HStem: -350 85<140 379> 55 88<103.289 259.833>
VStem: 276.5 97.5<-58.1525 38.2619>
LayerCount: 2
Fore
SplineSet
276.5 -11 m 0
 276.5 28.5 253.5 55 188.5 55 c 0
 124.5 55 79 19 79 19 c 1
 45 101 l 1
 45 101 104 143 191 143 c 0
 305 143 374 92 374 -9 c 0
 374 -97.5 321 -135 233 -181 c 0
 144.5 -228 140.5 -255.5 140 -265 c 1
 379 -265 l 1
 379 -350 l 1
 35.5 -350 l 1
 35.5 -314 l 2
 35.5 -210.5 98.5 -153.5 209.5 -92.5 c 0
 254.5 -68 276.5 -42 276.5 -11 c 0
EndSplineSet
Validated: 1
EndChar

StartChar: three.inferior
Encoding: 8323 8323 151
Width: 388
Flags: W
HStem: -358 85.5<64.724 238.835> -141.5 79<111 237.545> 54.5 88.5<70.9226 235.319>
VStem: 248.5 100<-50.5434 40.4407> 258 101<-254.007 -159.583>
LayerCount: 2
Fore
SplineSet
166 -62.5 m 2xe8
 228 -62.5 248.5 -43 248.5 -4.5 c 0
 248.5 29 229 54.5 164.5 54.5 c 0
 97.5 54.5 56 24.5 56 24.5 c 1
 27.5 107 l 1
 27.5 107 79.5 143 169 143 c 0
 280 143 348.5 95 348.5 5 c 0xf0
 348.5 -76 276 -100 276 -100 c 1
 276 -100 359 -123 359 -214 c 0
 359 -317 283 -358 168 -358 c 0
 71.5 -358 13.5 -323 13.5 -323 c 1
 41 -238 l 1
 41 -238 87.5 -272.5 161 -272.5 c 0
 228 -272.5 258 -248.5 258 -206.5 c 0
 258 -162.5 226.5 -141.5 166.5 -141.5 c 2
 111 -141.5 l 1
 111 -62.5 l 1
 166 -62.5 l 2xe8
EndSplineSet
Validated: 1
EndChar

StartChar: four.inferior
Encoding: 8324 8324 152
Width: 439
Flags: W
HStem: -235 81<135 412.5>
VStem: 248.5 95.5<-350 -2>
LayerCount: 2
Fore
SplineSet
344 137 m 1
 344 -350 l 1
 248.5 -350 l 1
 248.5 -2 l 1
 135 -154 l 1
 412.5 -154 l 1
 412.5 -235 l 1
 46.5 -235 l 1
 27.5 -163.5 l 1
 250 137 l 1
 344 137 l 1
EndSplineSet
Validated: 5
EndChar

StartChar: five.inferior
Encoding: 8325 8325 153
Width: 408
Flags: W
HStem: -357 87.5<68.6579 254.933> -107.5 78.5<139.778 260.425> 53 84<149 342.5>
VStem: 281 98<-244.333 -128.531>
LayerCount: 2
Fore
SplineSet
183.5 -357 m 0
 79 -357 17 -323 17 -323 c 1
 44 -236.5 l 1
 44 -236.5 101.5 -269.5 175.5 -269.5 c 0
 252 -269.5 281 -238 281 -186.5 c 0
 281 -137 254.5 -107.5 200.5 -107.5 c 0
 143.5 -107.5 124 -144.5 124 -144.5 c 1
 46 -125 l 1
 71.5 137 l 1
 342.5 137 l 1
 342.5 53 l 1
 149 53 l 1
 138.5 -52 l 1
 138.5 -52 159 -29 224.5 -29 c 0
 324.5 -29 379 -87 379 -184 c 0
 379 -291.5 313 -357 183.5 -357 c 0
EndSplineSet
Validated: 1
EndChar

StartChar: six.inferior
Encoding: 8326 8326 154
Width: 427
Flags: W
HStem: -358 83<158.49 282.663> -110 76<157.178 283.548> 57.5 85.5<170.814 337.297>
VStem: 30 105.5<-246.278 -42.3375> 306 91.5<-251.48 -133.169>
LayerCount: 2
Fore
SplineSet
135.5 -192 m 0
 135.5 -239.5 160.5 -275 220.5 -275 c 0
 281 -275 306 -239.5 306 -192 c 0
 306 -144.5 281 -110 220.5 -110 c 0
 160.5 -110 135.5 -144.5 135.5 -192 c 0
122.5 -73.5 m 1
 122.5 -73.5 149.5 -34 234.5 -34 c 0
 334 -34 397.5 -98 397.5 -191 c 0
 397.5 -298 330 -358 221 -358 c 0
 101 -358 30 -285 30 -107 c 0
 30 54 105.5 143 240 143 c 0
 336.5 143 385 102 385 102 c 1
 354 25.5 l 1
 354 25.5 315.5 57.5 245.5 57.5 c 0
 167 57.5 127 11.5 122.5 -73.5 c 1
EndSplineSet
Validated: 1
EndChar

StartChar: seven.inferior
Encoding: 8327 8327 155
Width: 402
Flags: W
HStem: 52 85<33.5 259.5>
VStem: 112.5 100<-350 -213.664>
LayerCount: 2
Fore
SplineSet
212.5 -350 m 1
 112.5 -350 l 1
 120 -128.5 259.5 52 259.5 52 c 1
 33.5 52 l 1
 33.5 137 l 1
 369.5 137 l 1
 369.5 67 l 1
 369.5 67 214.5 -113 212.5 -350 c 1
EndSplineSet
Validated: 1
EndChar

StartChar: eight.inferior
Encoding: 8328 8328 156
Width: 440
Flags: W
HStem: -358 80.5<146.351 294.478> -133.5 75<173.5 269> -111 36.5<112 331> 61.5 81.5<158.292 283.71>
VStem: 30 94.5<-255.582 -155.835> 53.5 91<-42.1514 45.4885> 299 91<-41.6719 45.015> 316 94.5<-255.582 -155.835>
LayerCount: 2
Fore
SplineSet
220 -58.5 m 0xd6
 269 -58.5 299 -35.5 299 1.5 c 0
 299 39.5 270 61.5 220 61.5 c 0
 172 61.5 144.5 39.5 144.5 1.5 c 0
 144.5 -35.5 173.5 -58.5 220 -58.5 c 0xd6
220 143 m 0
 326 143 390 93 390 12 c 0
 390 -68 331 -111 220 -111 c 0xb6
 112 -111 53.5 -68 53.5 12 c 0
 53.5 93 116 143 220 143 c 0
220.5 -277.5 m 0
 282.5 -277.5 316 -251.5 316 -204.5 c 0
 316 -161 282.5 -133.5 220.5 -133.5 c 0
 158.5 -133.5 124.5 -161 124.5 -204.5 c 0xd9
 124.5 -251.5 158.5 -277.5 220.5 -277.5 c 0
220.5 -74.5 m 0xb9
 343 -74.5 410.5 -124 410.5 -212 c 0
 410.5 -301 336 -358 220.5 -358 c 0
 105 -358 30 -301 30 -212 c 0
 30 -124 98 -74.5 220.5 -74.5 c 0xb9
EndSplineSet
Validated: 5
EndChar

StartChar: nine.inferior
Encoding: 8329 8329 157
Width: 426
Flags: W
HStem: -358 85.5<87.9716 252.6> -182 76<145.016 270.611> 59 84<144.552 269.938>
VStem: 30 93<-83.8796 36.4416> 293 104<-169.954 31.0515>
LayerCount: 2
Fore
SplineSet
293 -23 m 0
 293 24.5 268 59 208 59 c 0
 147.5 59 123 24.5 123 -23 c 0
 123 -70.5 147.5 -106 208 -106 c 0
 268 -106 293 -70.5 293 -23 c 0
301.5 -141 m 1
 301.5 -141 274.5 -182 192.5 -182 c 0
 93 -182 30 -117 30 -23.5 c 0
 30 83.5 97 143 206 143 c 0
 326 143 397 70 397 -108 c 0
 397 -269 321.5 -358 187 -358 c 0
 90.5 -358 42 -317 42 -317 c 1
 70.5 -240 l 1
 70.5 -240 109.5 -272.5 181.5 -272.5 c 0
 258 -272.5 297 -226 301.5 -141 c 1
EndSplineSet
Validated: 1
EndChar

StartChar: zero.superior
Encoding: 8304 8304 158
Width: 455
Flags: W
HStem: 342 87.5<169.904 286.181> 755.5 87.5<169.904 286.181>
VStem: 30 95.5<481.296 703.017> 331 95.5<481.296 703.017>
LayerCount: 2
Fore
SplineSet
125.5 592 m 0
 125.5 494 156 429.5 228 429.5 c 0
 300 429.5 331 494 331 592 c 0
 331 690 300 755.5 228 755.5 c 0
 156 755.5 125.5 690 125.5 592 c 0
30 592 m 0
 30 744 98.5 843 228 843 c 0
 357.5 843 426.5 744 426.5 592 c 0
 426.5 440 357.5 342 228 342 c 0
 98.5 342 30 440 30 592 c 0
EndSplineSet
Validated: 1
EndChar

StartChar: one.superior
Encoding: 185 185 159
Width: 277
Flags: W
VStem: 134.5 99.5<350 733>
LayerCount: 2
Fore
SplineSet
234 837 m 1
 234 350 l 1
 134.5 350 l 1
 134.5 733 l 1
 46 685 l 1
 13.5 757 l 1
 145.5 837 l 1
 234 837 l 1
EndSplineSet
Validated: 1
EndChar

StartChar: two.superior
Encoding: 178 178 160
Width: 404
Flags: W
HStem: 350 85<140 379> 755 88<103.391 259.941>
VStem: 276.5 97.5<639.596 738.262>
LayerCount: 2
Fore
SplineSet
276.5 689 m 0
 276.5 728.5 254 755 189 755 c 0
 125 755 79 719 79 719 c 1
 45 800.5 l 1
 45 800.5 104 843 191 843 c 0
 305 843 374 792 374 691 c 0
 374 602.5 321 565 233 519 c 0
 144.5 472 140.5 444.5 140 435 c 1
 379 435 l 1
 379 350 l 1
 35.5 350 l 1
 35.5 386 l 2
 35.5 489.5 99.5 546.5 210 607.5 c 0
 255 632 276.5 658 276.5 689 c 0
EndSplineSet
Validated: 1
EndChar

StartChar: three.superior
Encoding: 179 179 161
Width: 388
Flags: W
HStem: 342 85.5<64.724 238.835> 558.5 79<111 237.545> 754.5 88.5<71.5602 235.319>
VStem: 248.5 100<649.457 740.441> 258 101<446.23 540.632>
LayerCount: 2
Fore
SplineSet
166 637.5 m 2xe8
 228 637.5 248.5 657 248.5 695.5 c 0
 248.5 729 229 754.5 164.5 754.5 c 0
 97.5 754.5 56 724 56 724 c 1
 27.5 806.5 l 1
 27.5 806.5 79.5 843 169 843 c 0
 280 843 348.5 795 348.5 705 c 0xf0
 348.5 624 276 600 276 600 c 1
 276 600 359 577.5 359 486.5 c 0
 359 383.5 283 342 168 342 c 0
 71.5 342 13.5 376 13.5 376 c 1
 41 462 l 1
 41 462 87.5 427.5 161 427.5 c 0
 228 427.5 258 451.5 258 493.5 c 0
 258 537.5 226.5 558.5 166.5 558.5 c 2
 111 558.5 l 1
 111 637.5 l 1
 166 637.5 l 2xe8
EndSplineSet
Validated: 1
EndChar

StartChar: four.superior
Encoding: 8308 8308 162
Width: 439
Flags: W
HStem: 465 81<135 412.5>
VStem: 248.5 95.5<350 696.5>
LayerCount: 2
Fore
SplineSet
344 837 m 1
 344 350 l 1
 248.5 350 l 1
 248.5 696.5 l 1
 135 546 l 1
 412.5 546 l 1
 412.5 465 l 1
 46.5 465 l 1
 27.5 536.5 l 1
 250 837 l 1
 344 837 l 1
EndSplineSet
Validated: 5
EndChar

StartChar: five.superior
Encoding: 8309 8309 163
Width: 408
Flags: W
HStem: 343 87.5<68.6579 254.933> 592.5 78.5<139.778 260.425> 753 84<149 342.5>
VStem: 281 98<455.667 571.469>
LayerCount: 2
Fore
SplineSet
183.5 343 m 0
 79 343 17 377 17 377 c 1
 44 463.5 l 1
 44 463.5 101.5 430.5 175.5 430.5 c 0
 252 430.5 281 462 281 513.5 c 0
 281 563 254.5 592.5 200.5 592.5 c 0
 143.5 592.5 124 555.5 124 555.5 c 1
 46 575 l 1
 71.5 837 l 1
 342.5 837 l 1
 342.5 753 l 1
 149 753 l 1
 138.5 648 l 1
 138.5 648 159 671 224.5 671 c 0
 324.5 671 379 613 379 516 c 0
 379 408.5 313 343 183.5 343 c 0
EndSplineSet
Validated: 1
EndChar

StartChar: six.superior
Encoding: 8310 8310 164
Width: 427
Flags: W
HStem: 342 83<158.49 282.663> 590 76<157.178 283.548> 757.5 85.5<170.814 336.63>
VStem: 30 105.5<453.722 657.662> 306 91.5<448.52 566.831>
LayerCount: 2
Fore
SplineSet
135.5 508 m 0
 135.5 460.5 160.5 425 220.5 425 c 0
 281 425 306 460.5 306 508 c 0
 306 555.5 281 590 220.5 590 c 0
 160.5 590 135.5 555.5 135.5 508 c 0
122.5 625.5 m 1
 122.5 625.5 149.5 666 234.5 666 c 0
 334 666 397.5 602 397.5 509 c 0
 397.5 402 330 342 221 342 c 0
 101 342 30 415 30 593 c 0
 30 754 105.5 843 240 843 c 0
 336.5 843 385 802 385 802 c 1
 354 725 l 1
 354 725 315.5 757.5 245.5 757.5 c 0
 167 757.5 127 711 122.5 625.5 c 1
EndSplineSet
Validated: 1
EndChar

StartChar: seven.superior
Encoding: 8311 8311 165
Width: 402
Flags: W
HStem: 752 85<33.5 259.5>
VStem: 112.5 100<350 486.282>
LayerCount: 2
Fore
SplineSet
212.5 350 m 1
 112.5 350 l 1
 120 571.5 259.5 752 259.5 752 c 1
 33.5 752 l 1
 33.5 837 l 1
 369.5 837 l 1
 369.5 766.5 l 1
 369.5 766.5 214.5 587 212.5 350 c 1
EndSplineSet
Validated: 1
EndChar

StartChar: eight.superior
Encoding: 8312 8312 166
Width: 443
Flags: W
HStem: 342 80.5<147.146 296.683> 566.5 75<174 271.5> 589 36.5<112.5 333.5> 761.5 81.5<158.961 286.118>
VStem: 30 94.5<445.041 543.548> 53.5 91<657.849 745.488> 302 91<658.328 745.015> 319 94.5<445.041 543.548>
LayerCount: 2
Fore
SplineSet
221.5 641.5 m 0xd6
 271.5 641.5 302 664.5 302 701.5 c 0
 302 739.5 272.5 761.5 221.5 761.5 c 0
 173 761.5 144.5 739.5 144.5 701.5 c 0
 144.5 664.5 174 641.5 221.5 641.5 c 0xd6
221.5 843 m 0
 328.5 843 393 793 393 712 c 0
 393 632 333.5 589 221.5 589 c 0xb6
 112.5 589 53.5 632 53.5 712 c 0
 53.5 793 116.5 843 221.5 843 c 0
222 422.5 m 0
 284.5 422.5 319 448.5 319 495.5 c 0
 319 539 284.5 566.5 222 566.5 c 0
 159.5 566.5 124.5 539 124.5 495.5 c 0xd9
 124.5 448.5 159.5 422.5 222 422.5 c 0
222 625.5 m 0xb9
 345.5 625.5 413.5 576 413.5 488 c 0
 413.5 399 338 342 222 342 c 0
 106 342 30 399 30 488 c 0
 30 576 98.5 625.5 222 625.5 c 0xb9
EndSplineSet
Validated: 5
EndChar

StartChar: nine.superior
Encoding: 8313 8313 167
Width: 426
Flags: W
HStem: 342 85.5<87.9716 252.6> 518 76<145.016 270.611> 759 84<144.552 269.938>
VStem: 30 93<616.12 736.442> 293 104<530.046 731.051>
LayerCount: 2
Fore
SplineSet
293 677 m 0
 293 724.5 268 759 208 759 c 0
 147.5 759 123 724.5 123 677 c 0
 123 629.5 147.5 594 208 594 c 0
 268 594 293 629.5 293 677 c 0
301.5 559.5 m 1
 301.5 559.5 274.5 518 192.5 518 c 0
 93 518 30 583 30 676.5 c 0
 30 783.5 97 843 206 843 c 0
 326 843 397 770 397 592 c 0
 397 431 321.5 342 187 342 c 0
 90.5 342 42 383 42 383 c 1
 70.5 460 l 1
 70.5 460 109.5 427.5 181.5 427.5 c 0
 258 427.5 297 474.5 301.5 559.5 c 1
EndSplineSet
Validated: 1
EndChar

StartChar: circumflex
Encoding: 710 710 168
Width: 362
Flags: W
HStem: 516 215.008
VStem: 21 320
LayerCount: 2
Fore
SplineSet
271 516 m 1
 181 627.432617188 l 5
 91 516 l 1
 21 546 l 1
 131 731.0078125 l 1
 231 731.0078125 l 1
 341 546 l 1
 271 516 l 1
EndSplineSet
Validated: 1
EndChar

StartChar: caron
Encoding: 711 711 169
Width: 362
Flags: W
HStem: 526 215.008
VStem: 21 320
LayerCount: 2
Fore
SplineSet
91 741.0078125 m 1
 181 629.575195312 l 5
 271 741.0078125 l 1
 341 711.0078125 l 1
 231 526 l 1
 131 526 l 1
 21 711.0078125 l 1
 91 741.0078125 l 1
EndSplineSet
Validated: 1
EndChar

StartChar: breve
Encoding: 728 728 170
Width: 322
VWidth: 999
Flags: W
HStem: 598.937 86.9375<97.6021 225.218> 715 20G<41.021 74.9434 247.877 281.799>
VStem: 5 312.82
LayerCount: 2
Fore
SplineSet
161.41015625 598.936523438 m 4
 51.853515625 598.936523438 5 693.762695312 5 693.762695312 c 1
 74.943359375 735 l 1
 74.943359375 735 94.0546875 685.874023438 161.41015625 685.874023438 c 4
 228.765625 685.874023438 247.876953125 735 247.876953125 735 c 1
 317.8203125 693.762695312 l 1
 317.8203125 693.762695312 270.966796875 598.936523438 161.41015625 598.936523438 c 4
EndSplineSet
Validated: 1
EndChar

StartChar: dotaccent
Encoding: 729 729 171
Width: 248
Flags: W
HStem: 592.543 146.449<70.5263 178.473>
VStem: 51.8867 145.227<611.34 720.195>
LayerCount: 2
Fore
SplineSet
51.88671875 665.767578125 m 0
 51.88671875 710.128230376 80.5086376795 738.9921875 124.499023438 738.9921875 c 0
 168.490423077 738.9921875 197.11328125 710.128230376 197.11328125 665.767578125 c 0
 197.11328125 621.406124431 168.490423077 592.54296875 124.499023438 592.54296875 c 0
 80.5086376793 592.54296875 51.88671875 621.406124431 51.88671875 665.767578125 c 0
EndSplineSet
Validated: 1
EndChar

StartChar: tilde
Encoding: 732 732 172
Width: 371
VWidth: 999
Flags: W
HStem: 606.364 96.9375<198.715 314.899> 654.934 96.0684<47.269 172.791> 712.364 20G<322.457 334.457>
LayerCount: 2
Fore
SplineSet
366.400390625 659.126953125 m 1xa0
 366.400390625 659.126953125 325.21667094 606.364257812 261.725585938 606.364257812 c 0xa0
 184.025828555 606.364257812 168.146367281 654.93359375 111.413085938 654.93359375 c 0
 75.646778061 654.93359375 46.46875 621.395507812 46.46875 621.395507812 c 1
 5 708.876953125 l 1
 5 708.876953125 50.4740803274 751.001953125 109.67578125 751.001953125 c 4x40
 186.14208399 751.001953125 208.187692034 703.301757812 259.98828125 703.301757812 c 0
 301.312897759 703.301757812 322.45703125 732.364257812 322.45703125 732.364257812 c 5
 366.400390625 659.126953125 l 1xa0
EndSplineSet
Validated: 1
EndChar

StartChar: hungarumlaut
Encoding: 733 733 173
Width: 412
Flags: W
HStem: 536 205.008
LayerCount: 2
Fore
SplineSet
275 536 m 1
 207 556 l 5
 285 741.0078125 l 1
 391 711.0078125 l 1
 275 536 l 1
85 536 m 1
 17 556 l 5
 95 741.0078125 l 1
 201 711.0078125 l 1
 85 536 l 1
EndSplineSet
Validated: 1
EndChar

StartChar: multiply
Encoding: 215 215 174
Width: 450
Flags: W
LayerCount: 2
Fore
SplineSet
418.040039062 486.944335938 m 1
 96.0556640625 164.959960938 l 1
 31.9599609375 229.055664062 l 5
 353.944335938 551.040039062 l 1
 418.040039062 486.944335938 l 1
353.944335938 164.959960938 m 1
 31.9599609375 486.944335938 l 1
 96.0556640625 551.040039062 l 1
 418.040039062 229.055664062 l 5
 353.944335938 164.959960938 l 1
EndSplineSet
Validated: 5
EndChar

StartChar: divide
Encoding: 247 247 175
Width: 450
Flags: W
HStem: 133.496 127.804<175.019 274.981> 310 96<30 420> 454.7 127.804<175.019 274.981>
VStem: 161.648 126.703<146.983 247.812 468.187 569.017>
CounterMasks: 1 e0
LayerCount: 2
Fore
SplineSet
420 310 m 5
 30 310 l 5
 30 406 l 1
 420 406 l 1
 420 310 l 5
161.6484375 197.397460938 m 4
 161.6484375 236.110309415 186.619483682 261.299804688 224.999023438 261.299804688 c 4
 263.37958935 261.299804688 288.3515625 236.110309415 288.3515625 197.397460938 c 4
 288.3515625 158.684753485 263.37958935 133.49609375 224.999023438 133.49609375 c 4
 186.619483682 133.49609375 161.6484375 158.684753485 161.6484375 197.397460938 c 4
161.6484375 518.602539062 m 0
 161.6484375 557.31450274 186.619483682 582.50390625 224.999023438 582.50390625 c 0
 263.37958935 582.50390625 288.3515625 557.31450274 288.3515625 518.602539062 c 0
 288.3515625 479.888946808 263.37958935 454.700195312 224.999023438 454.700195312 c 0
 186.619483682 454.700195312 161.6484375 479.888946808 161.6484375 518.602539062 c 0
EndSplineSet
Validated: 1
EndChar

StartChar: AE
Encoding: 198 198 176
Width: 1024
Flags: W
HStem: 0 111<654 984> 145 110<222 626> 307 116<590 924> 620.008 111<654 984>
VStem: 525 101<145 255> 525 61<637 731.008> 590 64<307 423>
AnchorPoint: "Anchor-0" 592 731 basechar 0
LayerCount: 2
Fore
SplineSet
924 307 m 1xf2
 590 307 l 1
 590 423 l 1
 924 423 l 1
 924 307 l 1xf2
654 620.0078125 m 1
 654 111 l 1
 984 111 l 1
 984 0 l 1
 525 0 l 1
 525 731.0078125 l 1xf6
 984 731.0078125 l 1
 984 620.0078125 l 1
 654 620.0078125 l 1
626 145 m 1xf8
 152 145 l 5
 222 255 l 5
 626 255 l 1
 626 145 l 1xf8
586 731.0078125 m 1xf4
 586 637 l 1
 166 0 l 5
 15 0 l 5
 515 731.0078125 l 1
 586 731.0078125 l 1xf4
EndSplineSet
Validated: 5
EndChar

StartChar: ae
Encoding: 230 230 177
Width: 872
Flags: W
HStem: -9.99805 95.4619<551.953 774.887> -9.99805 96.4619<175.545 316.377> 205 86<455 722> 230.284 79.6494<197.599 367.777> 413.284 97.6494<534.906 676.839> 414.011 97<128.089 307.749>
VStem: 35 121.849<104.46 200.772> 351.929 92<158 368.01> 351.929 15.8486<230.284 309.934> 455 28.8486<205 291>
AnchorPoint: "Anchor-0" 417 501.011 basechar 0
LayerCount: 2
Fore
SplineSet
351.928710938 177.561523438 m 1x5340
 456 172 l 1
 434.646756293 57.3021474421 362.706571153 -9.998046875 224.888671875 -9.998046875 c 0
 102.97392633 -9.998046875 35 50 35 141 c 0
 35 286.71747631 173.677556722 309.797851562 367.928710938 309.93359375 c 1
 367.77734375 230.284179688 l 1x52c0
 188.884620741 230.168544417 156.848632812 202.59483915 156.848632812 153.561523438 c 0
 156.848632812 109.054697245 189.122371651 86.4638671875 241.888671875 86.4638671875 c 0
 299.568072237 86.4638671875 351.928710938 116.359162229 351.928710938 177.561523438 c 1x5340
443.928710938 158 m 1x0740
 351.928710938 165 l 1
 351.928710938 290.010742188 l 2
 351.928710938 376.663085936 302.187976053 414.010742188 234.928710938 414.010742188 c 0
 156.186401366 414.010742188 99.9287109375 379.010742188 99.9287109375 379.010742188 c 1
 68.9287109375 467.010742188 l 1
 68.9287109375 467.010742188 134.510195462 511.010742188 252 511.010742188 c 0
 365.56154983 511.010742188 443.928710938 442.926207049 443.928710938 340.010742188 c 2
 443.928710938 158 l 1x0740
EndSplineSet
Refer: 43 101 N 1 0 0 1 321 0 2
Validated: 5
EndChar

StartChar: Eth
Encoding: 208 208 178
Width: 789
Flags: W
HStem: 0 115.352<256 486.579> 306 109<30 434> 615.649 115.358<256 487.024>
VStem: 127 129<115.352 615.649> 614.929 129.849<240.57 488.722>
LayerCount: 2
Fore
SplineSet
434 306 m 5
 30 306 l 1
 30 415 l 1
 434 415 l 5
 434 306 l 5
EndSplineSet
Refer: 5 68 N 1 0 0 1 62 0 2
Validated: 5
EndChar

StartChar: eth
Encoding: 240 240 179
Width: 588
Flags: W
HStem: -9.99805 107.462<220.676 372.516> 410.284 100.649<221.272 375.881>
VStem: 48.0713 114.849<157.178 349.01> 430 118.849<160.976 440> 430 62.8486<281.562 353.936>
LayerCount: 2
Fore
SplineSet
181.078125 616.658203125 m 5xe0
 507.991210938 710.080078125 l 1
 532.170898438 625.467773438 l 1
 205.256835938 532.044921875 l 5
 181.078125 616.658203125 l 5xe0
430 251.561523438 m 0xf0
 430 500.495382689 377 564.917545341 242.93359375 704.548828125 c 1
 347.827148438 771.274414062 l 1
 347.827148438 771.274414062 548.848632812 601 548.848632812 279 c 0xf0
 548.848632812 93.8330078125 452.941317011 -9.998046875 296.959960938 -9.998046875 c 0
 142.245507994 -9.998046875 48.0712890625 94.0830078123 48.0712890625 253.561523438 c 0
 48.0712890625 409.295898438 133.407733598 510.93359375 282 510.93359375 c 0
 405.386058192 510.93359375 492.848632812 423.747070312 492.848632812 281.561523438 c 1xe8
 430 273.561523438 l 1
 430 353.935502285 384.36247958 410.284179688 298.848632812 410.284179688 c 0
 203.62923684 410.284179688 162.919921875 347.540547667 162.919921875 253.561523438 c 0
 162.919921875 159.957562104 203.063867418 97.4638671875 296.959960938 97.4638671875 c 0
 392.868119471 97.4638671875 430 173.621891681 430 251.561523438 c 0xf0
EndSplineSet
EndChar

StartChar: Thorn
Encoding: 222 222 180
Width: 650
Flags: W
HStem: 0 21G<65 194> 154 96.3516<154 428.376> 500.649 100.358<155 428.682> 711.008 20G<65 194>
VStem: 65 129<0 154 250.352 500.649 601.008 731.008> 155 39<154 250.352 500.649 601.008> 485.929 119.849<300.457 449.88>
LayerCount: 2
Fore
SplineSet
65 0 m 1xfa
 65 731.0078125 l 1
 194 731.0078125 l 1
 194 0 l 1
 65 0 l 1xfa
154 154 m 1
 154 250.3515625 l 1
 309.888671875 250.461914062 l 6
 410.671801342 250.598688888 485.928710938 272.776390232 485.928710938 374.561523438 c 4
 485.928710938 476.990945812 410.660673417 500.51233959 309.888671875 500.545898438 c 6
 155 500.649414062 l 1
 155 601.0078125 l 1xf6
 348.888671875 601.0078125 l 6
 484.05048035 601.0078125 605.77734375 539.335495382 605.77734375 374.561523438 c 4
 605.77734375 213.240207598 483.259109269 154 348.888671875 154 c 6
 154 154 l 1
EndSplineSet
Validated: 5
EndChar

StartChar: thorn
Encoding: 254 254 181
Width: 602
Flags: W
HStem: -9.99805 101.462<237.161 390.314> 410.284 100.649<242.34 391.548> 731.002 20G<65 184>
VStem: 65 119<-180 751.002> 116.151 67.8486<66.4395 183.562> 141.151 42.8486<283.562 425.747> 444.08 114.849<150.71 353.498>
LayerCount: 2
Fore
SplineSet
65 -180 m 1xf2
 65 751.001953125 l 1
 184 751.001953125 l 1
 184 -180 l 1
 65 -180 l 1xf2
184 213.561523438 m 1
 184 154.076084148 224.143667265 91.4638671875 318.040039062 91.4638671875 c 0
 406.331327281 91.4638671875 444.080078125 156.35872751 444.080078125 253.561523438 c 4
 444.080078125 347.540547667 406.365665023 410.284179688 318.151367188 410.284179688 c 0
 224.178202981 410.284179688 184 359.55140297 184 283.561523438 c 1xf2
 141.151367188 283.561523438 l 1xe6
 141.151367188 425.747070312 217.465820312 510.93359375 335 510.93359375 c 0
 477.240234375 510.93359375 558.928710938 409.295898438 558.928710938 253.561523438 c 4
 558.928710938 94.0830078123 473.45703125 -9.998046875 333.040039062 -9.998046875 c 0
 198.217773438 -9.998046875 116.151367188 66.4394531248 116.151367188 183.561523438 c 1xea
 184 213.561523438 l 1
EndSplineSet
Validated: 5
EndChar

StartChar: kgreenlandic
Encoding: 312 312 182
Width: 555
Flags: W
HStem: 0 21G<75 194 356.9 525> 481.011 20G<75 194 353.239 515>
VStem: 75 119<0 221 291 501.011> 175 19<221 291>
LayerCount: 2
Fore
SplineSet
375 0 m 1xd0
 175 221 l 1
 175 291 l 1
 372 501.010742188 l 1
 515 501.010742188 l 1
 285 265 l 5
 525 0 l 1
 375 0 l 1xd0
75 0 m 1xe0
 75 501.010742188 l 1
 194 501.010742188 l 1
 194 0 l 1
 75 0 l 1xe0
EndSplineSet
Validated: 5
EndChar

StartChar: Eng
Encoding: 330 330 183
Width: 719
Flags: W
HStem: -189.994 100<338.552 492.288> 0 21G<75 202> 711.008 20G<75 220.301 517 644>
VStem: 75 127<0 515.005> 517 127<228.6 731.008>
LayerCount: 2
Back
SplineSet
75 0 m 5
 75 731.0078125 l 5
 208 731.0078125 l 5
 517 228.599609375 l 5
 517 731.0078125 l 5
 644 731.0078125 l 5
 644 0 l 5
 511 0 l 5
 202 515.004882812 l 5
 202 0 l 5
 75 0 l 5
EndSplineSet
Fore
SplineSet
75 0 m 1
 75 731.0078125 l 1
 208 731.0078125 l 1
 517 228.599609375 l 1
 517 731.0078125 l 1
 644 731.0078125 l 1
 644 -3 l 2
 644 -125.529296875 590.362068966 -189.994140625 461 -189.994140625 c 0
 376.644138089 -189.994140625 327 -169.994140625 327 -169.994140625 c 1
 341 -74.994140625 l 1
 341 -74.994140625 380.17166842 -89.994140625 435 -89.994140625 c 0
 484.376034917 -89.994140625 511.285542013 -67.8149525584 515.4765625 -7.3369140625 c 1
 202 515.004882812 l 1
 202 0 l 1
 75 0 l 1
EndSplineSet
Validated: 1
Substitution2: "'ss06' Style Set 6 lookup 7-1" Eng.ss06
EndChar

StartChar: eng
Encoding: 331 331 184
Width: 595
Flags: W
HStem: -189.994 100<255.313 382.031> 0 21G<75 194> 415.284 95.6494<240.933 364.325> 481.011 20G<75 194>
VStem: 75 119<0 501.011> 401.777 119<-70.5239 375.417>
LayerCount: 2
Fore
SplineSet
75 0 m 1xdc
 75 501.010742188 l 1
 194 501.010742188 l 1
 194 0 l 1
 75 0 l 1xdc
194 284 m 1
 139 293.561523438 l 1
 160.874026638 444 212.742126105 510.93359375 342 510.93359375 c 0
 460.06226382 510.93359375 520.77734375 444.084682028 520.77734375 304.561523438 c 2
 520.77734375 -9 l 2
 520.77734375 -117.937600252 471.82921062 -189.994140625 353.77734375 -189.994140625 c 0
 288.752403846 -189.994140625 243.77734375 -171.994140625 243.77734375 -171.994140625 c 1
 257.77734375 -77.994140625 l 1
 257.77734375 -77.994140625 284.030932617 -89.994140625 320.77734375 -89.994140625 c 0
 377.805294552 -89.994140625 401.77734375 -64.6929358057 401.77734375 -5.994140625 c 2
 401.77734375 287.561523438 l 2
 401.77734375 368.212193634 371.136246145 415.284179688 299 415.284179688 c 0xec
 225.446886177 415.284179688 194 362.725020039 194 284 c 1
EndSplineSet
Validated: 5
EndChar

StartChar: OE
Encoding: 338 338 185
Width: 991
Flags: W
HStem: 0 111<611 956> 0 111.462<306.966 532.777> 307 116<547 896> 620.008 111<611 956> 620.546 110.462<312.753 532.777>
VStem: 55 124.849<239.564 489.971> 547 64<307 423>
LayerCount: 2
Fore
SplineSet
532.77734375 111.3515625 m 1x6e
 532.77734375 0 l 1
 428.888671875 0 l 6
 233.319335938 0 55 97.9169921874 55 364.561523438 c 0
 55 631.206054688 232.16796875 731.0078125 428.888671875 731.0078125 c 6
 532.77734375 731.0078125 l 1
 532.77734375 620.649414062 l 1
 448.888671875 620.545898438 l 6
 294.863745638 620.386174409 179.848632812 572.684246322 179.848632812 364.561523438 c 0
 179.848632812 156.972695957 294.863745638 111.630463964 448.888671875 111.461914062 c 6
 532.77734375 111.3515625 l 1x6e
EndSplineSet
Refer: 10 69 N 1 0 0 1 417 0 2
Validated: 5
EndChar

StartChar: longs
Encoding: 383 383 187
Width: 269
Flags: W
HStem: 0 21G<75 194> 666.011 95<222.345 350.465>
VStem: 75 119<0 638.384>
AnchorPoint: "Anchor-0" 256 752.002 basechar 0
LayerCount: 2
Fore
SplineSet
194 557.010742188 m 2
 194 0 l 1
 75 0 l 1
 75 570.010742188 l 2
 75 684.97265625 126.879159066 761.010742188 252 761.010742188 c 0
 317.024939904 761.010742188 362 745.010742188 362 745.010742188 c 5
 348 655.010742188 l 5
 348 655.010742188 322.996582031 666.010742188 288 666.010742188 c 0
 221.819415118 666.010742188 194 633.178924979 194 557.010742188 c 2
EndSplineSet
Validated: 1
EndChar

StartChar: uni018F
Encoding: 399 399 188
Width: 765
Flags: W
HStem: -9.99805 116.462<288.582 478.944> 325.123 110<179.108 638.108> 621.659 117.462<172.683 459.692>
VStem: 40 139<214.449 378.495> 594.26 45.8486<325.123 435.123>
LayerCount: 2
Back
SplineSet
35 364.561523438 m 0
 35 591.206054688 163.541887394 739.12109375 389.888671875 739.12109375 c 0
 653.541980974 739.12109375 740.108398438 551.971330386 740.108398438 365.891601562 c 0
 740.108398438 303.039520695 732 284 732 284 c 1
 162 284 l 1
 160 424 l 1
 562 424 l 1
 562 424 560.13712938 586.659179688 391 586.659179688 c 0
 261.796380576 586.659179688 205.848632812 497.743164062 205.848632812 364.561523438 c 4
 205.848632812 231.379882812 273.845797251 142.463867188 432.888671875 142.463867188 c 0
 580.720714467 142.463867188 659.018554688 179.595703125 659.018554688 179.595703125 c 1
 682.827148438 32.595703125 l 1
 682.827148438 32.595703125 604.343305548 -9.998046875 425.888671875 -9.998046875 c 0
 176.581210181 -9.998046875 35 137.916992188 35 364.561523438 c 0
EndSplineSet
Fore
SplineSet
725.108398438 364.561523438 m 0
 725.108398438 137.916992187 600.188545151 -9.998046875 380.219726562 -9.998046875 c 0
 124.094643006 -9.998046875 40 167.123046875 40 343.231445312 c 0
 40 413.758559965 48.1083984375 435.123046875 48.1083984375 435.123046875 c 1
 638.108398438 435.123046875 l 1
 640.108398438 325.123046875 l 1
 179.108398438 325.123046875 l 1
 179.108398438 325.123046875 179 319.615707205 179 300 c 0
 179 218.965546883 240.54215866 106.463867188 380.108398438 106.463867188 c 0
 529.549000283 106.463867188 594.259765625 209.79235621 594.259765625 364.561523438 c 0
 594.259765625 518.731037148 517.277776564 621.659179688 337.219726562 621.659179688 c 0
 195.925167684 621.659179688 121.08984375 580.52734375 121.08984375 580.52734375 c 5
 97.28125 692.52734375 l 5
 97.28125 692.52734375 172.710515626 739.12109375 344.219726562 739.12109375 c 0
 587.149222363 739.12109375 725.108398438 591.206054687 725.108398438 364.561523438 c 0
EndSplineSet
Validated: 5
EndChar

StartChar: florin
Encoding: 402 402 190
Width: 398
Flags: W
HStem: -190.011 100<-31.4641 95.2538> 408 93.0107<34 362> 666.011 95<262.345 390.465>
VStem: 115 119<-70.5374 638.384>
LayerCount: 2
Fore
SplineSet
34 501.010742188 m 1
 362 501.010742188 l 1
 362 408 l 1
 34 408 l 1
 34 501.010742188 l 1
115 -6.0107421875 m 2
 115 570.010742188 l 2
 115 684.97265625 166.879159066 761.010742188 292 761.010742188 c 0
 357.024939904 761.010742188 402 745.010742188 402 745.010742188 c 1
 388 655.010742188 l 1
 388 655.010742188 362.996582031 666.010742188 328 666.010742188 c 0
 261.819415118 666.010742188 234 633.178924979 234 557.010742188 c 2
 234 -9.0107421875 l 2
 234 -117.95387015 185.051724138 -190.010742188 67 -190.010742188 c 0
 1.97505001905 -190.010742188 -43 -172.010742188 -43 -172.010742188 c 5
 -29 -78.0107421875 l 1
 -29 -78.0107421875 -2.74664776144 -90.0107421875 34 -90.0107421875 c 0
 91.0282714843 -90.0107421875 115 -64.7095373682 115 -6.0107421875 c 2
EndSplineSet
Validated: 5
EndChar

StartChar: uni01B7
Encoding: 439 439 191
Width: 584
Flags: W
HStem: -9.99805 106.938<102.662 357.243> 621 110<40 371>
VStem: 416.827 128.084<149.089 283.798>
AnchorPoint: "Anchor-0" 289 731 basechar 0
LayerCount: 2
Fore
SplineSet
344 428 m 1
 344 428 544.911132812 427.716076326 544.911132812 219.670898438 c 0
 544.911132812 55.6855347586 427.018800887 -9.998046875 250 -9.998046875 c 0
 102.934570312 -9.998046875 15.451171875 40.9091796875 15.451171875 40.9091796875 c 1
 46.7744140625 142.262695312 l 5
 46.7744140625 142.262695312 123.169255353 96.939453125 243 96.939453125 c 0
 363.246652736 96.939453125 416.827148438 140.486932137 416.827148438 219 c 0
 416.827148438 298.863840609 357.290544224 337.439631647 243.138671875 337.737304688 c 2
 174 338 l 1
 174 398 l 1
 371 621 l 1
 40 621 l 1
 40 731 l 1
 514 731 l 1
 514 625 l 1
 344 428 l 1
EndSplineSet
Validated: 1
EndChar

StartChar: uni0292
Encoding: 658 658 192
Width: 524
Flags: W
HStem: -189.994 97.9375<71.6501 316.468> 401.011 100<44 331>
VStem: 366.827 118.084<-46.8821 76.9487>
AnchorPoint: "Anchor-0" 260 501.011 basechar 0
LayerCount: 2
Fore
SplineSet
293 209 m 1
 293 209 484.911132812 208.739250292 484.911132812 17.6748046875 c 0
 484.911132812 -130.60239263 375.013909841 -189.994140625 210 -189.994140625 c 0
 94.2852768714 -189.994140625 25.451171875 -159.086914062 25.451171875 -159.086914062 c 1
 47.7744140625 -60.7333984375 l 1
 47.7744140625 -60.7333984375 108.20707347 -92.056640625 203 -92.056640625 c 0
 316.329053626 -92.056640625 366.827148438 -53.1471649783 366.827148438 17.00390625 c 0
 366.827148438 88.7964327096 310.717608064 123.383314013 203.138671875 123.741210938 c 2
 134 124.00390625 l 1
 134 190.00390625 l 1
 331 401.010742188 l 1
 44 401.010742188 l 1
 44 501.010742188 l 1
 474 501.010742188 l 1
 474 405.010742188 l 1
 293 209 l 1
EndSplineSet
Validated: 1
EndChar

StartChar: Oslash
Encoding: 216 216 193
Width: 797
Flags: W
HStem: -9.99805 117.462<292.874 504.904> 621.659 117.462<292.874 504.904>
VStem: 45 129.849<236.696 492.427> 622.929 129.849<236.696 492.427>
AnchorPoint: "Anchor-0" 399 731 basechar 0
AnchorPoint: "Anchor-2" 398 0 basechar 0
AnchorPoint: "Anchor-3" 451 20 basechar 0
LayerCount: 2
Fore
SplineSet
151.5 -91.4697265625 m 5
 536.5 801.403320312 l 5
 645.5 801.403320312 l 1
 260.5 -91.4697265625 l 1
 151.5 -91.4697265625 l 5
EndSplineSet
Refer: 1 79 N 1 0 0 1 0 0 2
Validated: 5
EndChar

StartChar: oslash
Encoding: 248 248 194
Width: 589
Flags: W
HStem: -9.99805 102.462<217.605 371.055> 408.284 102.649<217.628 374.193>
VStem: 45 114.849<155.631 348.391> 429.929 114.849<155.631 348.391>
AnchorPoint: "Anchor-0" 294 501.011 basechar 0
AnchorPoint: "Anchor-2" 294 0 basechar 0
AnchorPoint: "Anchor-3" 377 28 basechar 0
LayerCount: 2
Fore
SplineSet
67.5 -91.4697265625 m 1
 428.5 581.403320312 l 1
 521.5 581.403320312 l 5
 160.5 -91.4697265625 l 5
 67.5 -91.4697265625 l 1
EndSplineSet
Refer: 29 111 N 1 0 0 1 0 0 2
Validated: 5
EndChar

StartChar: ring
Encoding: 730 730 197
Width: 355
Flags: W
HStem: 480.07 76.8965<130.223 224.705> 683.918 77.084<129.835 226.881>
VStem: 35 82.9531<569.386 673.257> 237.824 82.9531<569.386 673.257>
LayerCount: 2
Fore
SplineSet
117.953125 622.396484375 m 0
 117.953125 583.161623568 135.636505123 556.966796875 176.99609375 556.966796875 c 4
 219.606441639 556.966796875 237.82421875 583.161623568 237.82421875 622.396484375 c 0
 237.82421875 659.28805548 219.636231988 683.91796875 177.094726562 683.91796875 c 0
 135.666296728 683.91796875 117.953125 659.28805548 117.953125 622.396484375 c 0
35 622.629882812 m 0
 35 706.358572334 88.6876465277 761.001953125 176.888671875 761.001953125 c 0
 266.332878716 761.001953125 320.77734375 706.358572334 320.77734375 622.629882812 c 0
 320.77734375 536.367848721 266.332878716 480.0703125 176.888671875 480.0703125 c 0
 88.6876465277 480.0703125 35 536.367848721 35 622.629882812 c 0
EndSplineSet
Validated: 1
EndChar

StartChar: ogonek
Encoding: 731 731 198
Width: 307
VWidth: 999
Flags: W
HStem: -255 72<150.863 264.126>
VStem: 40 95<-168.603 -46.049>
LayerCount: 2
Fore
SplineSet
40 -130 m 4
 40 -30.5220125786 128 39 128 39 c 1
 218 39 l 1
 218 39 135 -29.3503184713 135 -108 c 4
 135 -161.921197385 159.643833705 -183 203 -183 c 0
 241.620592949 -183 259 -169 259 -169 c 1
 277 -232 l 1
 277 -232 244.426287616 -255 179 -255 c 0
 93.4086291417 -255 40 -210.528428819 40 -130 c 4
EndSplineSet
Validated: 1
EndChar

StartChar: minute
Encoding: 8242 8242 203
Width: 235
Flags: W
HStem: 456 275.008<97 100>
VStem: 17 203
LayerCount: 2
Fore
SplineSet
17 456 m 5
 97 731.0078125 l 5
 220 731.0078125 l 5
 100 456 l 5
 17 456 l 5
EndSplineSet
Validated: 1
EndChar

StartChar: bullet
Encoding: 8226 8226 206
Width: 325
Flags: W
HStem: 250 226.449<92.6443 232.581>
VStem: 50 225.227<292.876 433.573>
LayerCount: 2
Fore
SplineSet
50 363.224609375 m 0
 50 431.817406607 94.3894466578 476.44921875 162.612304688 476.44921875 c 0
 230.836094646 476.44921875 275.2265625 431.817406607 275.2265625 363.224609375 c 0
 275.2265625 294.630626073 230.836094646 250 162.612304688 250 c 4
 94.3894466578 250 50 294.630626073 50 363.224609375 c 0
EndSplineSet
Validated: 1
EndChar

StartChar: dagger
Encoding: 8224 8224 207
Width: 530
Flags: W
HStem: 380.011 101<30 500>
VStem: 195.5 139<-171.47 37.6447> 205.5 119<526.741 759.47> 215.5 99<217.536 659.429>
LayerCount: 2
Fore
SplineSet
195.5 -171.469726562 m 1xc0
 215.5 427 l 1x90
 205.5 759.469726562 l 1
 324.5 759.469726562 l 1xa0
 314.5 426 l 1x90
 334.5 -171.469726562 l 1
 195.5 -171.469726562 l 1xc0
30 380.010742188 m 5
 30 481.010742188 l 5
 500 481.010742188 l 1
 500 380.010742188 l 1
 30 380.010742188 l 5
EndSplineSet
Validated: 5
EndChar

StartChar: daggerdbl
Encoding: 8225 8225 208
Width: 530
Flags: W
HStem: 90.0107 101<30 500> 430.011 101<30 500>
VStem: 205.5 119<-171.47 43.7591 191 428.6 561.741 759.47> 215.5 99<-78.9288 263 365.4 674.429>
LayerCount: 2
Fore
SplineSet
30 90.0107421875 m 5xc0
 30 191.010742188 l 1
 500 191.010742188 l 1
 500 90.0107421875 l 5
 30 90.0107421875 l 5xc0
205.5 -171.469726562 m 1xe0
 215.5 137 l 1xd0
 205.5 317 l 1xe0
 215.5 477 l 1xd0
 205.5 759.469726562 l 1
 324.5 759.469726562 l 1xe0
 314.5 476 l 1xd0
 324.5 318 l 1xe0
 314.5 136 l 1xd0
 324.5 -171.469726562 l 1
 205.5 -171.469726562 l 1xe0
30 430.010742188 m 1
 30 531.010742188 l 1
 500 531.010742188 l 1
 500 430.010742188 l 1
 30 430.010742188 l 1
EndSplineSet
Validated: 5
EndChar

StartChar: uni2116
Encoding: 8470 8470 209
Width: 1126
Flags: W
HStem: 0 21G<65 192 508.223 654> 249 89<732 1074> 378.061 96.5264<852.347 962.655> 642.278 96.7139<849.53 965.546> 711.008 20G<65 211.097 527 654>
VStem: 65 127<0 515.005> 527 127<228.6 731.008> 728.111 102.412<496.291 622.597> 985.477 102.412<496.951 621.974>
LayerCount: 2
Fore
SplineSet
732 338 m 1xe780
 1074 338 l 5
 1074 249 l 5
 732 249 l 1
 732 338 l 1xe780
830.5234375 560.844726562 m 0
 830.5234375 509.120296933 853.397471726 474.586914062 906.897460938 474.586914062 c 0
 961.942439793 474.586914062 985.4765625 509.120296933 985.4765625 560.844726562 c 4
 985.4765625 609.676662995 961.979615092 642.278320312 907.020507812 642.278320312 c 0xf780
 853.434649022 642.278320312 830.5234375 609.676662995 830.5234375 560.844726562 c 0
728.111328125 560.620117188 m 0
 728.111328125 668.552734375 795.798985332 738.9921875 907 738.9921875 c 0
 1019.44418043 738.9921875 1087.88867188 668.552734375 1087.88867188 560.620117188 c 4
 1087.88867188 450.154296875 1019.44418043 378.060546875 907 378.060546875 c 0
 795.798985332 378.060546875 728.111328125 450.154296875 728.111328125 560.620117188 c 0
EndSplineSet
Refer: 11 78 N 1 0 0 1 0 0 2
Validated: 1
EndChar

StartChar: uni20BF
Encoding: 8383 8383 210
Width: 640
Flags: W
HStem: -105 174.47<165 264 345 444> 0 111.46<189 435.892> 314.656 101.695<154 408.117> 619.649 111.358<189 408.096> 655 174.47<165 264 345 444>
VStem: 154 35<314.656 416.352> 165 99<-105 69.4697 655 829.47> 345 99<-105 69.4697 655 829.47> 451.929 124.849<455.534 578.151> 474.929 124.849<146.936 273.508>
LayerCount: 2
Fore
SplineSet
345 -105 m 5xa1
 345 69.4697265625 l 5
 444 69.4697265625 l 1
 444 -105 l 1
 345 -105 l 5xa1
345 655 m 5x29
 345 829.469726562 l 5
 444 829.469726562 l 1
 444 655 l 1
 345 655 l 5x29
165 -105 m 1xa3
 165 69.4697265625 l 1
 264 69.4697265625 l 1
 264 -105 l 1
 165 -105 l 1xa3
165 655 m 1x2b
 165 829.469726562 l 1
 264 829.469726562 l 1
 264 655 l 1
 165 655 l 1x2b
EndSplineSet
Refer: 19 66 N 1 0 0 1 0 0 2
Validated: 5
EndChar

StartChar: uni20A6
Encoding: 8358 8358 211
Width: 874
Flags: W
HStem: 0 21G<153 280 579.152 728> 259 86<40 254 620 834> 389 86<40 254 620 834> 711.008 20G<153 302.139 601 728>
VStem: 40 240<259 345 389 475> 153 127<0 259 345 389 475 525.005> 153 101<259 345 389 475> 601 233<259 345 389 475> 601 127<218.6 259 345 389 475 731.008> 620 108<259 345 389 475>
LayerCount: 2
Fore
SplineSet
834 259 m 1xf1
 620 259 l 1
 620 345 l 1xf040
 834 345 l 1
 834 259 l 1xf1
834 389 m 1xf1
 620 389 l 1
 620 475 l 1xf040
 834 475 l 1
 834 389 l 1xf1
254 259 m 1xf2
 40 259 l 1
 40 345 l 1xf8
 254 345 l 1
 254 259 l 1xf2
254 389 m 1xf2
 40 389 l 1
 40 475 l 1xf8
 254 475 l 1
 254 389 l 1xf2
153 0 m 1xf440
 153 731.0078125 l 1
 290 731.0078125 l 1
 601 218.599609375 l 5
 601 731.0078125 l 5
 728 731.0078125 l 5xf280
 728 0 l 5
 591 0 l 5
 280 525.004882812 l 1
 280 0 l 1
 153 0 l 1xf440
EndSplineSet
Validated: 5
EndChar

StartChar: uni20BD
Encoding: 8381 8381 212
Width: 703
Flags: W
HStem: 0 21G<141 270> 158.352 86<30 544> 298.352 88<30 480.65> 619.649 111.358<270 475.934>
VStem: 141 129<0 619.649> 533.929 124.849<430.194 570.079>
LayerCount: 2
Fore
SplineSet
544 158.3515625 m 1
 30 158.3515625 l 1
 30 244.3515625 l 1
 544 244.3515625 l 1
 544 158.3515625 l 1
30 298.3515625 m 1
 30 386.3515625 l 1
 364.888671875 386.461914062 l 2
 461.664049169 386.583833736 533.928710938 406.438267663 533.928710938 497.561523438 c 4
 533.928710938 596.738696531 461.664049169 619.421457005 364.888671875 619.545898438 c 2
 270 619.649414062 l 1
 270 0 l 1
 141 0 l 1
 141 731.0078125 l 1
 374.888671875 731.0078125 l 2
 557.502929688 731.0078125 658.77734375 662.051195157 658.77734375 497.561523438 c 4
 658.77734375 368.702748086 567.397460938 298.3515625 413 298.3515625 c 2
 30 298.3515625 l 1
EndSplineSet
Validated: 5
EndChar

StartChar: dong
Encoding: 8363 8363 213
Width: 645
Flags: W
HStem: 0 86<30 594> 150.002 90.6494<237.402 377.076> 479.472 88.4619<238.263 381.443> 609 81<301 605> 731.002 20G<416 535>
VStem: 81.0713 114.849<282.415 437.469> 416 119<355.374 751.002> 416 67.8486<387.374 492.817>
LayerCount: 2
Fore
SplineSet
594 0 m 1xfc
 30 0 l 1
 30 86 l 1
 594 86 l 1
 594 0 l 1xfc
605 609 m 5
 301 609 l 5
 301 690 l 5
 605 690 l 5
 605 609 l 5
535 160 m 1xfe
 416 160 l 1xfd
 416 751.001953125 l 1
 535 751.001953125 l 1
 535 160 l 1xfe
416 385.374023438 m 1xfe
 416 431.218109729 387.632870937 479.471679688 306.959960938 479.471679688 c 0
 233.447822231 479.471679688 195.919921875 430.591110762 195.919921875 357.374023438 c 0
 195.919921875 287.380694305 233.414400408 240.651367188 306.848632812 240.651367188 c 0
 387.597520812 240.651367188 416 286.580621122 416 355.374023438 c 1xfe
 478.848632812 367.374023438 l 1
 478.848632812 237.6953125 409.113239743 150.001953125 275 150.001953125 c 0
 142.306264817 150.001953125 81.0712890625 237.667098627 81.0712890625 357.374023438 c 0
 81.0712890625 480.738756877 148.581227774 567.93359375 279.959960938 567.93359375 c 0
 419.177736421 567.93359375 483.848632812 492.816564308 483.848632812 387.374023438 c 1xfd
 416 385.374023438 l 1xfe
EndSplineSet
EndChar

StartChar: uni1E9E
Encoding: 7838 7838 220
Width: 743
Flags: W
HStem: -10 105.124<356.373 538.816> 0 21G<65 194> 621.008 110<242.189 501>
VStem: 65 129<0 572.191> 582 126<137.369 274.835>
LayerCount: 2
Fore
SplineSet
65 504 m 6x78
 65 663.708074726 156.181818182 731.0078125 360 731.0078125 c 2
 655 731.0078125 l 1
 655 641.0078125 l 1
 499 415 l 1
 573.720207254 415 708 377.183574879 708 209 c 0
 708 61.0789473684 618.780487805 -10 472 -10 c 0
 365.454107783 -10 305 26 305 26 c 1
 335 128 l 1
 335 128 382.624215372 95.1240234375 462.015625 95.1240234375 c 0xb8
 535.090353743 95.1240234375 582 132.987456666 582 209 c 0
 582 284.979381443 533.446808511 319 419 319 c 2
 341 319 l 1
 341 389 l 1
 501 621.0078125 l 1
 335 621.0078125 l 2
 227.79338843 621.0078125 194 575.999441964 194 471.0078125 c 6
 194 0 l 1
 65 0 l 1
 65 504 l 6x78
EndSplineSet
Validated: 1
EndChar

StartChar: germandbls
Encoding: 223 223 221
Width: 725
Flags: W
HStem: -9.99805 92.9795<348.025 551.239> 0 21G<65 184> 415.904 96.0293<431.642 544.799> 657.011 104<257.652 482.283>
VStem: 65 119<0 583.201> 298.204 116.058<322.276 398.251> 546 110.618<508.329 594.393> 566.521 114.169<100.74 177.594>
LayerCount: 2
Fore
SplineSet
460.846679688 206.568359375 m 0xbd
 333.458932746 235.395093448 298.204101562 281.158272312 298.204101562 355 c 0
 298.204101562 452.758904277 375.631656176 511.93359375 487 511.93359375 c 0
 524.400091899 511.93359375 546 508 546 508 c 5
 542.773578991 604.567396401 502.949887294 657.010742188 370 657.010742188 c 0
 218.192750288 657.010742188 184 593.120281995 184 467.010742188 c 2
 184 0 l 1
 65 0 l 1
 65 480.010742188 l 2
 65 651.613415948 140.200648489 761.010742188 361 761.010742188 c 0
 611.509571942 761.010742188 656.618164062 624.632474984 656.618164062 515 c 0x7e
 656.618164062 443.340700559 642.294921875 387.444335938 642.294921875 387.444335938 c 1
 642.294921875 387.444335938 591.545832388 415.904296875 516.743164062 415.904296875 c 0
 446.05281141 415.904296875 414.26171875 393.939332365 414.26171875 358.518554688 c 0
 414.26171875 329.911376365 435.541238837 313.411760947 506.037109375 296.086914062 c 0
 633.717863559 264.70848722 680.689453125 221.143308275 680.689453125 143.40234375 c 0
 680.689453125 48.8634365132 609.723215441 -9.998046875 476.856445312 -9.998046875 c 0
 363.104164206 -9.998046875 291 26.5625 291 26.5625 c 1
 314.314453125 118.861328125 l 1
 314.314453125 118.861328125 381.554998645 82.9814453125 463.993164062 82.9814453125 c 0
 533.451937241 82.9814453125 566.520507812 101.811891307 566.520507812 138.336914062 c 0
 566.520507812 169.612044724 548.206995446 186.799483236 460.846679688 206.568359375 c 0xbd
EndSplineSet
EndChar

StartChar: uni2113
Encoding: 8467 8467 222
Width: 619
Flags: W
HStem: -10 118.13<291.494 498.569> 650.872 110.13<308.223 424.266>
VStem: 445.644 127.496<480.695 628.906>
LayerCount: 2
Fore
SplineSet
93 310.099609375 m 0
 93 606.979916429 187.832115882 761.001953125 366.400390625 761.001953125 c 0
 514.594264621 761.001953125 573.139648438 660.988598335 573.139648438 567.70703125 c 4
 573.139648438 225.326717418 29 166 29 166 c 1
 15 279 l 1
 15 279 445.643554688 325.809398695 445.643554688 563.001953125 c 4
 445.643554688 618.22941164 419.214875509 650.872070312 368.400390625 650.872070312 c 0
 265.390747554 650.872070312 222.229492188 518.74764872 222.229492188 325.875 c 0
 222.229492188 184.510144071 249.919177246 108.129882812 390 108.129882812 c 0
 476.268842106 108.129882812 535.958007812 148.424804688 535.958007812 148.424804688 c 1
 563 42 l 1
 563 42 502.068063888 -10 367.400390625 -10 c 0
 190.150925661 -10 93 95.4008057691 93 310.099609375 c 0
EndSplineSet
Validated: 5
EndChar

StartChar: uni20B8
Encoding: 8376 8376 223
Width: 614
Flags: W
HStem: 0 21G<242.5 371.5> 400 111<40 242.5 371.5 574> 400 81<242.5 371.5> 620 111<40 574>
VStem: 242.5 129<0 481>
LayerCount: 2
Fore
SplineSet
574 620 m 5x98
 40 620 l 1
 40 731 l 1
 574 731 l 5
 574 620 l 5x98
574 400 m 5xd8
 40 400 l 1
 40 511 l 1
 574 511 l 5
 574 400 l 5xd8
242.5 0 m 1
 242.5 481 l 1
 371.5 481 l 1xb8
 371.5 0 l 1
 242.5 0 l 1
EndSplineSet
Validated: 5
EndChar

StartChar: uni20BC
Encoding: 8380 8380 224
Width: 839
Flags: W
HStem: 0 21G<65 194 355 484 641.777 770.777> 438.544 112.462<289.023 546.754> 711.008 20G<355 484>
VStem: 65 129<0 342.986> 355 129<0 731.008> 641.777 129<0 342.986>
LayerCount: 2
Fore
SplineSet
417.888671875 551.005859375 m 0
 681.429351715 551.005859375 770.77734375 430.733734087 770.77734375 246.446289062 c 6
 770.77734375 0 l 5
 641.77734375 0 l 5
 641.77734375 216.446289062 l 6
 641.77734375 349.627544424 610.908592277 438.543945312 417.888671875 438.543945312 c 0
 224.868751473 438.543945312 194 349.627544424 194 216.446289062 c 2
 194 0 l 1
 65 0 l 1
 65 246.446289062 l 2
 65 430.733734087 154.347992035 551.005859375 417.888671875 551.005859375 c 0
355 0 m 1
 355 731.0078125 l 1
 484 731.0078125 l 1
 484 0 l 1
 355 0 l 1
EndSplineSet
Validated: 5
EndChar

StartChar: Ohorn
Encoding: 416 416 225
Width: 797
Flags: W
HStem: -9.99805 117.462<292.874 504.904> 621.659 117.462<292.874 504.904>
VStem: 45 129.849<236.696 492.427> 593.16 116.76<672.574 813.507> 622.929 129.849<236.696 492.427>
AnchorPoint: "Anchor-0" 359 731 basechar 0
AnchorPoint: "Anchor-2" 398 0 basechar 0
AnchorPoint: "Anchor-3" 471 20 basechar 0
LayerCount: 2
Fore
SplineSet
563.080078125 825.799804688 m 5xf0
 687.759765625 825.799804688 l 5
 687.759765625 825.799804688 709.919921875 795.200195312 709.919921875 738.9921875 c 4
 709.919921875 645 627.599609375 592.639648438 627.599609375 592.639648438 c 5
 548.16015625 641.360351562 l 5
 548.16015625 641.360351562 593.16015625 688 593.16015625 733.729492188 c 4
 593.16015625 790.55078125 563.080078125 825.799804688 563.080078125 825.799804688 c 5xf0
EndSplineSet
Refer: 1 79 N 1 0 0 1 0 0 2
Validated: 5
EndChar

StartChar: ohorn
Encoding: 417 417 226
Width: 589
Flags: W
HStem: -9.99805 102.462<217.605 371.055> 408.284 102.649<217.628 374.193>
VStem: 45 114.849<155.631 348.391> 419.16 110.76<462.574 603.507> 429.929 114.849<155.631 348.391>
AnchorPoint: "Anchor-0" 224 501.011 basechar 0
AnchorPoint: "Anchor-2" 294 0 basechar 0
AnchorPoint: "Anchor-3" 357 28 basechar 0
LayerCount: 2
Fore
SplineSet
389.080078125 615.799804688 m 5xf0
 507.759765625 615.799804688 l 5
 507.759765625 615.799804688 529.919921875 585.200195312 529.919921875 528.9921875 c 4
 529.919921875 435 447.599609375 382.639648438 447.599609375 382.639648438 c 5
 374.16015625 431.360351562 l 5
 374.16015625 431.360351562 419.16015625 478 419.16015625 523.729492188 c 4
 419.16015625 580.55078125 389.080078125 615.799804688 389.080078125 615.799804688 c 5xf0
EndSplineSet
Refer: 29 111 N 1 0 0 1 0 0 2
Validated: 5
EndChar

StartChar: Uhorn
Encoding: 431 431 227
Width: 777
Flags: W
HStem: -9.99805 117.462<257.414 458.363> 661 164.8<618 702.142> 711.008 20G<65 194 521.777 650.777>
VStem: 65 129<177.48 731.008> 521.777 129<177.48 731.008> 617 120<737.954 815.378>
AnchorPoint: "Anchor-0" 342 731 basechar 0
AnchorPoint: "Anchor-2" 358 0.0117188 basechar 0
AnchorPoint: "Anchor-3" 451 18 basechar 0
LayerCount: 2
Fore
SplineSet
583.080078125 825.799804688 m 5xd4
 707.759765625 825.799804688 l 5
 707.759765625 825.799804688 737 800 737 752 c 4
 737 692 689 661 618 661 c 5xd4
 544 731.0078125 l 5xb4
 578 731.0078125 617 732.480474404 617 770 c 4
 617 804 583.080078125 825.799804688 583.080078125 825.799804688 c 5xd4
EndSplineSet
Refer: 6 85 N 1 0 0 1 0 0 2
Validated: 5
EndChar

StartChar: uhorn
Encoding: 432 432 228
Width: 660
Flags: W
HStem: -9.92285 95.6494<224.91 360.124> 0 21G<411.777 530.777> 481.011 20G<65 184 411.777 530.777>
VStem: 65 119<125.649 501.011> 411.777 119<207.449 501.011> 500 120<509.138 596.83>
AnchorPoint: "Anchor-0" 272 501.011 basechar 0
AnchorPoint: "Anchor-2" 302 0.0117188 basechar 0
AnchorPoint: "Anchor-3" 454 0 basechar 0
LayerCount: 2
Fore
SplineSet
457.759765625 615.799804688 m 5x34
 582.439453125 615.799804688 l 5
 582.439453125 615.799804688 620 584.757147575 620 527.002929688 c 4
 620 463.70622639 572 431.002929688 501 431.002929688 c 5
 427 501.010742188 l 5
 461 501.010742188 500 502.672238349 500 545.002929688 c 4
 500 588.140961504 457.759765625 615.799804688 457.759765625 615.799804688 c 5x34
EndSplineSet
Refer: 50 117 N 1 0 0 1 0 0 2
EndChar

StartChar: integral
Encoding: 8747 8747 229
Width: 448
Flags: W
HStem: -190.011 104<-40.9308 85.4223> 665.011 96<312.771 440.464>
LayerCount: 2
Fore
SplineSet
115 31.9892578125 m 2
 165 570.010742188 l 2
 174.599709604 684.979719828 216.879159066 761.010742188 342 761.010742188 c 0
 407.024939904 761.010742188 452 745.010742188 452 745.010742188 c 1
 438 654.010742188 l 1
 438 654.010742188 410.496240234 665.010742188 372 665.010742188 c 0
 310.04370777 665.010742188 291.103268007 633.160827408 284 557.010742188 c 2
 234 20.9892578125 l 2
 223.364882068 -105.906604899 182.120689655 -190.010742188 57 -190.010742188 c 0
 -8.02494998095 -190.010742188 -53 -174.010742188 -53 -174.010742188 c 1
 -39 -75.0107421875 l 1
 -39 -75.0107421875 -11.496488131 -86.0107421875 27 -86.0107421875 c 0
 88.9566406249 -86.0107421875 107.28283228 -51.0507828302 115 31.9892578125 c 2
EndSplineSet
Validated: 1
EndChar

StartChar: dotlessi
Encoding: 305 305 231
Width: 269
Flags: W
HStem: 0 21G<75 194> 481.011 20G<75 194>
VStem: 75 119<0 501.011>
AnchorPoint: "Anchor-2" 137 0 basechar 0
AnchorPoint: "Anchor-3" 141 0 basechar 0
AnchorPoint: "Anchor-0" 134 501.011 basechar 0
LayerCount: 2
Fore
SplineSet
75 0 m 1
 75 501.010742188 l 1
 194 501.010742188 l 5
 194 0 l 5
 75 0 l 1
EndSplineSet
Validated: 1
EndChar

StartChar: uni0237
Encoding: 567 567 232
Width: 269
Flags: W
HStem: -190 100<-71.4641 55.2538> 481.011 20G<75 194>
VStem: 75 119<-70.5267 501.011>
AnchorPoint: "Anchor-2" 17 -179.988 basechar 0
AnchorPoint: "Anchor-0" 134 501.011 basechar 0
LayerCount: 2
Back
SplineSet
75 -6 m 6xe8
 75 501.010742188 l 5
 194 501.010742188 l 5
 194 -9 l 6
 194 -117.943127962 145.051724138 -190 27 -190 c 4
 -38.0249499809 -190 -83 -172 -83 -172 c 5
 -69 -78 l 5
 -69 -78 -42.7466477614 -90 -6 -90 c 4
 51.0282714843 -90 75 -64.6987951807 75 -6 c 6xe8
EndSplineSet
Fore
SplineSet
75 -6 m 6
 75 501.010742188 l 1
 194 501.010742188 l 1
 194 -9 l 2
 194 -117.943127962 145.051724138 -190 27 -190 c 0
 -38.0249499809 -190 -83 -172 -83 -172 c 1
 -69 -78 l 1
 -69 -78 -42.7466477614 -90 -6 -90 c 0
 51.0282714843 -90 75 -64.6987951807 75 -6 c 6
EndSplineSet
Validated: 1
EndChar

StartChar: uni20B3
Encoding: 8371 8371 233
Width: 824
Flags: W
HStem: 0 21G<77.5 213.323 610.398 746.5> 139 86<40 784> 269 86<70 754> 711.008 20G<330.387 483.887>
LayerCount: 2
Fore
SplineSet
476.5 731.0078125 m 1
 746.5 0 l 5
 617.5 0 l 5
 407.893554688 590.313476562 l 1
 206.5 0 l 1
 77.5 0 l 1
 337.5 731.0078125 l 1
 476.5 731.0078125 l 1
754 269 m 5
 70 269 l 1
 70 355 l 1
 754 355 l 5
 754 269 l 5
784 139 m 5
 40 139 l 1
 40 225 l 1
 784 225 l 5
 784 139 l 5
EndSplineSet
Validated: 5
EndChar

StartChar: hookabovecomb
Encoding: 777 777 234
Width: 0
Flags: W
HStem: 508 60.0488<70.0436 179.089> 660.229 78.7637<16.6693 145.649>
VStem: 45.1816 89.9561<468 508.653> 153.854 100.774<575.164 649.488>
AnchorPoint: "Anchor-0" 103 427 mark 0
LayerCount: 2
Fore
SplineSet
133.645507812 508.653320312 m 5
 135.137695312 468 l 5
 45.181640625 468 l 5
 46.9150390625 572.46875 l 5
 46.9150390625 572.46875 67.4169840485 568.048828125 93.1572265625 568.048828125 c 4
 134.210951721 568.048828125 153.854492188 583.093944763 153.854492188 611.145507812 c 4
 153.854492188 645.186200174 127.833711651 660.228515625 89.6533203125 660.228515625 c 4
 49.1920308595 660.228515625 22.6826171875 640.958007812 22.6826171875 640.958007812 c 5
 0 715.311523438 l 5
 0 715.311523438 37.4070491068 738.9921875 101.653320312 738.9921875 c 4
 191.306379918 738.9921875 254.62890625 702.759765625 254.62890625 614.010742188 c 4
 254.62890625 542.430325419 206.177174839 508 152 508 c 4
 140.010797312 508 133.645507812 508.653320312 133.645507812 508.653320312 c 5
EndSplineSet
Validated: 1
EndChar

StartChar: uni20B1
Encoding: 8369 8369 235
Width: 844
Flags: W
HStem: 0 21G<161 290> 224 107.352<260 510.173> 339 86<40 234 610 804> 469 86<40 234 610 804> 619.649 111.358<290 510.527>
VStem: 40 250<339 425 469 555> 161 73<339 425 469 555> 260 30<224 331.352> 575.929 228.071<357.193 425 469 555> 610 91.7773<339 425 469 555>
LayerCount: 2
Fore
SplineSet
804 339 m 1xf880
 610 339 l 1
 610 425 l 1xf840
 804 425 l 1
 804 339 l 1xf880
804 469 m 1xf880
 610 469 l 1
 610 555 l 1xf840
 804 555 l 1
 804 469 l 1xf880
234 339 m 1xfa
 40 339 l 1
 40 425 l 1xfc
 234 425 l 1
 234 339 l 1xfa
234 469 m 1xfa
 40 469 l 1
 40 555 l 1xfc
 234 555 l 1
 234 469 l 1xfa
260 224 m 1xfb40
 260 331.3515625 l 1
 396.888671875 331.461914062 l 6
 499.389362216 331.543292907 575.928710938 357.192799431 575.928710938 474.561523438 c 0xf980
 575.928710938 592.438567989 499.38935129 619.449679133 396.888671875 619.545898438 c 2
 290 619.649414062 l 1
 290 0 l 1
 161 0 l 1
 161 731.0078125 l 1
 414.888671875 731.0078125 l 2
 565.834960938 731.0078125 701.77734375 661.165039062 701.77734375 474.561523438 c 0
 701.77734375 291.297851562 564.951171875 224 414.888671875 224 c 2
 260 224 l 1xfb40
EndSplineSet
Validated: 5
EndChar

StartChar: uni20A9
Encoding: 8361 8361 236
Width: 1114
Flags: W
HStem: 0 21G<279.65 442.038 680.797 843.514> 259 86<60 254 860 1054> 389 86<40 254 860 1074> 711.008 20G<125 262.674 866.264 1004>
LayerCount: 2
Fore
SplineSet
1054 259 m 1
 860 259 l 1
 860 345 l 1
 1054 345 l 1
 1054 259 l 1
1074 389 m 1
 860 389 l 1
 860 475 l 1
 1074 475 l 1
 1074 389 l 1
254 259 m 1
 60 259 l 1
 60 345 l 1
 254 345 l 1
 254 259 l 1
254 389 m 1
 40 389 l 1
 40 475 l 1
 254 475 l 1
 254 389 l 1
284 0 m 1
 125 731.0078125 l 1
 259 731.0078125 l 1
 365.606445312 150.694335938 l 1
 495 671.0078125 l 1
 624 671.0078125 l 1
 761.606445312 150.694335938 l 1
 870 731.0078125 l 1
 1004 731.0078125 l 1
 839 0 l 1
 686 0 l 1
 559.5 486.271484375 l 5
 437 0 l 1
 284 0 l 1
EndSplineSet
Validated: 5
EndChar

StartChar: franc
Encoding: 8355 8355 237
Width: 584
Flags: W
HStem: 0 21G<105 234> 119 91<30 384> 337 102<170 494> 620.008 111<234 554>
VStem: 105 129<0 337 439 620.008> 170 64<337 439>
LayerCount: 2
Fore
SplineSet
384 119 m 1xf0
 30 119 l 1
 30 210 l 1
 384 210 l 1
 384 119 l 1xf0
494 337 m 5
 170 337 l 1
 170 439 l 1xf4
 494 439 l 5
 494 337 l 5
234 620.0078125 m 1xf8
 234 0 l 1
 105 0 l 1
 105 731.0078125 l 1
 554 731.0078125 l 5
 554 620.0078125 l 5
 234 620.0078125 l 1xf8
EndSplineSet
Validated: 5
EndChar

StartChar: peseta
Encoding: 8359 8359 238
Width: 844
Flags: W
HStem: 0 21G<161 290> 224 107.352<260 510.173> 429 86<30 814> 619.649 111.358<290 510.527>
VStem: 161 129<0 224 331.352 619.649> 260 30<224 331.352> 575.929 125.849<389.739 560.535>
LayerCount: 2
Fore
SplineSet
814 429 m 1xf2
 629 429 l 1
 585 429 l 1
 265 429 l 1
 209 429 l 1
 30 429 l 1
 30 515 l 1
 211 515 l 1
 267 515 l 1
 583 515 l 1
 627 515 l 1
 814 515 l 1
 814 429 l 1xf2
260 224 m 5xf6
 260 331.3515625 l 5xf6
 396.888671875 331.461914062 l 6
 499.389354806 331.546395523 575.928710938 357.192799431 575.928710938 474.561523438 c 4
 575.928710938 592.438567989 499.38934093 619.443765831 396.888671875 619.545898438 c 6
 290 619.649414062 l 5
 290 0 l 5
 161 0 l 5
 161 731.0078125 l 5xfa
 414.888671875 731.0078125 l 6
 565.834960938 731.0078125 701.77734375 661.165039062 701.77734375 474.561523438 c 4
 701.77734375 291.297851562 564.951171875 224 414.888671875 224 c 6
 260 224 l 5xf6
EndSplineSet
Validated: 5
EndChar

StartChar: uni20BE
Encoding: 8382 8382 239
Width: 781
Flags: W
HStem: 0 111<459 744> 35.002 75.998<194.849 395.889> 719.121 20G<303.991 515.674>
VStem: 65 134.849<261.82 503.167> 309 86<388 812> 439 86<388 812> 626.355 120.326<410.892 509.52>
LayerCount: 2
Fore
SplineSet
525 812 m 1x3e
 525 388 l 1
 439 388 l 1
 439 812 l 1
 525 812 l 1x3e
395 812 m 1
 395 388 l 1
 309 388 l 1
 309 812 l 1
 395 812 l 1
744 0 m 5xbe
 40 0 l 1xbe
 40 111 l 1x7e
 744 111 l 5
 744 0 l 5xbe
395.888671875 35.001953125 m 1x7e
 194.84872234 35.001953125 65 176.993256349 65 394.561523438 c 0
 65 603.05352116 192.092773438 739.12109375 415.888671875 739.12109375 c 0
 615.460313619 739.12109375 738.4322586 616.973940289 746.681640625 410.891601562 c 1
 626.35546875 393.138671875 l 1
 618.028047413 554.407068689 565.353210578 621.659179688 422.888671875 621.659179688 c 0
 266.647924536 621.659179688 199.848632812 526.738460259 199.848632812 384.561523438 c 0
 199.848632812 220.519914145 287.865268056 111 459 111 c 1xbe
 395.888671875 35.001953125 l 1x7e
EndSplineSet
Validated: 5
EndChar

StartChar: uni030F
Encoding: 783 783 251
Width: 0
Flags: W
HStem: 516 225.008
AnchorPoint: "Anchor-0" 255 480 mark 0
LayerCount: 2
Fore
SplineSet
136 516 m 1
 20 711.0078125 l 1
 126 741.0078125 l 1
 204 536 l 1
 136 516 l 1
326 516 m 1
 210 711.0078125 l 1
 316 741.0078125 l 1
 394 536 l 5
 326 516 l 1
EndSplineSet
Validated: 1
EndChar

StartChar: uni0326
Encoding: 806 806 254
Width: 0
Flags: W
HStem: -232 232.449
VStem: 20 145.227<-128.151 -22.2969>
AnchorPoint: "Anchor-2" 82 48 mark 0
LayerCount: 2
Fore
SplineSet
20 -73.232421875 m 4
 20 -28.5952258413 47.8785247594 0.44921875 90.7255859375 0.44921875 c 4
 135.859768609 0.44921875 165.2265625 -32.8903979908 165.2265625 -93.232421875 c 4
 165.2265625 -170.941685214 78.11328125 -232 78.11328125 -232 c 5
 32.11328125 -199 l 5
 32.11328125 -199 66.6708984375 -172.53125 82.11328125 -146 c 5
 44.1702120243 -142.251466054 20 -114.425942309 20 -73.232421875 c 4
EndSplineSet
Validated: 1
EndChar

StartChar: uni031B
Encoding: 795 795 258
Width: 0
Flags: W
HStem: 497.848 233.16
VStem: 65 96.7598<577.782 718.715>
LayerCount: 2
Fore
SplineSet
34.919921875 731.0078125 m 1
 139.599609375 731.0078125 l 5
 139.599609375 731.0078125 161.759765625 700.408203124 161.759765625 644.200195312 c 4
 161.759765625 550.208007812 79.439453125 497.84765625 79.439453125 497.84765625 c 5
 20 546.568359375 l 1
 20 546.568359375 65 593.208007812 65 638.9375 c 0
 65 695.758789062 34.919921875 731.0078125 34.919921875 731.0078125 c 1
EndSplineSet
Validated: 1
EndChar

StartChar: dcaron
Encoding: 271 271 406
Width: 763
Flags: W
HStem: -9.99805 100.649<218.426 358.919> 0 21G<423 542> 409.472 101.462<219.617 363.901> 731 20G<645.343 778> 731.002 20G<423 542>
VStem: 48.0713 114.849<147.438 350.225> 423 42.8486<75.1885 217.374 317.374 434.496> 423 119<217.374 751.002>
LayerCount: 2
Fore
SplineSet
651 751 m 25x34
 778 751 l 29
 683 553 l 29
 595 553 l 25
 651 751 l 25x34
EndSplineSet
Refer: 44 100 N 1 0 0 1 0 0 2
Validated: 5
EndChar

StartChar: tcaron
Encoding: 357 357 407
Width: 463
Flags: W
HStem: -10 98<255.166 367.082> 409 92.0107<24 372> 731 20G<355.343 488>
VStem: 115 119<109.473 651.011>
LayerCount: 2
Fore
SplineSet
361 751 m 25
 488 751 l 29
 393 553 l 29
 305 553 l 25
 361 751 l 25
EndSplineSet
Refer: 41 116 N 1 0 0 1 0 0 2
Validated: 5
EndChar

StartChar: dcroat
Encoding: 273 273 409
Width: 622
Flags: W
HStem: -9.99805 100.649<218.426 358.919> 0 21G<423 542> 409.472 101.462<219.617 363.901> 565 91<298 612> 731.002 20G<423 542>
VStem: 48.0713 114.849<147.438 350.225> 423 42.8486<75.1885 217.374 317.374 434.496> 423 119<217.374 751.002>
LayerCount: 2
Fore
SplineSet
612 565 m 1x3c
 298 565 l 5
 298 656 l 5
 612 656 l 1
 612 565 l 1x3c
EndSplineSet
Refer: 44 100 N 1 0 0 1 0 0 2
EndChar

StartChar: Tbar
Encoding: 358 358 410
Width: 614
Flags: W
HStem: 0 21G<242.5 371.5> 260 101<115 499> 620 81<242.5 371.5> 620 111<40 242.5 371.5 574>
VStem: 242.5 129<0 701>
LayerCount: 2
Fore
SplineSet
499 260 m 5xc8
 115 260 l 1
 115 361 l 1
 499 361 l 5
 499 260 l 5xc8
EndSplineSet
Refer: 17 84 N 1 0 0 1 0 0 2
EndChar

StartChar: tbar
Encoding: 359 359 411
Width: 412
Flags: W
HStem: -10 98<255.166 367.082> 219 91<39 343> 409 92.0107<24 372>
VStem: 115 119<109.473 651.011>
LayerCount: 2
Fore
SplineSet
343 219 m 5
 39 219 l 1
 39 310 l 1
 343 310 l 5
 343 219 l 5
EndSplineSet
Refer: 41 116 N 1 0 0 1 0 0 2
EndChar

StartChar: Hbar
Encoding: 294 294 412
Width: 859
Flags: W
HStem: 0 21G<135 264 595 724> 305 106<200 644> 521.011 101<40 819> 711.008 20G<135 264 595 724>
VStem: 135 129<0 305 411 731.008> 200 64<305 411> 595 49<305 411> 595 129<0 305 411 731.008>
LayerCount: 2
Fore
SplineSet
819 521.010742188 m 5xf0
 40 518 l 1
 40 619 l 1
 819 622.010742188 l 5
 819 521.010742188 l 5xf0
EndSplineSet
Refer: 2 72 N 1 0 0 1 70 0 2
EndChar

StartChar: hbar
Encoding: 295 295 413
Width: 637
Flags: W
HStem: 0 21G<107 226 453.777 572.777> 415.284 95.6494<277.653 412.867> 565 91<30 364> 731.002 20G<107 226>
VStem: 107 119<0 751.002> 453.777 119<0 375.362>
LayerCount: 2
Fore
SplineSet
364 565 m 5
 30 565 l 1
 30 656 l 1
 364 656 l 5
 364 565 l 5
EndSplineSet
Refer: 36 104 N 1 0 0 1 42 0 2
EndChar

StartChar: Lslash
Encoding: 321 321 429
Width: 612
Flags: W
HStem: 0 111<238 588> 711.008 20G<109 238>
VStem: 109 129<111 731.008>
LayerCount: 2
Fore
SplineSet
422 387 m 5
 28 298 l 5
 22 395 l 1
 416 484 l 1
 422 387 l 5
EndSplineSet
Refer: 7 76 N 1 0 0 1 44 0 2
Validated: 5
EndChar

StartChar: lslash
Encoding: 322 322 430
Width: 425
Flags: W
HStem: -10.0088 104<257.085 367.088> 484 20G<273.191 347.237> 731.002 20G<119 238>
VStem: 119 119<115.425 751.002>
LayerCount: 2
Fore
SplineSet
352 407 m 1
 28 318 l 1
 22 415 l 5
 346 504 l 5
 352 407 l 1
EndSplineSet
Refer: 35 108 N 1 0 0 1 44 0 2
Validated: 5
EndChar

StartChar: guilsinglleft
Encoding: 8249 8249 530
Width: 340
Flags: W
VStem: 45 260
LayerCount: 2
Fore
SplineSet
45 281 m 1
 185 441 l 1
 305 441 l 5
 151.75 254 l 5
 305 67 l 5
 185 67 l 1
 45 227 l 1
 45 281 l 1
EndSplineSet
Validated: 1
EndChar

StartChar: guilsinglright
Encoding: 8250 8250 531
Width: 340
Flags: W
VStem: 35 260
LayerCount: 2
Fore
SplineSet
295 227 m 1
 155 67 l 1
 35 67 l 5
 188.25 254 l 5
 35 441 l 5
 155 441 l 1
 295 281 l 1
 295 227 l 1
EndSplineSet
Validated: 1
EndChar

StartChar: uni20AE
Encoding: 8366 8366 532
Width: 614
Flags: W
HStem: 0 21G<242.5 371.5> 620 111<40 242.5 371.5 574> 620 81<242.5 371.5>
VStem: 242.5 129<0 701>
LayerCount: 2
Fore
SplineSet
574 620 m 5xd0
 40 620 l 1
 40 731 l 1
 574 731 l 5
 574 620 l 5xd0
242.5 0 m 1
 242.5 701 l 1
 371.5 701 l 1xb0
 371.5 0 l 1
 242.5 0 l 1
494 255 m 1
 120 145 l 1
 120 231 l 1
 494 341 l 1
 494 255 l 1
494 385 m 1
 120 275 l 1
 120 361 l 1
 494 471 l 1
 494 385 l 1
EndSplineSet
Validated: 5
EndChar

StartChar: estimated
Encoding: 8494 8494 533
Width: 765
Flags: W
HStem: -9.99805 99.4619<308.571 605.284> 294 110<122 583> 362 42<583 633> 626.659 112.462<282.76 511.443>
VStem: 119.849 80<294 604.562> 122 37.8486<298.374 400.416> 583 80<362 404 418.734 624> 633.598 29.4023<404.004 490.35>
LayerCount: 2
Fore
SplineSet
583 624 m 5xb2
 663 624 l 5
 663 362 l 5
 583 362 l 5
 583 624 l 5xb2
119.848632812 604.561523438 m 1x98
 199.848632812 604.561523438 l 1
 199.848632812 132.561523438 l 1
 119.848632812 132.561523438 l 1
 119.848632812 604.561523438 l 1x98
35 364.561523438 m 0
 35 591.206054688 163.541887394 739.12109375 389.888671875 739.12109375 c 0
 633.541980974 739.12109375 740.108398438 587.014334807 740.108398438 395.891601562 c 4
 740.108398438 317.689453126 732 294 732 294 c 5
 122 294 l 1xd5
 120 404 l 1
 633 404 l 5
 633 404 633.59765625 409.501338491 633.59765625 418.734375 c 4
 633.59765625 490.350406346 594.008313607 626.659179688 395 626.659179688 c 0
 230.905031572 626.659179688 159.848632812 521.72930473 159.848632812 364.561523438 c 0xb5
 159.848632812 199.598246425 241.922022492 89.4638671875 433.888671875 89.4638671875 c 0
 575.183230754 89.4638671875 650.018554688 126.595703125 650.018554688 126.595703125 c 1
 672.827148438 32.595703125 l 1
 672.827148438 32.595703125 597.397882812 -9.998046875 425.888671875 -9.998046875 c 0
 176.581210181 -9.998046875 35 137.916992188 35 364.561523438 c 0
EndSplineSet
Validated: 5
EndChar

StartChar: Omega
Encoding: 8486 8486 534
Width: 837
Flags: W
HStem: 0 106<40 182.328 315.044 384 453 522.297 655.166 797> 621.659 117.462<311.686 526.092>
VStem: 65 124.849<249.636 490.377> 647.929 124.849<249.636 490.377>
LayerCount: 2
Fore
SplineSet
384 0 m 1
 40 0 l 1
 40 106 l 1
 182.328125 106 l 1
 182.328125 106 65 184.140723892 65 384.561523438 c 0
 65 599.104132899 198.904668843 739.12109375 418.888671875 739.12109375 c 0
 638.872674907 739.12109375 772.77734375 599.104132899 772.77734375 384.561523438 c 4
 772.77734375 184.140723892 655.166015625 106 655.166015625 106 c 1
 797 106 l 5
 797 0 l 5
 453 0 l 1
 453 106 l 1
 555.37001721 119.131129137 647.928710938 209.51419662 647.928710938 364.561523438 c 4
 647.928710938 518.731037146 579.332558189 621.659179688 418.888671875 621.659179688 c 0
 258.444785561 621.659179688 189.848632812 518.731037146 189.848632812 364.561523438 c 0
 189.848632812 209.51419662 282.194026805 119.131129137 384 106 c 1
 384 0 l 1
EndSplineSet
Validated: 1
EndChar

StartChar: uni2E3A
Encoding: 11834 11834 536
Width: 1080
Flags: W
HStem: 228 103<40 1040>
LayerCount: 2
Fore
SplineSet
40 228 m 1
 40 331 l 1
 1040 331 l 5
 1040 228 l 5
 40 228 l 1
EndSplineSet
Validated: 1
EndChar

StartChar: uni2E3B
Encoding: 11835 11835 537
Width: 1380
Flags: W
HStem: 228 103<40 1340>
LayerCount: 2
Fore
SplineSet
40 228 m 1
 40 331 l 1
 1340 331 l 5
 1340 228 l 5
 40 228 l 1
EndSplineSet
Validated: 1
EndChar

StartChar: pi
Encoding: 960 960 538
Width: 672
Flags: W
HStem: -10 99<527.758 630.394> 0 21G<81 210> 403 98.0107<24 130 249 395 514 632> 403 78.0107<130 249>
VStem: 130 119<120.725 481.011> 395 119<102.873 441.011>
LayerCount: 2
Fore
SplineSet
81 0 m 1x5c
 81 0 130 155.741721854 130 351 c 2
 130 481.010742188 l 1
 249 481.010742188 l 1
 249 329 l 2
 249 141 210 0 210 0 c 1
 81 0 l 1x5c
24 501.010742188 m 1x2c
 632 501.010742188 l 5
 632 403 l 5
 24 403 l 1
 24 501.010742188 l 1x2c
514 162 m 2
 514 110.987968014 532.940972223 89 578 89 c 0
 607.163411458 89 628 100 628 100 c 1
 642 6 l 1
 642 6 605.201953125 -10 552 -10 c 0x8c
 424.225967162 -10 395 58.076171875 395 161 c 2
 395 441.010742188 l 1
 514 461.010742188 l 1
 514 162 l 2
EndSplineSet
Validated: 5
EndChar

StartChar: radical
Encoding: 8730 8730 539
Width: 686
Flags: W
HStem: 0 21G<282.545 435.621> 481.011 20G<5 236.399> 711.008 20G<535.68 671>
LayerCount: 2
Fore
SplineSet
229 501.010742188 m 1
 358.606445312 150.694335938 l 1
 542 731.0078125 l 1
 671 731.0078125 l 1
 429 0 l 1
 290 0 l 1
 148.35546875 380.010742188 l 5
 15 366.010742188 l 1
 5 481.010742188 l 1
 229 501.010742188 l 1
EndSplineSet
Validated: 1
EndChar

StartChar: .notdef
Encoding: 65536 -1 681
Width: 639
Flags: W
HStem: 0 90<209 465> 50 40<174 209> 641.008 90<174 430> 641.008 39.9922<430 465>
VStem: 75 99<90 641.008>
LayerCount: 2
Fore
SplineSet
174 641.0078125 m 1x28
 174 90 l 1x68
 465 90 l 1
 465 641.0078125 l 1x98
 174 641.0078125 l 1x28
564 0 m 1xa8
 75 0 l 1
 75 731.0078125 l 1
 564 731.0078125 l 1
 564 0 l 1xa8
110 50 m 5x58
 430 681 l 5
 529 681 l 5
 209 50 l 5
 110 50 l 5x58
EndSplineSet
Validated: 5
EndChar

StartChar: R.ss01
Encoding: 65537 -1 682
Width: 663
Flags: W
HStem: 0 21G<65 194 477.355 631> 256 105.352<164 320.252> 619.649 111.358<194 418.239>
VStem: 65 129<0 256 361.352 619.649> 164 30<256 361.352> 474.929 125.849<410.65 568.399>
AnchorPoint: "Anchor-2" 342 0.0117188 basechar 0
AnchorPoint: "Anchor-0" 325 731 basechar 0
LayerCount: 2
Fore
SplineSet
323 310 m 1xe4
 442 338 l 1
 631 0 l 1
 488 0 l 1
 323 310 l 1xe4
324 256 m 2
 164 256 l 1
 164 361.3515625 l 1xec
 306.888671875 361.461914062 l 6
 403.091342281 361.525555049 474.928710938 384.495496038 474.928710938 489.561523438 c 4
 474.928710938 595.241984925 403.091347602 619.474229555 306.888671875 619.545898438 c 6
 194 619.649414062 l 1
 194 0 l 1
 65 0 l 1
 65 731.0078125 l 1xf4
 318.888671875 731.0078125 l 2
 467.204101562 731.0078125 600.77734375 666.611451897 600.77734375 494.561523438 c 0
 600.77734375 310.447579655 473.943812572 256 324 256 c 2
EndSplineSet
EndChar

